<svg width="24" height="24" viewBox="0 0 24 24" fill="none" xmlns="http://www.w3.org/2000/svg">
<g clip-path="url(#clip0_150_4488)">
<path d="M23 11H21V9C21 8.73478 20.8946 8.48043 20.7071 8.29289C20.5196 8.10536 20.2652 8 20 8C19.7348 8 19.4804 8.10536 19.2929 8.29289C19.1054 8.48043 19 8.73478 19 9V11H17C16.7348 11 16.4804 11.1054 16.2929 11.2929C16.1054 11.4804 16 11.7348 16 12C16 12.2652 16.1054 12.5196 16.2929 12.7071C16.4804 12.8946 16.7348 13 17 13H19V15C19 15.2652 19.1054 15.5196 19.2929 15.7071C19.4804 15.8946 19.7348 16 20 16C20.2652 16 20.5196 15.8946 20.7071 15.7071C20.8946 15.5196 21 15.2652 21 15V13H23C23.2652 13 23.5196 12.8946 23.7071 12.7071C23.8946 12.5196 24 12.2652 24 12C24 11.7348 23.8946 11.4804 23.7071 11.2929C23.5196 11.1054 23.2652 11 23 11Z" fill="white"/>
<mask id="path-2-inside-1_150_4488" fill="white">
<path d="M9 12C10.1867 12 11.3467 11.6481 12.3334 10.9888C13.3201 10.3295 14.0892 9.39246 14.5433 8.2961C14.9974 7.19975 15.1162 5.99335 14.8847 4.82946C14.6532 3.66557 14.0818 2.59648 13.2426 1.75736C12.4035 0.918247 11.3344 0.346802 10.1705 0.115291C9.00666 -0.11622 7.80026 0.00259972 6.7039 0.456725C5.60754 0.910851 4.67047 1.67989 4.01118 2.66658C3.35189 3.65328 3 4.81331 3 6C3.00159 7.59081 3.63424 9.11601 4.75911 10.2409C5.88399 11.3658 7.40919 11.9984 9 12ZM9 2C9.79113 2 10.5645 2.2346 11.2223 2.67412C11.8801 3.11365 12.3928 3.73836 12.6955 4.46927C12.9983 5.20017 13.0775 6.00444 12.9231 6.78036C12.7688 7.55629 12.3878 8.26902 11.8284 8.82843C11.269 9.38784 10.5563 9.7688 9.78036 9.92314C9.00444 10.0775 8.20017 9.99827 7.46927 9.69552C6.73836 9.39277 6.11365 8.88008 5.67412 8.22228C5.2346 7.56449 5 6.79113 5 6C5 4.93914 5.42143 3.92172 6.17157 3.17158C6.92172 2.42143 7.93913 2 9 2Z"/>
</mask>
<path d="M9 12C10.1867 12 11.3467 11.6481 12.3334 10.9888C13.3201 10.3295 14.0892 9.39246 14.5433 8.2961C14.9974 7.19975 15.1162 5.99335 14.8847 4.82946C14.6532 3.66557 14.0818 2.59648 13.2426 1.75736C12.4035 0.918247 11.3344 0.346802 10.1705 0.115291C9.00666 -0.11622 7.80026 0.00259972 6.7039 0.456725C5.60754 0.910851 4.67047 1.67989 4.01118 2.66658C3.35189 3.65328 3 4.81331 3 6C3.00159 7.59081 3.63424 9.11601 4.75911 10.2409C5.88399 11.3658 7.40919 11.9984 9 12ZM9 2C9.79113 2 10.5645 2.2346 11.2223 2.67412C11.8801 3.11365 12.3928 3.73836 12.6955 4.46927C12.9983 5.20017 13.0775 6.00444 12.9231 6.78036C12.7688 7.55629 12.3878 8.26902 11.8284 8.82843C11.269 9.38784 10.5563 9.7688 9.78036 9.92314C9.00444 10.0775 8.20017 9.99827 7.46927 9.69552C6.73836 9.39277 6.11365 8.88008 5.67412 8.22228C5.2346 7.56449 5 6.79113 5 6C5 4.93914 5.42143 3.92172 6.17157 3.17158C6.92172 2.42143 7.93913 2 9 2Z" fill="white"/>
<path d="M9 12L8.9787 33.3333L8.98935 33.3333H9V12ZM3 6H-18.3333V6.01065L-18.3333 6.0213L3 6ZM5 6H-16.3333H5ZM9 2V-19.3333V2ZM9 33.3333C14.406 33.3333 19.6906 31.7303 24.1856 28.7268L0.481257 -6.7492C3.00281 -8.43405 5.96735 -9.33333 9 -9.33333V33.3333ZM24.1856 28.7268C28.6805 25.7234 32.1839 21.4545 34.2527 16.46L-5.16615 0.132189C-4.00561 -2.66961 -2.0403 -5.06435 0.481257 -6.7492L24.1856 28.7268ZM34.2527 16.46C36.3215 11.4655 36.8628 5.96968 35.8081 0.667534L-6.03871 8.99139C-6.63035 6.01701 -6.3267 2.93399 -5.16615 0.132189L34.2527 16.46ZM35.8081 0.667534C34.7535 -4.63461 32.1502 -9.50495 28.3276 -13.3276L-1.8423 16.8423C-3.98671 14.6979 -5.44707 11.9658 -6.03871 8.99139L35.8081 0.667534ZM28.3276 -13.3276C24.5049 -17.1502 19.6346 -19.7535 14.3325 -20.8081L6.00862 21.0387C3.03424 20.4471 0.302101 18.9867 -1.8423 16.8423L28.3276 -13.3276ZM14.3325 -20.8081C9.03032 -21.8628 3.5345 -21.3215 -1.46001 -19.2527L14.8678 20.1662C12.066 21.3267 8.98299 21.6304 6.00862 21.0387L14.3325 -20.8081ZM-1.46001 -19.2527C-6.45453 -17.1839 -10.7234 -13.6805 -13.7268 -9.18559L21.7492 14.5187C20.0644 17.0403 17.6696 19.0056 14.8678 20.1662L-1.46001 -19.2527ZM-13.7268 -9.18559C-16.7303 -4.69064 -18.3333 0.593981 -18.3333 6H24.3333C24.3333 9.03265 23.434 11.9972 21.7492 14.5187L-13.7268 -9.18559ZM-18.3333 6.0213C-18.3261 13.2627 -15.4463 20.2054 -10.3258 25.3258L19.8441 -4.84406C22.7147 -1.97337 24.3293 1.91894 24.3333 5.9787L-18.3333 6.0213ZM-10.3258 25.3258C-5.2054 30.4463 1.73732 33.3261 8.9787 33.3333L9.0213 -9.33332C13.0811 -9.32927 16.9734 -7.71474 19.8441 -4.84406L-10.3258 25.3258ZM9 23.3333C5.57179 23.3333 2.22056 22.3168 -0.629884 20.4121L23.0744 -15.0639C18.9084 -17.8476 14.0105 -19.3333 9 -19.3333V23.3333ZM-0.629884 20.4121C-3.48033 18.5075 -5.70199 15.8004 -7.01391 12.6332L32.4049 -3.69464C30.4875 -8.32371 27.2405 -12.2802 23.0744 -15.0639L-0.629884 20.4121ZM-7.01391 12.6332C-8.32583 9.46593 -8.66909 5.98077 -8.00028 2.61844L33.8466 10.9423C34.8241 6.0281 34.3224 0.934417 32.4049 -3.69464L-7.01391 12.6332ZM-8.00028 2.61844C-7.33147 -0.743902 -5.68063 -3.83241 -3.25652 -6.25652L26.9134 23.9134C30.4563 20.3704 32.8691 15.8565 33.8466 10.9423L-8.00028 2.61844ZM-3.25652 -6.25652C-0.832407 -8.68063 2.2561 -10.3315 5.61843 -11.0003L13.9423 30.8466C18.8565 29.8691 23.3704 27.4563 26.9134 23.9134L-3.25652 -6.25652ZM5.61843 -11.0003C8.98077 -11.6691 12.4659 -11.3258 15.6332 -10.0139L-0.694646 29.405C3.93441 31.3224 9.0281 31.8241 13.9423 30.8466L5.61843 -11.0003ZM15.6332 -10.0139C18.8004 -8.70199 21.5075 -6.48033 23.4121 -3.62988L-12.0639 20.0744C-9.28024 24.2405 -5.32372 27.4875 -0.694646 29.405L15.6332 -10.0139ZM23.4121 -3.62988C25.3168 -0.77943 26.3333 2.57179 26.3333 6H-16.3333C-16.3333 11.0105 -14.8476 15.9084 -12.0639 20.0744L23.4121 -3.62988ZM26.3333 6C26.3333 10.5971 24.5072 15.0059 21.2565 18.2565L-8.91337 -11.9134C-13.6643 -7.16245 -16.3333 -0.718812 -16.3333 6H26.3333ZM21.2565 18.2565C18.0059 21.5072 13.5971 23.3333 9 23.3333V-19.3333C2.28118 -19.3333 -4.16245 -16.6643 -8.91337 -11.9134L21.2565 18.2565Z" fill="white" mask="url(#path-2-inside-1_150_4488)"/>
<path d="M9 14C6.61386 14.0026 4.32622 14.9517 2.63896 16.639C0.951708 18.3262 0.00264685 20.6139 0 23C0 23.2652 0.105357 23.5196 0.292893 23.7071C0.48043 23.8946 0.734784 24 1 24C1.26522 24 1.51957 23.8946 1.70711 23.7071C1.89464 23.5196 2 23.2652 2 23C2 21.1435 2.7375 19.363 4.05025 18.0503C5.36301 16.7375 7.14348 16 9 16C10.8565 16 12.637 16.7375 13.9497 18.0503C15.2625 19.363 16 21.1435 16 23C16 23.2652 16.1054 23.5196 16.2929 23.7071C16.4804 23.8946 16.7348 24 17 24C17.2652 24 17.5196 23.8946 17.7071 23.7071C17.8946 23.5196 18 23.2652 18 23C17.9974 20.6139 17.0483 18.3262 15.361 16.639C13.6738 14.9517 11.3861 14.0026 9 14Z" fill="white"/>
</g>
<defs>
<clipPath id="clip0_150_4488">
<rect width="24" height="24" fill="white"/>
</clipPath>
</defs>
</svg>
