<svg width="827" height="377" viewBox="0 0 827 377" fill="none" xmlns="http://www.w3.org/2000/svg">
<path d="M527.528 155.758C532.258 152.935 537.3 150.663 542.553 148.987C548.41 147.074 554.541 146.122 560.705 146.168C568.039 146.014 575.327 147.359 582.117 150.119C587.955 152.519 593.152 156.235 597.299 160.974C601.391 165.799 604.432 171.415 606.23 177.469C608.245 184.15 609.245 191.094 609.199 198.069C609.238 210.907 607.125 223.661 602.948 235.808C598.836 248.056 592.179 259.307 583.409 268.83C574.639 278.353 563.952 285.935 552.042 291.084C537.835 297.077 522.504 299.984 507.076 299.608C504.241 299.608 501.115 299.475 497.721 299.186C494.245 298.89 490.792 298.371 487.384 297.632C483.922 296.895 480.508 295.953 477.158 294.813C474.133 293.817 471.228 292.491 468.495 290.862L518.708 82.1897L546.237 77.7499L527.528 155.758ZM554.119 168.433C548.355 168.454 542.638 169.46 537.217 171.408C531.63 173.415 526.365 176.22 521.589 179.733L498.592 275.345C500.49 275.722 502.678 276.099 505.111 276.477C507.557 276.849 510.027 277.035 512.501 277.032C522.592 277.191 532.584 275.042 541.705 270.749C550.174 266.677 557.706 260.91 563.831 253.811C569.951 246.636 574.71 238.414 577.875 229.548C581.191 220.37 582.869 210.686 582.831 200.933C582.838 196.852 582.412 192.782 581.558 188.79C580.806 185.044 579.286 181.493 577.093 178.356C574.804 175.273 571.782 172.801 568.296 171.164C563.839 169.198 558.992 168.264 554.119 168.433V168.433Z" fill="white"/>
<path d="M650.927 296.5H624.537L660.014 149.83H686.382L650.927 296.5ZM681.56 123.347C677.545 123.474 673.635 122.059 670.642 119.395C669.133 118.001 667.95 116.294 667.179 114.395C666.407 112.496 666.065 110.452 666.177 108.407C666.053 105.913 666.437 103.42 667.306 101.077C668.175 98.7337 669.51 96.5891 671.232 94.7714C672.954 92.9536 675.027 91.5001 677.327 90.4978C679.627 89.4955 682.107 88.965 684.619 88.9381C688.697 88.8422 692.655 90.3132 695.67 93.045C697.204 94.5097 698.399 96.2893 699.17 98.26C699.941 100.231 700.271 102.345 700.136 104.455C700.227 107.03 699.741 109.592 698.714 111.957C697.687 114.322 696.144 116.431 694.197 118.13C690.778 121.356 686.272 123.2 681.56 123.302V123.347Z" fill="white"/>
<path d="M822.264 168.633C816.772 173.517 809.329 180.428 799.937 189.367C790.545 198.306 780.751 207.926 770.555 218.226C760.344 228.482 750.558 238.642 741.195 248.705C731.833 258.769 724.391 267.368 718.868 274.501H798.151L793.016 296.5H682.945L686.919 279.584C693.587 270.03 700.78 260.848 708.464 252.08C717.187 242.016 726.221 232.004 735.569 222.044C744.916 212.084 754.137 202.679 763.232 193.829C772.326 184.95 780.275 177.616 787.077 171.83H716.435L721.548 149.83H826.796L822.264 168.633Z" fill="white"/>
<path d="M366.79 122.17C349.028 75.3744 313.337 37.4979 267.545 16.8482C221.754 -3.8015 169.6 -5.53849 122.523 12.0181C116.421 14.4404 110.461 17.2049 104.674 20.2984L118.373 43.9627C122.884 41.5858 127.516 39.4444 132.251 37.5472C162.281 26.3007 194.988 24.1672 226.237 31.4166C257.486 38.666 285.872 54.9725 307.806 78.274C329.74 101.576 344.236 130.825 349.461 162.324C354.687 193.823 350.407 226.157 337.162 255.236C323.918 284.314 302.304 308.832 275.054 325.688C247.804 342.544 216.142 350.982 184.073 349.933C152.003 348.885 120.966 338.398 94.8872 319.799C68.8081 301.199 48.8582 275.323 37.5605 245.442C25.3114 213.076 23.995 173.672 35.3293 143.637C35.542 143.025 35.7878 142.424 36.0656 141.839C39.5882 133.217 44.419 125.184 50.3896 118.019L51.126 117.176C61.0593 105.594 73.912 96.8515 88.364 91.8463C109.136 84.6316 129.864 86.9846 141.198 97.84C152.532 108.695 152.688 126.854 146.954 151.118L109.738 296.922C112.749 298.745 115.951 300.234 119.288 301.362C122.946 302.607 126.67 303.652 130.444 304.492C134.212 305.296 138.027 305.859 141.867 306.179C145.638 306.512 149.074 306.645 152.197 306.645C171.192 306.645 187.747 303.478 201.863 297.144C215.009 291.458 226.807 283.084 236.489 272.567C246.172 262.05 253.523 249.624 258.066 236.096C262.641 222.692 264.963 208.629 264.938 194.473C264.995 186.768 263.889 179.098 261.658 171.719C259.669 165.039 256.311 158.841 251.796 153.516C247.223 148.274 241.486 144.162 235.04 141.506C227.543 138.438 219.495 136.927 211.39 137.066C204.57 137.014 197.787 138.071 191.31 140.196C185.766 142.045 180.416 144.424 175.335 147.3C176.461 141.714 177.17 136.052 177.454 130.362V130.362C177.465 130.303 177.465 130.243 177.454 130.184V130.184C178.837 102.258 167.994 86.5851 159.605 78.5712C140.729 60.4788 109.939 55.8836 79.2832 66.5614C60.1244 73.4009 43.1271 85.1655 30.0192 100.659L29.573 101.148C29.0375 101.747 28.5467 102.347 28.0558 102.968C-4.16213 139.108 -7.21888 205.084 11.679 255.032C29.5744 301.619 65.2793 339.263 110.989 359.734C156.698 380.204 208.694 381.837 255.61 364.276C302.526 346.714 340.545 311.386 361.358 266.015C382.171 220.643 384.084 168.919 366.679 122.148L366.79 122.17ZM168.329 174.161C173.63 170.278 179.469 167.183 185.665 164.97C191.656 162.828 197.973 161.724 204.34 161.707C209.656 161.524 214.946 162.525 219.824 164.637C223.681 166.44 227.019 169.181 229.529 172.607C231.987 176.06 233.696 179.983 234.55 184.128C235.492 188.506 235.97 192.97 235.977 197.448C236.008 208.222 234.151 218.919 230.489 229.059C226.992 238.851 221.738 247.929 214.982 255.854C208.22 263.698 199.903 270.069 190.551 274.567C180.481 279.34 169.441 281.74 158.289 281.583C155.561 281.578 152.838 281.363 150.145 280.939C147.445 280.539 145.035 280.117 142.96 279.696L168.329 174.161Z" fill="white"/>
</svg>
