<svg width="20" height="21" viewBox="0 0 20 21" fill="none" xmlns="http://www.w3.org/2000/svg">
<g clip-path="url(#clip0_1854_18201)">
<path d="M16.7806 20.5C16.4723 20.4992 16.1673 20.4372 15.8831 20.3178C15.5989 20.1984 15.3411 20.0238 15.1248 19.8042L9.99978 14.7092L4.87478 19.8075C4.54563 20.1414 4.12352 20.3685 3.66346 20.459C3.2034 20.5495 2.72674 20.4993 2.29561 20.315C1.86021 20.1399 1.48773 19.8375 1.22683 19.4474C0.96592 19.0573 0.828708 18.5976 0.833111 18.1283V4.66667C0.833111 3.5616 1.2721 2.50179 2.0535 1.72039C2.8349 0.938987 3.89471 0.5 4.99978 0.5L14.9998 0.5C15.547 0.5 16.0888 0.607774 16.5943 0.817169C17.0998 1.02656 17.5591 1.33348 17.9461 1.72039C18.333 2.1073 18.6399 2.56663 18.8493 3.07215C19.0587 3.57768 19.1664 4.11949 19.1664 4.66667V18.1283C19.1711 18.5972 19.0344 19.0567 18.7741 19.4467C18.5138 19.8368 18.1421 20.1393 17.7073 20.315C17.4138 20.4377 17.0987 20.5006 16.7806 20.5ZM4.99978 2.16667C4.33674 2.16667 3.70085 2.43006 3.23201 2.8989C2.76317 3.36774 2.49978 4.00363 2.49978 4.66667V18.1283C2.49948 18.2672 2.54034 18.403 2.61719 18.5187C2.69405 18.6343 2.80346 18.7246 2.9316 18.7781C3.05974 18.8316 3.20087 18.8459 3.33714 18.8193C3.47342 18.7926 3.59874 18.7262 3.69728 18.6283L9.41644 12.9442C9.57258 12.789 9.78379 12.7018 10.0039 12.7018C10.2241 12.7018 10.4353 12.789 10.5914 12.9442L16.3039 18.6267C16.4025 18.7245 16.5278 18.791 16.6641 18.8176C16.8004 18.8443 16.9415 18.83 17.0696 18.7765C17.1978 18.7229 17.3072 18.6327 17.384 18.517C17.4609 18.4014 17.5017 18.2655 17.5014 18.1267V4.66667C17.5014 4.00363 17.2381 3.36774 16.7692 2.8989C16.3004 2.43006 15.6645 2.16667 15.0014 2.16667H4.99978Z" fill="#F7F8FB"/>
</g>
<defs>
<clipPath id="clip0_1854_18201">
<rect width="20" height="20" fill="white" transform="translate(0 0.5)"/>
</clipPath>
</defs>
</svg>
