<svg width="16" height="16" viewBox="0 0 16 16" fill="none" xmlns="http://www.w3.org/2000/svg">
<rect width="16" height="16" fill="#F5F5F5"/>
<g clip-path="url(#clip0_150_2868)">
<rect width="1440" height="2332" transform="translate(-120 -1022)" fill="black"/>
<g filter="url(#filter0_d_150_2868)">
<rect x="-20" y="-66" width="605" height="379" rx="12" fill="#262626" shape-rendering="crispEdges"/>
<circle cx="8" cy="8" r="12" fill="#595959"/>
<g clip-path="url(#clip1_150_2868)">
<mask id="path-3-inside-1_150_2868" fill="white">
<path d="M8 0C3.58867 0 0 3.58867 0 8C0 12.4113 3.58867 16 8 16C12.4113 16 16 12.4113 16 8C16 3.58867 12.4113 0 8 0ZM10.6667 8.66667H8C7.632 8.66667 7.33333 8.36867 7.33333 8V4C7.33333 3.63133 7.632 3.33333 8 3.33333C8.368 3.33333 8.66667 3.63133 8.66667 4V7.33333H10.6667C11.0353 7.33333 11.3333 7.63133 11.3333 8C11.3333 8.36867 11.0353 8.66667 10.6667 8.66667Z"/>
</mask>
<path d="M8 0C3.58867 0 0 3.58867 0 8C0 12.4113 3.58867 16 8 16C12.4113 16 16 12.4113 16 8C16 3.58867 12.4113 0 8 0ZM10.6667 8.66667H8C7.632 8.66667 7.33333 8.36867 7.33333 8V4C7.33333 3.63133 7.632 3.33333 8 3.33333C8.368 3.33333 8.66667 3.63133 8.66667 4V7.33333H10.6667C11.0353 7.33333 11.3333 7.63133 11.3333 8C11.3333 8.36867 11.0353 8.66667 10.6667 8.66667Z" fill="#D9D9D9" stroke="#D9D9D9" stroke-width="42.6667" mask="url(#path-3-inside-1_150_2868)"/>
</g>
</g>
</g>
<defs>
<filter id="filter0_d_150_2868" x="-35" y="-79" width="635" height="409" filterUnits="userSpaceOnUse" color-interpolation-filters="sRGB">
<feFlood flood-opacity="0" result="BackgroundImageFix"/>
<feColorMatrix in="SourceAlpha" type="matrix" values="0 0 0 0 0 0 0 0 0 0 0 0 0 0 0 0 0 0 127 0" result="hardAlpha"/>
<feOffset dy="2"/>
<feGaussianBlur stdDeviation="7.5"/>
<feComposite in2="hardAlpha" operator="out"/>
<feColorMatrix type="matrix" values="0 0 0 0 0 0 0 0 0 0 0 0 0 0 0 0 0 0 0.1 0"/>
<feBlend mode="normal" in2="BackgroundImageFix" result="effect1_dropShadow_150_2868"/>
<feBlend mode="normal" in="SourceGraphic" in2="effect1_dropShadow_150_2868" result="shape"/>
</filter>
<clipPath id="clip0_150_2868">
<rect width="1440" height="2332" fill="white" transform="translate(-120 -1022)"/>
</clipPath>
<clipPath id="clip1_150_2868">
<rect width="16" height="16" fill="white"/>
</clipPath>
</defs>
</svg>
