<svg preserveAspectRatio="xMidYMid meet" data-bbox="0 0 40 40" xmlns="http://www.w3.org/2000/svg" viewBox="0 0 40 40" height="40" width="40" data-type="color" role="presentation" aria-hidden="true" aria-labelledby="comp-la2ijy4q6-svgtitle_comp-la2ijy4q6"><title id="comp-la2ijy4q6-svgtitle_comp-la2ijy4q6"></title>
    <g>
        <path fill="#EFF1F5" d="M40 20c0 11.046-8.954 20-20 20S0 31.046 0 20 8.954 0 20 0s20 8.954 20 20z" data-color="1"></path>
        <g clip-path="url(#79d03460-ef94-4bb8-9cc2-67e8fa130cf3_comp-la2ijy4q6)">
            <path fill="#39537D" d="M25.833 12.5h-2.5a.835.835 0 0 1-.372-.087l-2.63-1.315a2.514 2.514 0 0 0-1.118-.264H17.5a4.171 4.171 0 0 0-4.167 4.167v6.666a4.171 4.171 0 0 0 4.167 4.166h8.333A4.171 4.171 0 0 0 30 21.667v-5a4.171 4.171 0 0 0-4.167-4.167Zm-8.333 0h1.713c.129 0 .259.03.373.088l2.629 1.315a2.52 2.52 0 0 0 1.118.263h2.5c1.087 0 2.013.697 2.357 1.667H15v-.834c0-1.378 1.122-2.5 2.5-2.5v.001Zm8.333 11.667H17.5a2.503 2.503 0 0 1-2.5-2.5V17.5h13.333v4.167c0 1.378-1.121 2.5-2.5 2.5Zm.834 4.166a.833.833 0 0 1-.834.834H14.167A4.171 4.171 0 0 1 10 25v-8.333a.833.833 0 1 1 1.667 0V25c0 1.378 1.121 2.5 2.5 2.5h11.666c.461 0 .834.373.834.833Z" data-color="2"></path>
        </g>
        <defs fill="none">
            <clipPath id="79d03460-ef94-4bb8-9cc2-67e8fa130cf3_comp-la2ijy4q6">
                <path transform="translate(10 10)" fill="#ffffff" d="M20 0v20H0V0h20z"></path>
            </clipPath>
        </defs>
    </g>
</svg>