<svg preserveAspectRatio="xMidYMid meet" data-bbox="60 59.5 80 81" viewBox="60 59.5 80 81" height="200" width="200" xmlns="http://www.w3.org/2000/svg" data-type="shape" role="presentation" aria-hidden="true" aria-label="">
    <g>
        <path fill="#fff" d="M133.58 93.5c-3.546 0-6.42 2.91-6.42 6.5s2.874 6.5 6.42 6.5c3.545 0 6.42-2.91 6.42-6.5s-2.874-6.5-6.42-6.5z"></path>
        <path fill="#fff" d="M106.42 66c0 3.59-2.874 6.5-6.42 6.5s-6.42-2.91-6.42-6.5 2.874-6.5 6.42-6.5 6.42 2.91 6.42 6.5z"></path>
        <path fill="#fff" d="M106.42 100c0 3.59-2.874 6.5-6.42 6.5s-6.42-2.91-6.42-6.5 2.874-6.5 6.42-6.5 6.42 2.91 6.42 6.5z"></path>
        <path fill="#fff" d="M133.58 72.5c3.545 0 6.42-2.91 6.42-6.5s-2.874-6.5-6.42-6.5-6.42 2.91-6.42 6.5 2.875 6.5 6.42 6.5z"></path>
        <path fill="#fff" d="M106.42 134c0 3.59-2.874 6.5-6.42 6.5s-6.42-2.91-6.42-6.5 2.874-6.5 6.42-6.5 6.42 2.91 6.42 6.5z"></path>
        <path fill="#fff" d="M133.58 127.5c-3.546 0-6.42 2.91-6.42 6.5s2.874 6.5 6.42 6.5c3.545 0 6.42-2.91 6.42-6.5s-2.874-6.5-6.42-6.5z"></path>
        <path fill="#fff" d="M66.42 93.5c-3.545 0-6.42 2.91-6.42 6.5s2.874 6.5 6.42 6.5 6.42-2.91 6.42-6.5-2.875-6.5-6.42-6.5z"></path>
        <path fill="#fff" d="M66.42 59.5C62.874 59.5 60 62.41 60 66s2.874 6.5 6.42 6.5 6.42-2.91 6.42-6.5-2.875-6.5-6.42-6.5z"></path>
        <path fill="#fff" d="M66.42 127.5c-3.545 0-6.42 2.91-6.42 6.5s2.874 6.5 6.42 6.5 6.42-2.91 6.42-6.5-2.875-6.5-6.42-6.5z"></path>
    </g>
</svg>