<svg preserveAspectRatio="xMidYMid meet" data-bbox="0 0 40 40" xmlns="http://www.w3.org/2000/svg" viewBox="0 0 40 40" height="40" width="40" data-type="color" role="presentation" aria-hidden="true" aria-labelledby="comp-la2ijy51-svgtitle_comp-la2ijy51"><title id="comp-la2ijy51-svgtitle_comp-la2ijy51"></title>
    <g>
        <path fill="#EFF1F5" d="M40 20c0 11.046-8.954 20-20 20S0 31.046 0 20 8.954 0 20 0s20 8.954 20 20z" data-color="1"></path>
        <g clip-path="url(#a01d79e8-dab0-4840-83ac-82cfc38fee4b_comp-la2ijy51)">
            <path fill="#39537D" d="m28.381 14.358-6.145-2.927a4.355 4.355 0 0 0-4.402-.038l-6.214 2.965a3.076 3.076 0 0 0 0 5.417l1.714.817v4.083a4.173 4.173 0 0 0 2.932 3.982 13 13 0 0 0 3.735.51c1.262.014 2.52-.157 3.734-.506a4.172 4.172 0 0 0 2.932-3.982V20.59l1.667-.797v6.874a.833.833 0 0 0 1.666 0v-10c.006-.979-.767-1.883-1.619-2.309Zm-3.38 10.321a2.5 2.5 0 0 1-1.75 2.386A11.325 11.325 0 0 1 20 27.5a11.326 11.326 0 0 1-3.25-.435A2.5 2.5 0 0 1 15 24.68v-3.293l2.764 1.317a4.394 4.394 0 0 0 2.254.615 4.166 4.166 0 0 0 2.147-.578L25 21.386v3.293Zm2.666-6.408-6.285 3a2.745 2.745 0 0 1-2.825-.038l-6.15-2.925a1.41 1.41 0 0 1-.03-2.465l6.246-2.983a2.75 2.75 0 0 1 2.825.038l6.145 2.927c.452.251.735.725.74 1.242.002.49-.25.945-.666 1.204Z" data-color="2"></path>
        </g>
        <defs fill="none">
            <clipPath id="a01d79e8-dab0-4840-83ac-82cfc38fee4b_comp-la2ijy51">
                <path transform="translate(10 10)" fill="#ffffff" d="M20 0v20H0V0h20z"></path>
            </clipPath>
        </defs>
    </g>
</svg>