<svg width="20" height="20" viewBox="0 0 20 20" fill="none" xmlns="http://www.w3.org/2000/svg">
<g clip-path="url(#clip0_1854_18070)">
<path d="M15 7.5535C15.0001 7.2183 14.9339 6.88639 14.8052 6.57689C14.6765 6.26739 14.4878 5.98642 14.25 5.75016C13.7634 5.28587 13.1167 5.02683 12.4442 5.02683C11.7716 5.02683 11.1249 5.28587 10.6383 5.75016L0.749987 15.641C0.298669 16.1249 0.0528549 16.7652 0.0643506 17.4268C0.0758463 18.0884 0.343754 18.7198 0.811611 19.1877C1.27947 19.6557 1.91073 19.9237 2.57235 19.9354C3.23398 19.947 3.87428 19.7014 4.35832 19.2502L14.25 9.35933C14.4881 9.12283 14.6771 8.84147 14.8058 8.5315C14.9345 8.22154 15.0005 7.88913 15 7.5535ZM3.17999 18.0735C3.01153 18.2341 2.78772 18.3237 2.55499 18.3237C2.32225 18.3237 2.09845 18.2341 1.92999 18.0735C1.7645 17.9076 1.67156 17.6828 1.67156 17.4485C1.67156 17.2142 1.7645 16.9894 1.92999 16.8235L8.40415 10.3485L9.65832 11.6027L3.17999 18.0735ZM13.0733 8.18016L10.8333 10.421L9.58332 9.16683L11.8242 6.92683C11.904 6.83558 12.0018 6.7617 12.1114 6.70977C12.221 6.65784 12.3401 6.62897 12.4613 6.62495C12.5825 6.62092 12.7033 6.64183 12.8161 6.68638C12.9289 6.73092 13.0313 6.79816 13.1171 6.88391C13.2028 6.96967 13.2701 7.07212 13.3146 7.18492C13.3592 7.29772 13.3801 7.41847 13.376 7.53968C13.372 7.66089 13.3431 7.77998 13.2912 7.88958C13.2393 7.99918 13.1654 8.09695 13.0742 8.17683L13.0733 8.18016ZM4.05249 2.37933L5.34415 2.011L5.71249 0.719329C5.77182 0.512066 5.89704 0.32976 6.06919 0.199979C6.24134 0.0701982 6.45106 0 6.66665 0C6.88224 0 7.09197 0.0701982 7.26412 0.199979C7.43627 0.32976 7.56148 0.512066 7.62082 0.719329L7.98915 2.011L9.28082 2.37933C9.48808 2.43867 9.67039 2.56388 9.80017 2.73603C9.92995 2.90818 10.0001 3.11791 10.0001 3.3335C10.0001 3.54909 9.92995 3.75881 9.80017 3.93096C9.67039 4.10311 9.48808 4.22832 9.28082 4.28766L7.98915 4.656L7.62082 5.94766C7.56148 6.15493 7.43627 6.33723 7.26412 6.46701C7.09197 6.59679 6.88224 6.66699 6.66665 6.66699C6.45106 6.66699 6.24134 6.59679 6.06919 6.46701C5.89704 6.33723 5.77182 6.15493 5.71249 5.94766L5.34415 4.656L4.05249 4.28766C3.84522 4.22832 3.66292 4.10311 3.53314 3.93096C3.40336 3.75881 3.33316 3.54909 3.33316 3.3335C3.33316 3.11791 3.40336 2.90818 3.53314 2.73603C3.66292 2.56388 3.84522 2.43867 4.05249 2.37933ZM19.2808 14.2877L17.9892 14.656L17.6208 15.9477C17.5615 16.1549 17.4363 16.3372 17.2641 16.467C17.092 16.5968 16.8822 16.667 16.6667 16.667C16.4511 16.667 16.2413 16.5968 16.0692 16.467C15.897 16.3372 15.7718 16.1549 15.7125 15.9477L15.3442 14.656L14.0525 14.2877C13.8452 14.2283 13.6629 14.1031 13.5331 13.931C13.4034 13.7588 13.3332 13.5491 13.3332 13.3335C13.3332 13.1179 13.4034 12.9082 13.5331 12.736C13.6629 12.5639 13.8452 12.4387 14.0525 12.3793L15.3442 12.011L15.7125 10.7193C15.7718 10.5121 15.897 10.3298 16.0692 10.2C16.2413 10.0702 16.4511 10 16.6667 10C16.8822 10 17.092 10.0702 17.2641 10.2C17.4363 10.3298 17.5615 10.5121 17.6208 10.7193L17.9892 12.011L19.2808 12.3793C19.4881 12.4387 19.6704 12.5639 19.8002 12.736C19.93 12.9082 20.0001 13.1179 20.0001 13.3335C20.0001 13.5491 19.93 13.7588 19.8002 13.931C19.6704 14.1031 19.4881 14.2283 19.2808 14.2877ZM14.7958 2.0835L15.9258 1.761L16.25 0.629329C16.3027 0.449177 16.4125 0.290972 16.5627 0.178423C16.7129 0.0658742 16.8956 0.00504174 17.0833 0.00504174C17.271 0.00504174 17.4537 0.0658742 17.6039 0.178423C17.7542 0.290972 17.8639 0.449177 17.9167 0.629329L18.2392 1.75933L19.3692 2.08183C19.5493 2.13459 19.7075 2.24431 19.8201 2.39454C19.9326 2.54478 19.9934 2.72744 19.9934 2.91516C19.9934 3.10288 19.9326 3.28555 19.8201 3.43578C19.7075 3.58602 19.5493 3.69574 19.3692 3.7485L18.2392 4.071L17.9167 5.2035C17.8639 5.38365 17.7542 5.54185 17.6039 5.6544C17.4537 5.76695 17.271 5.82778 17.0833 5.82778C16.8956 5.82778 16.7129 5.76695 16.5627 5.6544C16.4125 5.54185 16.3027 5.38365 16.25 5.2035L15.9275 4.07433L14.7958 3.75016C14.6157 3.6974 14.4575 3.58769 14.3449 3.43745C14.2324 3.28721 14.1715 3.10455 14.1715 2.91683C14.1715 2.72911 14.2324 2.54645 14.3449 2.39621C14.4575 2.24597 14.6157 2.13625 14.7958 2.0835Z" fill="white"/>
</g>
<defs>
<clipPath id="clip0_1854_18070">
<rect width="20" height="20" fill="white"/>
</clipPath>
</defs>
</svg>
