<svg width="14" height="14" viewBox="0 0 14 14" fill="none" xmlns="http://www.w3.org/2000/svg">
<g clip-path="url(#clip0_348_3838)">
<mask id="path-1-inside-1_348_3838" fill="white">
<path d="M8.07657 10.0724L6.17373 11.9752C5.62127 12.5129 4.87932 12.8115 4.10841 12.8063C3.3375 12.8012 2.59962 12.4927 2.05441 11.9476C1.50921 11.4026 1.20052 10.6648 1.19514 9.89386C1.18976 9.12295 1.48811 8.38092 2.02565 7.82831L3.92848 5.92372C4.03786 5.81427 4.09928 5.66584 4.09923 5.5111C4.09917 5.35636 4.03765 5.20798 3.92819 5.0986C3.81874 4.98922 3.67031 4.9278 3.51557 4.92786C3.36083 4.92791 3.21245 4.98943 3.10307 5.09889L1.20082 7.00347C0.432143 7.77254 0.000459053 8.81545 0.000732552 9.9028C0.00100605 10.9901 0.433214 12.0328 1.20228 12.8015C1.97134 13.5702 3.01426 14.0019 4.1016 14.0016C5.18894 14.0013 6.23164 13.5691 7.00032 12.8001L8.90315 10.8972C9.00941 10.7872 9.06821 10.6399 9.06688 10.4869C9.06555 10.334 9.0042 10.1877 8.89605 10.0795C8.78789 9.97134 8.64158 9.90999 8.48864 9.90867C8.33569 9.90734 8.18834 9.96613 8.07832 10.0724H8.07657Z"/>
</mask>
<path d="M8.07657 10.0724L6.17373 11.9752C5.62127 12.5129 4.87932 12.8115 4.10841 12.8063C3.3375 12.8012 2.59962 12.4927 2.05441 11.9476C1.50921 11.4026 1.20052 10.6648 1.19514 9.89386C1.18976 9.12295 1.48811 8.38092 2.02565 7.82831L3.92848 5.92372C4.03786 5.81427 4.09928 5.66584 4.09923 5.5111C4.09917 5.35636 4.03765 5.20798 3.92819 5.0986C3.81874 4.98922 3.67031 4.9278 3.51557 4.92786C3.36083 4.92791 3.21245 4.98943 3.10307 5.09889L1.20082 7.00347C0.432143 7.77254 0.000459053 8.81545 0.000732552 9.9028C0.00100605 10.9901 0.433214 12.0328 1.20228 12.8015C1.97134 13.5702 3.01426 14.0019 4.1016 14.0016C5.18894 14.0013 6.23164 13.5691 7.00032 12.8001L8.90315 10.8972C9.00941 10.7872 9.06821 10.6399 9.06688 10.4869C9.06555 10.334 9.0042 10.1877 8.89605 10.0795C8.78789 9.97134 8.64158 9.90999 8.48864 9.90867C8.33569 9.90734 8.18834 9.96613 8.07832 10.0724H8.07657Z" fill="#D9D9D9"/>
<path d="M8.07657 10.0724V-11.2609H-0.759986L-7.00837 -5.01256L8.07657 10.0724ZM6.17373 11.9752L21.053 27.2631L21.1565 27.1623L21.2587 27.0602L6.17373 11.9752ZM2.02565 7.82831L-13.0662 -7.2497L-13.167 -7.14885L-13.2664 -7.04666L2.02565 7.82831ZM3.92848 5.92372L-11.1618 -9.15589L-11.1634 -9.15429L3.92848 5.92372ZM3.10307 5.09889L-11.9872 -9.98072L-11.9911 -9.97681L3.10307 5.09889ZM1.20082 7.00347L16.2896 22.0846L16.295 22.0792L1.20082 7.00347ZM7.00032 12.8001L-8.08463 -2.28488L-8.08842 -2.28109L7.00032 12.8001ZM8.90315 10.8972L23.9881 25.9822L24.1192 25.8511L24.248 25.7177L8.90315 10.8972ZM8.07832 10.0724V31.4057H16.6985L22.8988 25.4172L8.07832 10.0724ZM-7.00837 -5.01256L-8.91121 -3.10972L21.2587 27.0602L23.1615 25.1573L-7.00837 -5.01256ZM-8.70553 -3.31263C-5.23965 -6.68589 -0.584995 -8.55895 4.25137 -8.52654L3.96545 34.1392C10.3436 34.1819 16.4822 31.7117 21.053 27.2631L-8.70553 -3.31263ZM4.25137 -8.52654C9.08774 -8.49413 13.7169 -6.55885 17.1372 -3.13945L-13.0284 27.0347C-8.51763 31.5442 -2.41274 34.0964 3.96545 34.1392L4.25137 -8.52654ZM17.1372 -3.13945C20.5576 0.279963 22.4942 4.90855 22.528 9.7449L-20.1377 10.0428C-20.0931 16.421 -17.5392 22.5252 -13.0284 27.0347L17.1372 -3.13945ZM22.528 9.7449C22.5617 14.5812 20.69 19.2364 17.3177 22.7033L-13.2664 -7.04666C-17.7138 -2.47459 -20.1822 3.66467 -20.1377 10.0428L22.528 9.7449ZM17.1175 22.9063L19.0204 21.0017L-11.1634 -9.15429L-13.0662 -7.2497L17.1175 22.9063ZM19.0188 21.0033C23.1275 16.8917 25.4346 11.3162 25.4326 5.50356L-17.2341 5.51864C-17.236 0.0154529 -15.0518 -5.26314 -11.1618 -9.15589L19.0188 21.0033ZM25.4326 5.50356C25.4305 -0.309142 23.1194 -5.88294 19.0078 -9.99168L-11.1514 20.1889C-15.0441 16.2989 -17.2322 11.0219 -17.2341 5.51864L25.4326 5.50356ZM19.0078 -9.99168C14.8962 -14.1004 9.32073 -16.4075 3.50803 -16.4055L3.52311 26.2612C-1.98011 26.2631 -7.25869 24.0789 -11.1514 20.1889L19.0078 -9.99168ZM3.50803 -16.4055C-2.30465 -16.4034 -7.87846 -14.0924 -11.9872 -9.98072L18.1933 20.1785C14.3034 24.0712 9.02631 26.2592 3.52311 26.2612L3.50803 -16.4055ZM-11.9911 -9.97681L-13.8934 -8.07222L16.295 22.0792L18.1973 20.1746L-11.9911 -9.97681ZM-13.8879 -8.07767C-18.6564 -3.30683 -21.3343 3.16286 -21.3326 9.90816L21.3341 9.89743C21.3352 14.468 19.5206 18.8519 16.2896 22.0846L-13.8879 -8.07767ZM-21.3326 9.90816C-21.3309 16.6535 -18.6497 23.1218 -13.8789 27.8903L16.2834 -2.28722C19.5161 0.943873 21.3329 5.32682 21.3341 9.89743L-21.3326 9.90816ZM-13.8789 27.8903C-9.10804 32.6587 -2.63834 35.3366 4.10696 35.3349L4.09623 -7.33173C8.66685 -7.33288 13.0507 -5.51831 16.2834 -2.28722L-13.8789 27.8903ZM4.10696 35.3349C10.8523 35.3332 17.3206 32.6521 22.0891 27.8812L-8.08842 -2.28109C-4.85733 -5.51381 -0.474377 -7.33058 4.09623 -7.33173L4.10696 35.3349ZM22.0853 27.885L23.9881 25.9822L-6.1818 -4.18772L-8.08463 -2.28488L22.0853 27.885ZM24.248 25.7177C28.2403 21.5842 30.4493 16.048 30.3994 10.3015L-12.2657 10.6723C-12.3129 5.23171 -10.2215 -0.00978994 -6.44166 -3.92329L24.248 25.7177ZM30.3994 10.3015C30.3495 4.55507 28.0445 -0.941907 23.981 -5.00545L-6.1889 25.1644C-10.0361 21.3172 -12.2184 16.1128 -12.2657 10.6723L30.3994 10.3015ZM23.981 -5.00545C19.9174 -9.06903 14.4204 -11.3739 8.67401 -11.4239L8.30326 31.2412C2.86275 31.1939 -2.34163 29.0117 -6.1889 25.1644L23.981 -5.00545ZM8.67401 -11.4239C2.92754 -11.4738 -2.60866 -9.26473 -6.7422 -5.27242L22.8988 25.4172C18.9853 29.197 13.7438 31.2885 8.30326 31.2412L8.67401 -11.4239ZM8.07832 -11.2609H8.07657V31.4057H8.07832V-11.2609Z" fill="#D9D9D9" mask="url(#path-1-inside-1_348_3838)"/>
<path d="M12.8009 1.20226C12.4213 0.820073 11.9696 0.51701 11.4721 0.310637C10.9745 0.104264 10.4409 -0.00131627 9.90228 1.43738e-05C9.3639 -0.0014158 8.83058 0.103893 8.33315 0.309853C7.83572 0.515812 7.38406 0.818335 7.00428 1.19993L5.09853 3.10335C4.98907 3.21273 4.92754 3.36111 4.92749 3.51585C4.92744 3.67059 4.98885 3.81902 5.09823 3.92847C5.20761 4.03793 5.35599 4.09945 5.51074 4.09951C5.66548 4.09956 5.8139 4.03814 5.92336 3.92876L7.82794 2.02593C8.09951 1.75273 8.42258 1.53611 8.77845 1.38862C9.13431 1.24112 9.51589 1.16569 9.90111 1.16668C10.4811 1.16687 11.048 1.33902 11.5302 1.66135C12.0123 1.98368 12.3881 2.44173 12.61 2.97759C12.8319 3.51346 12.8899 4.10308 12.7768 4.67192C12.6636 5.24076 12.3843 5.76328 11.9743 6.17343L10.0714 8.07627C9.96198 8.18572 9.90049 8.33418 9.90049 8.48897C9.90049 8.64377 9.96198 8.79222 10.0714 8.90168C10.1809 9.01114 10.3294 9.07263 10.4841 9.07263C10.6389 9.07263 10.7874 9.01114 10.8969 8.90168L12.7997 7.00001C13.5674 6.23065 13.9986 5.18824 13.9988 4.10138C13.9991 3.01452 13.5682 1.97193 12.8009 1.20226Z" fill="#D9D9D9"/>
<path d="M8.33775 4.83758L4.83775 8.33758C4.78204 8.39139 4.7376 8.45576 4.70703 8.52692C4.67645 8.59809 4.66036 8.67464 4.65969 8.75209C4.65902 8.82955 4.67378 8.90636 4.70311 8.97805C4.73244 9.04974 4.77575 9.11487 4.83052 9.16964C4.88529 9.22441 4.95042 9.26773 5.02211 9.29706C5.0938 9.32639 5.17062 9.34115 5.24807 9.34047C5.32552 9.3398 5.40207 9.32371 5.47324 9.29314C5.54441 9.26256 5.60878 9.21812 5.66259 9.16241L9.16259 5.66241C9.26884 5.55239 9.32764 5.40504 9.32631 5.25209C9.32498 5.09914 9.26363 4.95284 9.15548 4.84468C9.04732 4.73653 8.90102 4.67518 8.74807 4.67385C8.59512 4.67252 8.44777 4.73132 8.33775 4.83758Z" fill="#D9D9D9"/>
</g>
<defs>
<clipPath id="clip0_348_3838">
<rect width="14" height="14" fill="white" transform="translate(0.000244141)"/>
</clipPath>
</defs>
</svg>
