<svg width="20" height="20" viewBox="0 0 20 20" fill="none" xmlns="http://www.w3.org/2000/svg">
<g clip-path="url(#clip0_150_4481)">
<path d="M10.0001 5C9.34081 5 8.69635 5.1955 8.14818 5.56177C7.60002 5.92804 7.17278 6.44863 6.92048 7.05772C6.66819 7.66681 6.60218 8.33703 6.7308 8.98363C6.85942 9.63024 7.17689 10.2242 7.64306 10.6904C8.10924 11.1565 8.70318 11.474 9.34978 11.6026C9.99639 11.7312 10.6666 11.6652 11.2757 11.4129C11.8848 11.1606 12.4054 10.7334 12.7716 10.1852C13.1379 9.63707 13.3334 8.9926 13.3334 8.33333C13.3334 7.44928 12.9822 6.60143 12.3571 5.97631C11.732 5.35119 10.8841 5 10.0001 5ZM10.0001 10C9.67045 10 9.34822 9.90225 9.07413 9.71912C8.80005 9.53598 8.58643 9.27568 8.46028 8.97114C8.33414 8.6666 8.30113 8.33149 8.36544 8.00818C8.42975 7.68488 8.58848 7.38791 8.82157 7.15482C9.05466 6.92174 9.35163 6.763 9.67493 6.69869C9.99823 6.63438 10.3333 6.66739 10.6379 6.79353C10.9424 6.91968 11.2027 7.1333 11.3859 7.40738C11.569 7.68147 11.6668 8.0037 11.6668 8.33333C11.6668 8.77536 11.4912 9.19928 11.1786 9.51184C10.866 9.82441 10.4421 10 10.0001 10Z" fill="white"/>
<path d="M10 20C9.2983 20.0036 8.60594 19.839 7.9809 19.52C7.35587 19.201 6.81635 18.737 6.40752 18.1666C3.23168 13.7858 1.62085 10.4925 1.62085 8.37746C1.62085 6.15517 2.50365 4.02389 4.07505 2.45249C5.64645 0.881094 7.77772 -0.00170898 10 -0.00170898C12.2223 -0.00170898 14.3536 0.881094 15.925 2.45249C17.4964 4.02389 18.3792 6.15517 18.3792 8.37746C18.3792 10.4925 16.7684 13.7858 13.5925 18.1666C13.1837 18.737 12.6442 19.201 12.0191 19.52C11.3941 19.839 10.7017 20.0036 10 20ZM10 1.81746C8.26036 1.81944 6.59253 2.5114 5.36241 3.74152C4.13229 4.97164 3.44033 6.63947 3.43835 8.37912C3.43835 10.0541 5.01585 13.1516 7.87918 17.1008C8.12226 17.4356 8.44116 17.7081 8.80978 17.896C9.1784 18.0839 9.58627 18.1819 10 18.1819C10.4138 18.1819 10.8216 18.0839 11.1903 17.896C11.5589 17.7081 11.8778 17.4356 12.1209 17.1008C14.9842 13.1516 16.5617 10.0541 16.5617 8.37912C16.5597 6.63947 15.8677 4.97164 14.6376 3.74152C13.4075 2.5114 11.7397 1.81944 10 1.81746Z" fill="white"/>
</g>
<defs>
<clipPath id="clip0_150_4481">
<rect width="20" height="20" fill="white"/>
</clipPath>
</defs>
</svg>
