<svg width="61" height="31" viewBox="0 0 61 31" fill="none" xmlns="http://www.w3.org/2000/svg">
<path d="M38.0933 13.343C38.408 13.1552 38.7434 13.0041 39.0929 12.8926C39.4826 12.7653 39.8904 12.702 40.3005 12.705C40.7884 12.6948 41.2733 12.7842 41.725 12.9679C42.1134 13.1276 42.4592 13.3748 42.735 13.6901C43.0073 14.011 43.2096 14.3847 43.3292 14.7874C43.4632 15.2319 43.5298 15.6938 43.5267 16.1579C43.5293 17.012 43.3888 17.8605 43.1108 18.6686C42.8373 19.4834 42.3944 20.2319 41.8109 20.8654C41.2275 21.499 40.5165 22.0034 39.7242 22.346C38.7791 22.7447 37.7591 22.9381 36.7327 22.9131C36.5441 22.9131 36.3361 22.9042 36.1103 22.885C35.8791 22.8653 35.6494 22.8308 35.4226 22.7816C35.1923 22.7325 34.9652 22.6699 34.7423 22.5941C34.5411 22.5278 34.3478 22.4396 34.166 22.3312L37.5066 8.44869L39.338 8.15332L38.0933 13.343ZM39.8624 14.1863C39.4789 14.1877 39.0986 14.2546 38.7379 14.3842C38.3662 14.5177 38.016 14.7043 37.6982 14.938L36.1683 21.2989C36.2945 21.324 36.4401 21.3491 36.602 21.3742C36.7647 21.399 36.9291 21.4113 37.0936 21.4111C37.7649 21.4217 38.4297 21.2787 39.0365 20.9932C39.5999 20.7222 40.101 20.3386 40.5085 19.8663C40.9156 19.3889 41.2322 18.842 41.4428 18.2521C41.6634 17.6415 41.775 16.9972 41.7725 16.3484C41.773 16.0769 41.7446 15.8061 41.6879 15.5406C41.6378 15.2914 41.5367 15.0551 41.3908 14.8465C41.2385 14.6413 41.0374 14.4769 40.8056 14.368C40.509 14.2372 40.1865 14.1751 39.8624 14.1863Z" fill="#F7F8FB"/>
<path d="M46.3026 22.7064H44.5469L46.9071 12.9488H48.6613L46.3026 22.7064ZM48.3405 11.1869C48.0734 11.1953 47.8133 11.1012 47.6141 10.924C47.5137 10.8313 47.4351 10.7177 47.3837 10.5914C47.3324 10.465 47.3096 10.329 47.3171 10.193C47.3089 10.027 47.3344 9.86118 47.3922 9.70531C47.45 9.54943 47.5388 9.40676 47.6534 9.28583C47.7679 9.1649 47.9059 9.0682 48.0589 9.00152C48.2119 8.93483 48.3769 8.89954 48.544 8.89775C48.8153 8.89137 49.0786 8.98923 49.2792 9.17097C49.3813 9.26842 49.4607 9.38682 49.512 9.51792C49.5633 9.64903 49.5853 9.78968 49.5763 9.93008C49.5824 10.1014 49.55 10.2718 49.4817 10.4292C49.4134 10.5865 49.3107 10.7268 49.1812 10.8398C48.9537 11.0545 48.654 11.1772 48.3405 11.1839V11.1869Z" fill="#F7F8FB"/>
<path d="M57.7012 14.1996C57.3358 14.5245 56.8407 14.9843 56.2159 15.579C55.591 16.1737 54.9395 16.8137 54.2612 17.4989C53.5819 18.1813 52.9308 18.8572 52.3079 19.5267C51.685 20.1962 51.1899 20.7682 50.8226 21.2428H56.0971L55.7554 22.7064H48.4326L48.697 21.581C49.1407 20.9454 49.6192 20.3345 50.1304 19.7512C50.7107 19.0816 51.3117 18.4156 51.9336 17.753C52.5555 17.0903 53.1689 16.4646 53.774 15.8759C54.379 15.2851 54.9078 14.7973 55.3603 14.4123H50.6607L51.0008 12.9487H58.0028L57.7012 14.1996Z" fill="#F7F8FB"/>
<path d="M27.3998 11.1087C26.2181 7.99545 23.8437 5.47561 20.7972 4.10183C17.7508 2.72805 14.2812 2.61249 11.1492 3.7805C10.7433 3.94165 10.3468 4.12556 9.96177 4.33136L10.8731 5.9057C11.1732 5.74757 11.4814 5.60511 11.7964 5.47889C13.7942 4.73069 15.9702 4.58875 18.0491 5.07103C20.128 5.55332 22.0165 6.63816 23.4757 8.18836C24.9349 9.73856 25.8993 11.6845 26.247 13.78C26.5946 15.8756 26.3098 18.0267 25.4287 19.9612C24.5476 21.8958 23.1097 23.5269 21.2968 24.6483C19.4839 25.7697 17.3775 26.331 15.244 26.2613C13.1105 26.1915 11.0457 25.4938 9.31069 24.2565C7.5757 23.0191 6.24848 21.2976 5.49686 19.3097C4.68196 17.1564 4.59438 14.535 5.34843 12.5368C5.36258 12.4961 5.37893 12.4561 5.39742 12.4172C5.63177 11.8436 5.95315 11.3092 6.35036 10.8325L6.39935 10.7764C7.06019 10.0059 7.91525 9.42428 8.87671 9.09129C10.2586 8.61131 11.6376 8.76785 12.3916 9.49004C13.1457 10.2122 13.1561 11.4203 12.7746 13.0345L10.2987 22.7345C10.499 22.8558 10.712 22.9549 10.934 23.0299C11.1774 23.1128 11.4251 23.1823 11.6762 23.2381C11.9268 23.2916 12.1807 23.3291 12.4362 23.3504C12.687 23.3725 12.9156 23.3814 13.1234 23.3814C14.3871 23.3814 15.4885 23.1707 16.4276 22.7493C17.3021 22.371 18.087 21.8139 18.7312 21.1142C19.3753 20.4145 19.8644 19.5879 20.1666 18.6879C20.471 17.7962 20.6254 16.8606 20.6238 15.9188C20.6276 15.4062 20.554 14.8959 20.4056 14.405C20.2732 13.9606 20.0499 13.5483 19.7495 13.194C19.4452 12.8453 19.0636 12.5717 18.6348 12.395C18.136 12.1909 17.6006 12.0904 17.0614 12.0997C16.6076 12.0962 16.1564 12.1665 15.7255 12.3079C15.3567 12.4309 15.0008 12.5892 14.6627 12.7805C14.7376 12.4089 14.7848 12.0322 14.8037 11.6536C14.8044 11.6497 14.8044 11.6457 14.8037 11.6418C14.8957 9.78394 14.1743 8.74127 13.6162 8.20813C12.3605 7.00448 10.3121 6.69877 8.27258 7.40914C6.99799 7.86416 5.8672 8.64684 4.99516 9.6776L4.96547 9.7101C4.92985 9.74997 4.89719 9.78985 4.86454 9.8312C2.72115 12.2355 2.51779 16.6248 3.77503 19.9477C4.96557 23.047 7.34094 25.5514 10.3819 26.9132C13.4228 28.2751 16.882 28.3838 20.0032 27.2154C23.1244 26.0471 25.6538 23.6968 27.0384 20.6783C28.4231 17.6599 28.5503 14.2188 27.3924 11.1072L27.3998 11.1087ZM14.1966 14.5675C14.5493 14.3092 14.9378 14.1033 15.3499 13.9561C15.7485 13.8135 16.1688 13.7401 16.5923 13.739C16.946 13.7268 17.298 13.7934 17.6224 13.9339C17.8791 14.0538 18.1011 14.2362 18.2681 14.4641C18.4316 14.6938 18.5453 14.9549 18.6021 15.2306C18.6648 15.5219 18.6966 15.8189 18.6971 16.1167C18.6992 16.8335 18.5756 17.5452 18.332 18.2198C18.0993 18.8712 17.7498 19.4752 17.3003 20.0023C16.8505 20.5242 16.2971 20.9481 15.675 21.2473C15.0051 21.5648 14.2706 21.7245 13.5286 21.714C13.3472 21.7137 13.1661 21.6994 12.9868 21.6712C12.8072 21.6446 12.6469 21.6166 12.5089 21.5885L14.1966 14.5675Z" fill="#F7F8FB"/>
</svg>
