<svg width="330" height="117" viewBox="0 0 330 117" fill="none" xmlns="http://www.w3.org/2000/svg">
<path d="M113.143 37.8977C107.664 23.3814 96.6542 11.632 82.529 5.22636C68.4038 -1.17924 52.3161 -1.71806 37.7944 3.72807C35.912 4.47946 34.0738 5.33702 32.2885 6.29663L36.5143 13.6374C37.9057 12.9 39.3346 12.2358 40.7951 11.6473C50.0584 8.15857 60.1476 7.49675 69.7868 9.74553C79.426 11.9943 88.1823 17.0527 94.9482 24.2809C101.714 31.5091 106.186 40.5825 107.798 50.3536C109.409 60.1247 108.089 70.1546 104.004 79.1749C99.9181 88.1952 93.2509 95.8007 84.8453 101.029C76.4396 106.258 66.6729 108.876 56.7805 108.551C46.8881 108.225 37.3142 104.972 29.2696 99.2027C21.2251 93.4331 15.0712 85.4062 11.5862 76.137C7.80776 66.0969 7.40169 53.8738 10.898 44.5567C10.9636 44.3668 11.0394 44.1806 11.1251 43.9989C12.2117 41.3243 13.7018 38.8324 15.5436 36.6099L15.7707 36.3483C18.8348 32.7556 22.7994 30.0437 27.2574 28.491C33.665 26.253 40.0587 26.9829 43.555 30.3503C47.0512 33.7177 47.0994 39.3506 45.3306 46.8773L33.8508 92.1062C34.7793 92.6718 35.7671 93.1337 36.7964 93.4835C37.9249 93.8698 39.0737 94.194 40.2376 94.4545C41.3999 94.7037 42.5769 94.8786 43.7614 94.9778C44.9246 95.0811 45.9844 95.1224 46.948 95.1224C52.8072 95.1224 57.9139 94.14 62.2682 92.1751C66.3234 90.4112 69.9625 87.8136 72.9493 84.5512C75.936 81.2887 78.2037 77.4342 79.605 73.2379C81.0162 69.0799 81.7324 64.7174 81.7248 60.3262C81.7422 57.936 81.4012 55.5567 80.713 53.2678C80.0993 51.1957 79.0636 49.2731 77.671 47.6211C76.2602 45.995 74.4907 44.7195 72.5023 43.8956C70.1898 42.9439 67.7072 42.4752 65.207 42.5183C63.1032 42.5022 61.0109 42.8302 59.0128 43.4893C57.3029 44.0628 55.6526 44.8008 54.085 45.6929C54.4326 43.9601 54.6511 42.2039 54.7389 40.4387C54.7422 40.4205 54.7422 40.4018 54.7389 40.3836C55.1656 31.7207 51.8207 26.859 49.2329 24.373C43.4104 18.7607 33.9127 17.3353 24.4563 20.6476C18.5464 22.7692 13.3033 26.4186 9.25994 31.2249L9.1223 31.3764C8.95713 31.5623 8.80572 31.7482 8.65431 31.9411C-1.28388 43.1519 -2.22679 63.6178 3.6026 79.1119C9.12275 93.5634 20.1366 105.24 34.2364 111.591C48.3362 117.941 64.3752 118.447 78.8473 113C93.3193 107.552 105.047 96.593 111.467 82.5187C117.887 68.4443 118.478 52.3992 113.109 37.8908L113.143 37.8977ZM51.924 54.0253C53.5592 52.8209 55.3605 51.8606 57.2716 51.1744C59.1198 50.5097 61.0682 50.1673 63.0322 50.1621C64.6721 50.1052 66.304 50.4158 67.8085 51.0711C68.9983 51.6302 70.028 52.4805 70.8024 53.5432C71.5604 54.6144 72.0877 55.8314 72.3509 57.1172C72.6416 58.4753 72.7892 59.8601 72.7914 61.249C72.8009 64.5912 72.2279 67.9096 71.0983 71.055C70.0197 74.0923 68.399 76.9085 66.3151 79.3667C64.2291 81.8001 61.6635 83.7764 58.7788 85.1718C55.6725 86.6522 52.2672 87.3968 48.8269 87.3479C47.9856 87.3464 47.1457 87.2796 46.3148 87.1482C45.482 87.0242 44.7387 86.8934 44.0987 86.7625L51.924 54.0253Z" fill="white"/>
<path d="M162.119 45.4955C163.552 44.6238 165.202 43.8766 167.07 43.254C168.938 42.6313 170.93 42.32 173.047 42.32C175.725 42.32 178.059 42.7558 180.052 43.6276C182.107 44.4993 183.788 45.7135 185.096 47.2701C186.403 48.7645 187.368 50.5702 187.991 52.6872C188.676 54.8043 189.018 57.077 189.018 59.5053C189.018 63.8017 188.333 67.9735 186.964 72.0208C185.594 76.0058 183.508 79.5861 180.706 82.7616C177.904 85.8749 174.386 88.3967 170.152 90.3269C165.98 92.1949 161.061 93.1289 155.395 93.1289C154.461 93.1289 153.433 93.0666 152.313 92.9421C151.192 92.8798 150.04 92.7242 148.857 92.4751C147.736 92.226 146.615 91.9147 145.494 91.5411C144.436 91.1675 143.502 90.7317 142.693 90.2335L159.224 21.1185L168.284 19.6241L162.119 45.4955ZM170.899 49.6985C169.031 49.6985 167.163 50.0409 165.295 50.7259C163.489 51.3485 161.777 52.2514 160.158 53.4344L152.593 85.0966C153.215 85.2211 153.931 85.3457 154.741 85.4702C155.55 85.5947 156.36 85.657 157.169 85.657C160.718 85.657 163.925 84.9721 166.789 83.6022C169.654 82.1701 172.082 80.3021 174.074 77.9983C176.067 75.6322 177.592 72.9548 178.651 69.966C179.772 66.915 180.332 63.7394 180.332 60.4393C180.332 59.0695 180.177 57.7308 179.865 56.4232C179.616 55.1156 179.118 53.9637 178.371 52.9674C177.686 51.9712 176.721 51.1929 175.475 50.6325C174.292 50.0098 172.767 49.6985 170.899 49.6985Z" fill="white"/>
<path d="M202.719 92.1015H194.033L205.707 43.5342H214.394L202.719 92.1015ZM212.806 34.7547C211.374 34.7547 210.159 34.3188 209.163 33.4471C208.229 32.5754 207.762 31.3612 207.762 29.8045C207.762 27.812 208.385 26.2554 209.63 25.1346C210.876 23.9516 212.277 23.36 213.833 23.36C215.265 23.36 216.479 23.827 217.476 24.761C218.472 25.6327 218.97 26.8781 218.97 28.497C218.97 30.3649 218.316 31.8905 217.009 33.0735C215.701 34.1943 214.3 34.7547 212.806 34.7547Z" fill="white"/>
<path d="M259.134 49.7919C257.328 51.4108 254.869 53.7146 251.755 56.7034C248.704 59.6299 245.498 62.8054 242.135 66.23C238.773 69.5924 235.535 72.9548 232.422 76.3171C229.371 79.6172 226.942 82.4503 225.137 84.8164H251.195L249.514 92.1015H213.275L214.583 86.4976C216.451 83.7579 218.817 80.738 221.681 77.4379C224.545 74.0755 227.503 70.7443 230.554 67.4442C233.667 64.1441 236.718 61.0309 239.707 58.1044C242.696 55.1779 245.311 52.7495 247.552 50.8193H224.296L225.977 43.5342H260.628L259.134 49.7919Z" fill="white"/>
<path d="M272.686 70.7132C272.375 72.083 272.063 73.4217 271.752 74.7293C271.441 76.0369 271.285 77.2822 271.285 78.4653C271.285 80.5823 271.783 82.2635 272.779 83.5088C273.838 84.7541 275.768 85.5324 278.57 85.8438L276.609 92.9421C274.056 92.8798 271.877 92.5062 270.071 91.8213C268.327 91.0741 266.895 90.109 265.775 88.9259C264.716 87.7429 263.938 86.3419 263.44 84.723C262.941 83.1041 262.692 81.3295 262.692 79.3993C262.692 77.9672 262.817 76.4728 263.066 74.9161C263.315 73.3595 263.657 71.7406 264.093 70.0594L275.862 21.1185L284.921 19.6241L272.686 70.7132Z" fill="white"/>
<path d="M303.568 84.256C305.934 80.5201 308.082 76.6596 310.013 72.6746C311.943 68.6273 313.624 64.7668 315.056 61.0931C316.551 57.4194 317.796 54.0571 318.792 51.0061C319.788 47.8928 320.504 45.4021 320.94 43.5342H330C329.315 45.9003 328.35 48.8579 327.105 52.407C325.859 55.8939 324.334 59.6921 322.528 63.8017C320.785 67.849 318.792 72.0208 316.551 76.3171C314.371 80.5512 311.974 84.6296 309.359 88.5523C307.366 91.4788 305.374 94.2185 303.381 96.7714C301.389 99.3866 299.241 101.628 296.937 103.496C294.695 105.426 292.205 106.921 289.465 107.979C286.725 109.1 283.643 109.66 280.218 109.66C278.475 109.66 276.856 109.443 275.362 109.007C273.867 108.571 272.778 108.104 272.093 107.606L275.082 100.507C275.704 101.006 276.545 101.41 277.603 101.722C278.662 102.095 279.845 102.282 281.152 102.282C284.764 102.282 287.815 101.41 290.306 99.6668C292.858 97.9233 295.256 95.6195 297.497 92.7553C295.193 85.2211 293.294 77.2822 291.8 68.9386C290.368 60.595 289.496 52.1268 289.185 43.5342H298.058C298.12 46.3361 298.276 49.4183 298.525 52.7806C298.774 56.0807 299.116 59.5365 299.552 63.1479C300.05 66.697 300.611 70.2773 301.233 73.8887C301.918 77.5002 302.696 80.9559 303.568 84.256Z" fill="white"/>
</svg>
