<svg width="24" height="24" viewBox="0 0 24 24" fill="none" xmlns="http://www.w3.org/2000/svg">
<g clip-path="url(#clip0_150_4486)">
<path d="M12.008 24.0032C11.532 24.0032 11.053 23.8328 10.671 23.489L6.923 20.2873H4C1.794 20.2873 4.17857e-07 18.4679 4.17857e-07 16.2307V4.0598C-0.000999582 1.82257 1.793 0.00317383 3.999 0.00317383H19.999C22.205 0.00317383 23.999 1.82257 23.999 4.0598V16.2297C23.999 18.4669 22.205 20.2863 19.999 20.2863H17.147L13.3 23.5113C12.938 23.8379 12.475 24.0022 12.007 24.0022L12.008 24.0032ZM3.999 2.03149C2.896 2.03149 1.999 2.94118 1.999 4.0598V16.2297C1.999 17.3483 2.896 18.258 3.999 18.258H7.288C7.524 18.258 7.752 18.3422 7.933 18.4963L11.98 21.9546L16.15 18.4902C16.33 18.3401 16.555 18.258 16.788 18.258H20C21.103 18.258 22 17.3483 22 16.2297V4.0598C22 2.94118 21.103 2.03149 20 2.03149H3.999Z" fill="white"/>
</g>
<defs>
<clipPath id="clip0_150_4486">
<rect width="24" height="24" fill="white"/>
</clipPath>
</defs>
</svg>
