<svg width="15" height="12" viewBox="0 0 15 12" fill="none" xmlns="http://www.w3.org/2000/svg">
<rect width="15" height="12" fill="#F5F5F5"/>
<g clip-path="url(#clip0_150_2868)">
<rect width="1440" height="2332" transform="translate(-417 -1060)" fill="black"/>
<g filter="url(#filter0_d_150_2868)">
<rect x="-317" y="-104" width="605" height="379" rx="12" fill="#262626" shape-rendering="crispEdges"/>
<circle cx="7.5" cy="6" r="12" fill="#595959"/>
<mask id="path-3-inside-1_150_2868" fill="white">
<path d="M1.11538 0C0.499135 0 0 0.499135 0 1.11538V5.01923H3.95395C4.22053 3.43929 5.59477 2.23077 7.25 2.23077C8.90523 2.23077 10.2789 3.43929 10.546 5.01923H14.5V1.11538C14.5 0.499135 14.0009 0 13.3846 0H1.11538ZM7.25 3.34615C6.65836 3.34615 6.09096 3.58118 5.67261 3.99953C5.25426 4.41788 5.01923 4.98529 5.01923 5.57692C5.01923 6.16856 5.25426 6.73596 5.67261 7.15431C6.09096 7.57266 6.65836 7.80769 7.25 7.80769C7.84164 7.80769 8.40904 7.57266 8.82739 7.15431C9.24574 6.73596 9.48077 6.16856 9.48077 5.57692C9.48077 4.98529 9.24574 4.41788 8.82739 3.99953C8.40904 3.58118 7.84164 3.34615 7.25 3.34615ZM0 6.13461V10.0385C0 10.6547 0.499135 11.1538 1.11538 11.1538H13.3846C14.0009 11.1538 14.5 10.6547 14.5 10.0385V6.13461H10.546C10.2795 7.71456 8.90523 8.92308 7.25 8.92308C5.59477 8.92308 4.22109 7.71456 3.95395 6.13461H0Z"/>
</mask>
<path d="M1.11538 0C0.499135 0 0 0.499135 0 1.11538V5.01923H3.95395C4.22053 3.43929 5.59477 2.23077 7.25 2.23077C8.90523 2.23077 10.2789 3.43929 10.546 5.01923H14.5V1.11538C14.5 0.499135 14.0009 0 13.3846 0H1.11538ZM7.25 3.34615C6.65836 3.34615 6.09096 3.58118 5.67261 3.99953C5.25426 4.41788 5.01923 4.98529 5.01923 5.57692C5.01923 6.16856 5.25426 6.73596 5.67261 7.15431C6.09096 7.57266 6.65836 7.80769 7.25 7.80769C7.84164 7.80769 8.40904 7.57266 8.82739 7.15431C9.24574 6.73596 9.48077 6.16856 9.48077 5.57692C9.48077 4.98529 9.24574 4.41788 8.82739 3.99953C8.40904 3.58118 7.84164 3.34615 7.25 3.34615ZM0 6.13461V10.0385C0 10.6547 0.499135 11.1538 1.11538 11.1538H13.3846C14.0009 11.1538 14.5 10.6547 14.5 10.0385V6.13461H10.546C10.2795 7.71456 8.90523 8.92308 7.25 8.92308C5.59477 8.92308 4.22109 7.71456 3.95395 6.13461H0Z" fill="#39537D" stroke="#D9D9D9" stroke-width="6.66667" mask="url(#path-3-inside-1_150_2868)"/>
</g>
</g>
<defs>
<filter id="filter0_d_150_2868" x="-332" y="-117" width="635" height="409" filterUnits="userSpaceOnUse" color-interpolation-filters="sRGB">
<feFlood flood-opacity="0" result="BackgroundImageFix"/>
<feColorMatrix in="SourceAlpha" type="matrix" values="0 0 0 0 0 0 0 0 0 0 0 0 0 0 0 0 0 0 127 0" result="hardAlpha"/>
<feOffset dy="2"/>
<feGaussianBlur stdDeviation="7.5"/>
<feComposite in2="hardAlpha" operator="out"/>
<feColorMatrix type="matrix" values="0 0 0 0 0 0 0 0 0 0 0 0 0 0 0 0 0 0 0.1 0"/>
<feBlend mode="normal" in2="BackgroundImageFix" result="effect1_dropShadow_150_2868"/>
<feBlend mode="normal" in="SourceGraphic" in2="effect1_dropShadow_150_2868" result="shape"/>
</filter>
<clipPath id="clip0_150_2868">
<rect width="1440" height="2332" fill="white" transform="translate(-417 -1060)"/>
</clipPath>
</defs>
</svg>
