<svg width="13" height="13" viewBox="0 0 13 13" fill="none" xmlns="http://www.w3.org/2000/svg">
<mask id="path-1-inside-1_348_3536" fill="white">
<path d="M7.04174 0.541677C7.04174 0.398018 7.09881 0.260243 7.20039 0.158661C7.30197 0.0570788 7.43975 1.0532e-05 7.58341 1.0532e-05C9.01951 0.00158765 10.3963 0.572777 11.4118 1.58826C12.4273 2.60374 12.9985 3.98057 13.0001 5.41668C13.0001 5.56034 12.943 5.69811 12.8414 5.79969C12.7398 5.90128 12.6021 5.95834 12.4584 5.95834C12.3147 5.95834 12.177 5.90128 12.0754 5.79969C11.9738 5.69811 11.9167 5.56034 11.9167 5.41668C11.9155 4.2678 11.4585 3.16635 10.6461 2.35397C9.83373 1.54159 8.73228 1.08463 7.58341 1.08334C7.43975 1.08334 7.30197 1.02628 7.20039 0.924693C7.09881 0.823111 7.04174 0.685336 7.04174 0.541677ZM7.58341 3.25001C8.15804 3.25001 8.70914 3.47828 9.11547 3.88461C9.5218 4.29094 9.75007 4.84204 9.75007 5.41668C9.75007 5.56034 9.80714 5.69811 9.90872 5.79969C10.0103 5.90128 10.1481 5.95834 10.2917 5.95834C10.4354 5.95834 10.5732 5.90128 10.6748 5.79969C10.7763 5.69811 10.8334 5.56034 10.8334 5.41668C10.8325 4.55499 10.4899 3.72884 9.88055 3.11953C9.27125 2.51022 8.4451 2.16754 7.58341 2.16668C7.43975 2.16668 7.30197 2.22375 7.20039 2.32533C7.09881 2.42691 7.04174 2.56469 7.04174 2.70834C7.04174 2.852 7.09881 2.98978 7.20039 3.09136C7.30197 3.19294 7.43975 3.25001 7.58341 3.25001ZM12.5088 9.06697C12.8227 9.38174 12.999 9.80814 12.999 10.2527C12.999 10.6972 12.8227 11.1236 12.5088 11.4384L12.0159 12.0066C7.57962 16.2538 -3.2158 5.46109 0.965865 1.01076L1.58878 0.469094C1.90391 0.163961 2.32649 -0.00483788 2.76512 -0.000783095C3.20375 0.00327169 3.62314 0.179854 3.93257 0.490761C3.94937 0.507552 4.95307 1.81134 4.95307 1.81134C5.2509 2.12423 5.41669 2.53985 5.41598 2.97181C5.41528 3.40378 5.24813 3.81885 4.94928 4.13076L4.32203 4.91943C4.66916 5.76286 5.17952 6.52939 5.82381 7.17498C6.46809 7.82056 7.23359 8.33248 8.07632 8.6813L8.86987 8.05026C9.18181 7.75165 9.59682 7.5847 10.0287 7.58409C10.4605 7.58349 10.876 7.74927 11.1887 8.04701C11.1887 8.04701 12.492 9.05018 12.5088 9.06697ZM11.7634 9.85455C11.7634 9.85455 10.4672 8.85734 10.4504 8.84055C10.3389 8.72991 10.1881 8.66783 10.0309 8.66783C9.87378 8.66783 9.723 8.72991 9.61141 8.84055C9.59678 8.85572 8.50424 9.72618 8.50424 9.72618C8.43062 9.78478 8.34299 9.82319 8.25001 9.83763C8.15702 9.85207 8.06188 9.84203 7.97395 9.80851C6.8822 9.40203 5.89056 8.76566 5.06619 7.94251C4.24183 7.11936 3.604 6.12866 3.19591 5.03751C3.15972 4.94838 3.14793 4.85123 3.16173 4.75603C3.17553 4.66083 3.21444 4.57102 3.27445 4.49584C3.27445 4.49584 4.14491 3.40276 4.15953 3.38868C4.27018 3.27709 4.33226 3.1263 4.33226 2.96916C4.33226 2.81201 4.27018 2.66123 4.15953 2.54964C4.14274 2.53339 3.14553 1.23609 3.14553 1.23609C3.03227 1.13454 2.88445 1.08015 2.73237 1.08407C2.5803 1.088 2.43548 1.14995 2.32762 1.25722L1.7047 1.79889C-1.35138 5.47355 8.00374 14.3098 11.2239 11.2667L11.7174 10.6979C11.833 10.5908 11.9025 10.4429 11.9111 10.2856C11.9197 10.1282 11.8667 9.97361 11.7634 9.85455Z"/>
</mask>
<path d="M7.04174 0.541677C7.04174 0.398018 7.09881 0.260243 7.20039 0.158661C7.30197 0.0570788 7.43975 1.0532e-05 7.58341 1.0532e-05C9.01951 0.00158765 10.3963 0.572777 11.4118 1.58826C12.4273 2.60374 12.9985 3.98057 13.0001 5.41668C13.0001 5.56034 12.943 5.69811 12.8414 5.79969C12.7398 5.90128 12.6021 5.95834 12.4584 5.95834C12.3147 5.95834 12.177 5.90128 12.0754 5.79969C11.9738 5.69811 11.9167 5.56034 11.9167 5.41668C11.9155 4.2678 11.4585 3.16635 10.6461 2.35397C9.83373 1.54159 8.73228 1.08463 7.58341 1.08334C7.43975 1.08334 7.30197 1.02628 7.20039 0.924693C7.09881 0.823111 7.04174 0.685336 7.04174 0.541677ZM7.58341 3.25001C8.15804 3.25001 8.70914 3.47828 9.11547 3.88461C9.5218 4.29094 9.75007 4.84204 9.75007 5.41668C9.75007 5.56034 9.80714 5.69811 9.90872 5.79969C10.0103 5.90128 10.1481 5.95834 10.2917 5.95834C10.4354 5.95834 10.5732 5.90128 10.6748 5.79969C10.7763 5.69811 10.8334 5.56034 10.8334 5.41668C10.8325 4.55499 10.4899 3.72884 9.88055 3.11953C9.27125 2.51022 8.4451 2.16754 7.58341 2.16668C7.43975 2.16668 7.30197 2.22375 7.20039 2.32533C7.09881 2.42691 7.04174 2.56469 7.04174 2.70834C7.04174 2.852 7.09881 2.98978 7.20039 3.09136C7.30197 3.19294 7.43975 3.25001 7.58341 3.25001ZM12.5088 9.06697C12.8227 9.38174 12.999 9.80814 12.999 10.2527C12.999 10.6972 12.8227 11.1236 12.5088 11.4384L12.0159 12.0066C7.57962 16.2538 -3.2158 5.46109 0.965865 1.01076L1.58878 0.469094C1.90391 0.163961 2.32649 -0.00483788 2.76512 -0.000783095C3.20375 0.00327169 3.62314 0.179854 3.93257 0.490761C3.94937 0.507552 4.95307 1.81134 4.95307 1.81134C5.2509 2.12423 5.41669 2.53985 5.41598 2.97181C5.41528 3.40378 5.24813 3.81885 4.94928 4.13076L4.32203 4.91943C4.66916 5.76286 5.17952 6.52939 5.82381 7.17498C6.46809 7.82056 7.23359 8.33248 8.07632 8.6813L8.86987 8.05026C9.18181 7.75165 9.59682 7.5847 10.0287 7.58409C10.4605 7.58349 10.876 7.74927 11.1887 8.04701C11.1887 8.04701 12.492 9.05018 12.5088 9.06697ZM11.7634 9.85455C11.7634 9.85455 10.4672 8.85734 10.4504 8.84055C10.3389 8.72991 10.1881 8.66783 10.0309 8.66783C9.87378 8.66783 9.723 8.72991 9.61141 8.84055C9.59678 8.85572 8.50424 9.72618 8.50424 9.72618C8.43062 9.78478 8.34299 9.82319 8.25001 9.83763C8.15702 9.85207 8.06188 9.84203 7.97395 9.80851C6.8822 9.40203 5.89056 8.76566 5.06619 7.94251C4.24183 7.11936 3.604 6.12866 3.19591 5.03751C3.15972 4.94838 3.14793 4.85123 3.16173 4.75603C3.17553 4.66083 3.21444 4.57102 3.27445 4.49584C3.27445 4.49584 4.14491 3.40276 4.15953 3.38868C4.27018 3.27709 4.33226 3.1263 4.33226 2.96916C4.33226 2.81201 4.27018 2.66123 4.15953 2.54964C4.14274 2.53339 3.14553 1.23609 3.14553 1.23609C3.03227 1.13454 2.88445 1.08015 2.73237 1.08407C2.5803 1.088 2.43548 1.14995 2.32762 1.25722L1.7047 1.79889C-1.35138 5.47355 8.00374 14.3098 11.2239 11.2667L11.7174 10.6979C11.833 10.5908 11.9025 10.4429 11.9111 10.2856C11.9197 10.1282 11.8667 9.97361 11.7634 9.85455Z" fill="#D9D9D9"/>
<path d="M7.58341 1.0532e-05L7.60684 -21.3333L7.59512 -21.3333H7.58341V1.0532e-05ZM13.0001 5.41668H34.3334V5.40496L34.3334 5.39325L13.0001 5.41668ZM11.9167 5.41668H33.2501V5.4047L33.2501 5.39272L11.9167 5.41668ZM7.58341 1.08334L7.60737 -20.25L7.59539 -20.25H7.58341V1.08334ZM10.8334 5.41668H32.1667V5.40603L32.1667 5.39538L10.8334 5.41668ZM7.58341 2.16668L7.60471 -19.1666L7.59406 -19.1667H7.58341V2.16668ZM12.5088 9.06697L27.6146 -5.99712L27.6041 -6.00755L27.5937 -6.01798L12.5088 9.06697ZM12.999 10.2527H-8.33438H12.999ZM12.5088 11.4384L-2.59699 -3.6257L-3.12033 -3.10091L-3.60599 -2.54107L12.5088 11.4384ZM12.0159 12.0066L26.7689 27.4163L27.4829 26.7327L28.1306 25.986L12.0159 12.0066ZM0.965865 1.01076L-13.0326 -15.0875L-13.8444 -14.3816L-14.5811 -13.5976L0.965865 1.01076ZM1.58878 0.469094L15.5873 16.5673L16.0184 16.1925L16.4288 15.795L1.58878 0.469094ZM3.93257 0.490761L-11.1882 15.5398L-11.1703 15.5577L-11.1524 15.5757L3.93257 0.490761ZM4.95307 1.81134L-11.9513 14.825L-11.2696 15.7105L-10.4991 16.5199L4.95307 1.81134ZM4.94928 4.13076L-10.4547 -10.6282L-11.1351 -9.91813L-11.7472 -9.14846L4.94928 4.13076ZM4.32203 4.91943L-12.3745 -8.3598L-20.1757 1.44901L-15.4058 13.0387L4.32203 4.91943ZM8.07632 8.6813L-0.0827113 28.3928L11.5232 33.1967L21.3544 25.3787L8.07632 8.6813ZM8.86987 8.05026L22.148 24.7476L22.9144 24.1382L23.6218 23.461L8.86987 8.05026ZM11.1887 8.04701L-3.51996 23.499L2.65857 29.3803H11.1887V8.04701ZM10.4504 8.84055L25.5354 -6.24439L25.5033 -6.27649L25.4711 -6.30846L10.4504 8.84055ZM9.61141 8.84055L-5.4092 -6.30846L-5.57915 -6.13995L-5.74527 -5.96767L9.61141 8.84055ZM8.50424 9.72618L21.7901 26.4174L21.7978 26.4113L8.50424 9.72618ZM7.97395 9.80851L15.5734 -10.1254L15.4956 -10.155L15.4176 -10.1841L7.97395 9.80851ZM3.19591 5.03751L23.1775 -2.43564L23.0738 -2.71295L22.9624 -2.98728L3.19591 5.03751ZM3.27445 4.49584L19.9476 17.8044L19.9552 17.7949L19.9628 17.7853L3.27445 4.49584ZM4.15953 3.38868L18.9572 18.7555L19.1349 18.5844L19.3085 18.4093L4.15953 3.38868ZM4.33226 2.96916H25.6656H4.33226ZM4.15953 2.54964L19.3085 -12.471L19.1535 -12.6274L18.9952 -12.7805L4.15953 2.54964ZM3.14553 1.23609L20.0593 -11.7653L18.8567 -13.3298L17.3875 -14.6472L3.14553 1.23609ZM2.32762 1.25722L16.3261 17.3555L16.8645 16.8873L17.3705 16.3841L2.32762 1.25722ZM1.7047 1.79889L-12.2938 -14.2994L-13.5949 -13.1679L-14.6975 -11.8422L1.7047 1.79889ZM11.2239 11.2667L25.8764 26.772L26.6449 26.0459L27.3377 25.2473L11.2239 11.2667ZM11.7174 10.6979L-2.77949 -4.95299L-3.6335 -4.16195L-4.39636 -3.28269L11.7174 10.6979ZM28.3751 0.541677C28.3751 6.05598 26.1845 11.3444 22.2853 15.2436L-7.88455 -14.9263C-11.9869 -10.8239 -14.2916 -5.25995 -14.2916 0.541677H28.3751ZM22.2853 15.2436C18.3861 19.1428 13.0977 21.3333 7.58341 21.3333V-21.3333C1.78179 -21.3333 -3.7822 -19.0286 -7.88455 -14.9263L22.2853 15.2436ZM7.55998 21.3333C3.34625 21.3287 -0.693564 19.6528 -3.67312 16.6732L26.4968 -13.4967C21.4863 -18.5072 14.6928 -21.3255 7.60684 -21.3333L7.55998 21.3333ZM-3.67312 16.6732C-6.65267 13.6936 -8.32862 9.65383 -8.33325 5.44011L34.3334 5.39325C34.3256 -1.69269 31.5073 -8.48617 26.4968 -13.4967L-3.67312 16.6732ZM-8.33326 5.41668C-8.33326 -0.0975782 -6.14274 -5.38603 -2.24352 -9.28525L27.9264 20.8846C32.0288 16.7823 34.3334 11.2183 34.3334 5.41668H-8.33326ZM-2.24352 -9.28525C1.65568 -13.1845 6.94412 -15.375 12.4584 -15.375V27.2917C18.26 27.2917 23.824 24.987 27.9264 20.8846L-2.24352 -9.28525ZM12.4584 -15.375C17.9727 -15.375 23.2611 -13.1845 27.1603 -9.28525L-3.00955 20.8846C1.09281 24.987 6.6568 27.2917 12.4584 27.2917V-15.375ZM27.1603 -9.28525C31.0596 -5.38603 33.2501 -0.0975782 33.2501 5.41668H-9.41659C-9.41659 11.2183 -7.11194 16.7823 -3.00955 20.8846L27.1603 -9.28525ZM33.2501 5.39272C33.2424 -1.40581 30.5383 -7.92369 25.7311 -12.731L-4.43883 17.4389C-7.62136 14.2564 -9.41153 9.94141 -9.41658 5.44064L33.2501 5.39272ZM25.7311 -12.731C20.9238 -17.5383 14.4059 -20.2423 7.60737 -20.25L7.55945 22.4167C3.05867 22.4116 -1.25631 20.6214 -4.43883 17.4389L25.7311 -12.731ZM7.58341 -20.25C13.0977 -20.25 18.3861 -18.0594 22.2853 -14.1603L-7.88455 16.0096C-3.7822 20.112 1.78179 22.4167 7.58341 22.4167V-20.25ZM22.2853 -14.1603C26.1845 -10.2611 28.3751 -4.97263 28.3751 0.541677H-14.2916C-14.2916 6.3433 -11.9869 11.9073 -7.88455 16.0096L22.2853 -14.1603ZM7.58341 24.5833C2.50008 24.5833 -2.37503 22.564 -5.96947 18.9696L24.2004 -11.2003C19.7933 -15.6074 13.816 -18.0833 7.58341 -18.0833V24.5833ZM-5.96947 18.9696C-9.56392 15.3751 -11.5833 10.5 -11.5833 5.41668H31.0834C31.0834 -0.815917 28.6075 -6.79323 24.2004 -11.2003L-5.96947 18.9696ZM-11.5833 5.41668C-11.5833 11.2183 -9.27861 16.7823 -5.17622 20.8846L24.9937 -9.28525C28.8929 -5.38603 31.0834 -0.0975782 31.0834 5.41668H-11.5833ZM-5.17622 20.8846C-1.07386 24.987 4.49014 27.2917 10.2917 27.2917V-15.375C15.806 -15.375 21.0945 -13.1845 24.9937 -9.28525L-5.17622 20.8846ZM10.2917 27.2917C16.0933 27.2917 21.6573 24.987 25.7597 20.8846L-4.41019 -9.28525C-0.51099 -13.1845 4.77745 -15.375 10.2917 -15.375V27.2917ZM25.7597 20.8846C29.8621 16.7823 32.1667 11.2183 32.1667 5.41668H-10.4999C-10.4999 -0.0975782 -8.30941 -5.38603 -4.41019 -9.28525L25.7597 20.8846ZM32.1667 5.39538C32.1602 -1.11688 29.5704 -7.36055 24.9655 -11.9654L-5.20439 18.2045C-8.59064 14.8182 -10.4951 10.2269 -10.4999 5.43798L32.1667 5.39538ZM24.9655 -11.9654C20.3606 -16.5703 14.117 -19.1601 7.60471 -19.1666L7.56211 23.5C2.77322 23.4952 -1.81814 21.5907 -5.20439 18.2045L24.9655 -11.9654ZM7.58341 -19.1667C1.78178 -19.1667 -3.78221 -16.862 -7.88455 -12.7596L22.2853 17.4103C18.3862 21.3095 13.0977 23.5 7.58341 23.5V-19.1667ZM-7.88455 -12.7596C-11.9869 -8.65727 -14.2916 -3.09328 -14.2916 2.70834H28.3751C28.3751 8.22265 26.1845 13.5111 22.2853 17.4103L-7.88455 -12.7596ZM-14.2916 2.70834C-14.2916 8.50997 -11.9869 14.074 -7.88455 18.1763L22.2853 -11.9936C26.1845 -8.0944 28.3751 -2.80596 28.3751 2.70834H-14.2916ZM-7.88455 18.1763C-3.78221 22.2787 1.78178 24.5833 7.58341 24.5833V-18.0833C13.0977 -18.0833 18.3862 -15.8928 22.2853 -11.9936L-7.88455 18.1763ZM-2.59699 24.1311C-6.27113 20.4468 -8.33438 15.4559 -8.33438 10.2527H34.3323C34.3323 4.1604 31.9165 -1.68328 27.6146 -5.99712L-2.59699 24.1311ZM-8.33438 10.2527C-8.33438 5.0495 -6.27114 0.0586101 -2.59699 -3.6257L27.6146 26.5025C31.9165 22.1886 34.3323 16.3449 34.3323 10.2527H-8.33438ZM-3.60599 -2.54107L-4.09891 -1.97286L28.1306 25.986L28.6236 25.4178L-3.60599 -2.54107ZM-2.73718 -3.4031C3.70248 -9.56835 11.304 -8.54672 14.1134 -7.68079C16.7418 -6.87068 17.9885 -5.66938 18.3244 -5.33434C18.6642 -4.9954 19.8468 -3.77107 20.6581 -1.1869C21.5107 1.52854 22.6301 9.10879 16.5128 15.6191L-14.5811 -13.5976C-22.7892 -4.8621 -21.8885 5.73611 -20.0492 11.5941C-18.2512 17.3208 -14.8766 21.8123 -11.8061 24.8749C-8.73953 27.9335 -4.2235 31.3147 1.54599 33.093C7.49657 34.9271 18.1111 35.7051 26.7689 27.4163L-2.73718 -3.4031ZM14.9643 17.109L15.5873 16.5673L-12.4097 -15.6292L-13.0326 -15.0875L14.9643 17.109ZM16.4288 15.795C12.7157 19.3905 7.73629 21.3794 2.56792 21.3316L2.96232 -21.3332C-3.0833 -21.3891 -8.90786 -19.0625 -13.2512 -14.8569L16.4288 15.795ZM2.56792 21.3316C-2.60045 21.2839 -7.54221 19.2032 -11.1882 15.5398L19.0534 -14.5582C14.7885 -18.8435 9.00794 -21.2773 2.96232 -21.3332L2.56792 21.3316ZM-11.1524 15.5757C-11.6871 15.0409 -12.0779 14.5898 -12.1347 14.5248C-12.2718 14.3678 -12.378 14.2415 -12.431 14.178C-12.5409 14.0467 -12.6247 13.9431 -12.6555 13.905C-12.7266 13.8171 -12.7799 13.7496 -12.7922 13.734C-12.8127 13.7081 -12.8273 13.6894 -12.8326 13.6827C-12.836 13.6783 -12.8384 13.6752 -12.8398 13.6734C-12.8413 13.6715 -12.842 13.6706 -12.8421 13.6706C-12.8421 13.6705 -12.8416 13.6711 -12.8405 13.6725C-12.8395 13.6739 -12.838 13.6758 -12.8361 13.6783C-12.8321 13.6833 -12.8269 13.69 -12.8203 13.6985C-12.807 13.7157 -12.7901 13.7375 -12.7696 13.7639C-12.6853 13.8728 -12.5678 14.025 -12.4432 14.1866C-12.3203 14.3459 -12.1972 14.5057 -12.1043 14.6262C-12.058 14.6863 -12.0195 14.7363 -11.9927 14.7711C-11.9793 14.7886 -11.9688 14.8022 -11.9617 14.8114C-11.9582 14.8159 -11.9555 14.8194 -11.9538 14.8217C-11.9529 14.8229 -11.9522 14.8237 -11.9518 14.8243C-11.9516 14.8245 -11.9515 14.8247 -11.9514 14.8248C-11.9513 14.8249 -11.9513 14.8249 -11.9513 14.825C-11.9513 14.825 -11.9513 14.825 -11.9513 14.825C-11.9513 14.825 -11.9513 14.825 4.95307 1.81134C21.8574 -11.2023 21.8574 -11.2023 21.8574 -11.2023C21.8574 -11.2023 21.8574 -11.2024 21.8573 -11.2024C21.8573 -11.2024 21.8572 -11.2025 21.8571 -11.2026C21.857 -11.2028 21.8568 -11.2031 21.8565 -11.2035C21.856 -11.2042 21.8552 -11.2052 21.8542 -11.2065C21.8521 -11.2092 21.8492 -11.213 21.8453 -11.218C21.8377 -11.2279 21.8266 -11.2423 21.8125 -11.2606C21.7844 -11.2971 21.7444 -11.3491 21.6963 -11.4115C21.6004 -11.5359 21.4716 -11.7032 21.3414 -11.8719C21.213 -12.0383 21.0765 -12.2152 20.9678 -12.3556C20.9157 -12.4228 20.8569 -12.4987 20.8045 -12.5659C20.782 -12.5948 20.737 -12.6524 20.6858 -12.7173C20.6652 -12.7433 20.6053 -12.8191 20.5294 -12.913C20.4963 -12.954 20.4105 -13.06 20.2992 -13.1931C20.2454 -13.2574 20.1386 -13.3844 20.001 -13.542C19.9437 -13.6076 19.5525 -14.0592 19.0175 -14.5942L-11.1524 15.5757ZM-10.4991 16.5199C-13.9851 12.8577 -15.9256 7.99296 -15.9173 2.93694L26.7493 3.00669C26.759 -2.91327 24.4869 -8.60925 20.4053 -12.8972L-10.4991 16.5199ZM-15.9173 2.93694C-15.9091 -2.11909 -13.9526 -6.97745 -10.4547 -10.6282L20.3533 18.8897C24.4489 14.6152 26.7396 8.92665 26.7493 3.00669L-15.9173 2.93694ZM-11.7472 -9.14846L-12.3745 -8.3598L21.0185 18.1987L21.6458 17.41L-11.7472 -9.14846ZM-15.4058 13.0387C-13.989 16.4811 -11.906 19.6097 -9.27635 22.2447L20.924 -7.89474C22.265 -6.55095 23.3274 -4.95542 24.0499 -3.19982L-15.4058 13.0387ZM-9.27635 22.2447C-6.64671 24.8797 -3.52232 26.969 -0.0827113 28.3928L16.2354 -11.0301C17.9895 -10.3041 19.5829 -9.23852 20.924 -7.89474L-9.27635 22.2447ZM21.3544 25.3787L22.148 24.7476L-4.40826 -8.64712L-5.2018 -8.01608L21.3544 25.3787ZM23.6218 23.461C19.9705 26.9562 15.1131 28.9103 10.0586 28.9174L9.99875 -13.7492C4.08056 -13.7409 -1.60692 -11.4529 -5.88209 -7.36048L23.6218 23.461ZM10.0586 28.9174C5.00405 28.9245 0.141108 26.984 -3.51996 23.499L25.8974 -7.40502C21.6108 -11.4854 15.9169 -13.7575 9.99875 -13.7492L10.0586 28.9174ZM11.1887 8.04701C-1.82385 24.9521 -1.82386 24.9521 -1.82387 24.9521C-1.82386 24.9521 -1.82386 24.9521 -1.82385 24.9521C-1.82384 24.9522 -1.8238 24.9522 -1.82374 24.9522C-1.82362 24.9523 -1.82343 24.9525 -1.82316 24.9527C-1.82262 24.9531 -1.82177 24.9538 -1.82062 24.9546C-1.81833 24.9564 -1.81485 24.9591 -1.81026 24.9626C-1.80108 24.9697 -1.78748 24.9802 -1.77007 24.9936C-1.73524 25.0204 -1.68527 25.0588 -1.62519 25.1051C-1.50471 25.1979 -1.34501 25.321 -1.18576 25.4438C-1.02424 25.5684 -0.872136 25.6858 -0.763348 25.77C-0.736883 25.7905 -0.715128 25.8073 -0.697948 25.8207C-0.689456 25.8273 -0.682773 25.8325 -0.677739 25.8364C-0.67526 25.8383 -0.673366 25.8398 -0.672014 25.8408C-0.670651 25.8419 -0.670025 25.8424 -0.670065 25.8423C-0.670086 25.8423 -0.671078 25.8415 -0.672923 25.8401C-0.674731 25.8387 -0.677899 25.8362 -0.682218 25.8328C-0.688966 25.8275 -0.707682 25.8129 -0.733644 25.7924C-0.749236 25.7801 -0.816782 25.7267 -0.904818 25.6556C-0.94289 25.6248 -1.04657 25.5409 -1.17802 25.431C-1.2415 25.3779 -1.36787 25.2717 -1.52498 25.1344C-1.59008 25.0776 -2.04132 24.6868 -2.57616 24.1519L27.5937 -6.01798C27.0586 -6.55308 26.607 -6.9443 26.5413 -7.00165C26.3836 -7.13937 26.2565 -7.24622 26.1921 -7.30003C26.0589 -7.41143 25.9529 -7.49728 25.9119 -7.53044C25.8179 -7.60635 25.7421 -7.66629 25.716 -7.68687C25.6511 -7.73817 25.5934 -7.78318 25.5645 -7.80569C25.4973 -7.8581 25.4215 -7.9169 25.3542 -7.96896C25.2139 -8.07756 25.0371 -8.21408 24.8707 -8.3424C24.702 -8.47247 24.5349 -8.60127 24.4105 -8.69709C24.3481 -8.74512 24.2961 -8.78515 24.2596 -8.81326C24.2414 -8.82732 24.2269 -8.83841 24.217 -8.84605C24.2121 -8.84986 24.2082 -8.85282 24.2056 -8.85485C24.2043 -8.85587 24.2032 -8.85666 24.2025 -8.8572C24.2022 -8.85748 24.2019 -8.85769 24.2017 -8.85785C24.2016 -8.85792 24.2015 -8.85798 24.2015 -8.85803C24.2014 -8.85805 24.2014 -8.85808 24.2014 -8.85809C24.2014 -8.85811 24.2013 -8.85812 11.1887 8.04701ZM11.7634 9.85455C24.7716 -7.05397 24.7717 -7.05396 24.7717 -7.05395C24.7717 -7.05396 24.7717 -7.05396 24.7716 -7.05396C24.7716 -7.05398 24.7716 -7.05401 24.7715 -7.05405C24.7714 -7.05414 24.7712 -7.05429 24.771 -7.05449C24.7704 -7.05491 24.7696 -7.05556 24.7684 -7.05643C24.7662 -7.05818 24.7627 -7.06085 24.7581 -7.06435C24.749 -7.07137 24.7355 -7.08178 24.7182 -7.0951C24.6835 -7.12175 24.6339 -7.15999 24.5741 -7.20598C24.4543 -7.29821 24.2955 -7.42049 24.1372 -7.54254C23.9766 -7.66635 23.8254 -7.78296 23.7174 -7.86653C23.6912 -7.88685 23.6696 -7.90354 23.6526 -7.91672C23.6442 -7.92323 23.6377 -7.92834 23.6327 -7.93217C23.6277 -7.93609 23.6254 -7.93788 23.6254 -7.93788C23.6255 -7.93782 23.6265 -7.937 23.6284 -7.93551C23.6303 -7.93404 23.6335 -7.93151 23.6379 -7.92807C23.6448 -7.92268 23.6637 -7.90786 23.6899 -7.88717C23.7057 -7.87471 23.7737 -7.82102 23.8623 -7.74945C23.9007 -7.71847 24.0048 -7.63417 24.1369 -7.52375C24.2007 -7.4704 24.3274 -7.36387 24.485 -7.22627C24.5513 -7.16836 25.0015 -6.7783 25.5354 -6.24439L-4.6345 23.9255C-4.10033 24.4597 -3.64968 24.8501 -3.58281 24.9085C-3.4247 25.0466 -3.29725 25.1538 -3.23256 25.2079C-3.09875 25.3197 -2.99222 25.406 -2.95092 25.4393C-2.85644 25.5157 -2.78022 25.5759 -2.75402 25.5966C-2.68877 25.6481 -2.63087 25.6933 -2.60201 25.7158C-2.53477 25.7682 -2.45902 25.8269 -2.39206 25.8787C-2.25231 25.9868 -2.07623 26.1226 -1.9107 26.2502C-1.74289 26.3796 -1.57658 26.5077 -1.45282 26.6029C-1.39078 26.6507 -1.33906 26.6905 -1.30274 26.7184C-1.28457 26.7324 -1.27024 26.7435 -1.26037 26.7511C-1.25543 26.7549 -1.25161 26.7578 -1.24898 26.7598C-1.24766 26.7608 -1.24665 26.7616 -1.24594 26.7622C-1.24558 26.7624 -1.24531 26.7626 -1.24511 26.7628C-1.24501 26.7629 -1.24493 26.7629 -1.24487 26.763C-1.24484 26.763 -1.24481 26.763 -1.24479 26.763C-1.24477 26.7631 -1.24475 26.7631 11.7634 9.85455ZM25.4711 -6.30846C21.364 -10.3807 15.8145 -12.6655 10.0309 -12.6655V30.0012C4.56163 30.0012 -0.686286 27.8405 -4.57016 23.9896L25.4711 -6.30846ZM10.0309 -12.6655C4.24733 -12.6655 -1.30214 -10.3807 -5.4092 -6.30846L24.632 23.9896C20.7481 27.8405 15.5002 30.0012 10.0309 30.0012V-12.6655ZM-5.74527 -5.96767C-5.22975 -6.50229 -4.79545 -6.89357 -4.72262 -6.95964C-4.56561 -7.10208 -4.43901 -7.21257 -4.37421 -7.26882C-4.2407 -7.3847 -4.13518 -7.47329 -4.09551 -7.50653C-4.00461 -7.58271 -3.93448 -7.64011 -3.91717 -7.65428C-3.88934 -7.67706 -3.86877 -7.69377 -3.86032 -7.70062C-3.85046 -7.70862 -3.84417 -7.7137 -3.84279 -7.71481C-3.84046 -7.7167 -3.84489 -7.71312 -3.85851 -7.70218C-3.87125 -7.69193 -3.88813 -7.67839 -3.90939 -7.66135C-3.99747 -7.59076 -4.12253 -7.49081 -4.25747 -7.38309C-4.39005 -7.27724 -4.52318 -7.17106 -4.6238 -7.09085C-4.67393 -7.05088 -4.71562 -7.01765 -4.74465 -6.99452C-4.75915 -6.98296 -4.77048 -6.97393 -4.7781 -6.96786C-4.78191 -6.96483 -4.78479 -6.96253 -4.78667 -6.96103C-4.78761 -6.96028 -4.78831 -6.95972 -4.78874 -6.95938C-4.78896 -6.9592 -4.78912 -6.95908 -4.78921 -6.95901C-4.78925 -6.95897 -4.78928 -6.95895 -4.78929 -6.95894C-4.7893 -6.95894 -4.78929 -6.95894 -4.7893 -6.95894C-4.78929 -6.95894 -4.78928 -6.95895 8.50424 9.72618C21.7978 26.4113 21.7978 26.4113 21.7978 26.4113C21.7978 26.4113 21.7978 26.4112 21.7979 26.4112C21.7979 26.4112 21.798 26.4111 21.7981 26.411C21.7983 26.4109 21.7985 26.4107 21.7988 26.4105C21.7994 26.41 21.8003 26.4093 21.8014 26.4084C21.8037 26.4066 21.8069 26.404 21.8111 26.4007C21.8195 26.394 21.8317 26.3843 21.8471 26.372C21.8779 26.3475 21.9216 26.3126 21.9742 26.2707C22.0788 26.1872 22.2198 26.0749 22.3621 25.9612C22.5022 25.8494 22.653 25.7289 22.7739 25.632C22.8313 25.586 22.8997 25.5311 22.9621 25.4807C22.9884 25.4595 23.0452 25.4136 23.1103 25.3603C23.1364 25.3389 23.2135 25.2757 23.3094 25.1954C23.3516 25.1601 23.4591 25.0698 23.5941 24.9526C23.6596 24.8957 23.7869 24.7846 23.9444 24.6418C24.0177 24.5753 24.4523 24.1836 24.9681 23.6488L-5.74527 -5.96767ZM-4.78164 -6.96503C-1.95565 -9.21447 1.40766 -10.689 4.977 -11.2431L11.523 30.9184C15.2783 30.3353 18.8169 28.784 21.7901 26.4174L-4.78164 -6.96503ZM4.977 -11.2431C8.54628 -11.7973 12.1983 -11.4121 15.5734 -10.1254L0.374496 29.7424C3.92542 31.0961 7.76776 31.5014 11.523 30.9184L4.977 -11.2431ZM15.4176 -10.1841C17.1907 -9.52391 18.8012 -8.49041 20.14 -7.15355L-10.0076 23.0386C-7.02007 26.0217 -3.4263 28.328 0.530277 29.8011L15.4176 -10.1841ZM20.14 -7.15355C21.4788 -5.81671 22.5147 -4.20774 23.1775 -2.43564L-16.7857 12.5107C-15.3067 16.4651 -12.9952 20.0554 -10.0076 23.0386L20.14 -7.15355ZM22.9624 -2.98728C24.3513 0.43389 24.8041 4.16322 24.2743 7.81735L-17.9508 1.69471C-18.5083 5.53924 -18.0319 9.46287 -16.5706 13.0623L22.9624 -2.98728ZM24.2743 7.81735C23.7444 11.4715 22.251 14.9186 19.9476 17.8044L-13.3987 -8.8127C-15.8221 -5.77657 -17.3934 -2.14983 -17.9508 1.69471L24.2743 7.81735ZM3.27445 4.49584C19.9628 17.7853 19.9628 17.7853 19.9628 17.7853C19.9628 17.7853 19.9628 17.7853 19.9628 17.7853C19.9628 17.7853 19.9628 17.7853 19.9629 17.7852C19.9629 17.7852 19.9631 17.785 19.9632 17.7848C19.9636 17.7843 19.9641 17.7836 19.9649 17.7827C19.9664 17.7808 19.9687 17.7779 19.9717 17.7741C19.9778 17.7665 19.9868 17.7551 19.9984 17.7406C20.0216 17.7115 20.0548 17.6698 20.0948 17.6196C20.1751 17.5189 20.2813 17.3856 20.3873 17.2528C20.495 17.1178 20.5952 16.9923 20.6661 16.9038C20.6832 16.8824 20.6969 16.8654 20.7073 16.8524C20.7184 16.8386 20.7223 16.8338 20.7208 16.8357C20.7199 16.8368 20.715 16.8428 20.7074 16.8522C20.7008 16.8603 20.6846 16.8803 20.6624 16.9074C20.6488 16.9241 20.5925 16.993 20.5178 17.0822C20.4854 17.1209 20.3978 17.2255 20.2831 17.358C20.2276 17.422 20.1171 17.5489 19.9743 17.7066C19.9141 17.7731 19.5098 18.2234 18.9572 18.7555L-10.6382 -11.9782C-11.1909 -11.4458 -11.5956 -10.9952 -11.6563 -10.9282C-11.7994 -10.77 -11.9105 -10.6425 -11.9666 -10.5777C-12.0826 -10.4438 -12.1719 -10.3372 -12.2064 -10.2961C-12.2852 -10.2018 -12.3473 -10.126 -12.3681 -10.1006C-12.4202 -10.0368 -12.4652 -9.98105 -12.4862 -9.95506C-12.5358 -9.89353 -12.5901 -9.82586 -12.636 -9.76859C-12.7324 -9.6482 -12.8526 -9.49772 -12.9642 -9.35774C-13.0778 -9.21548 -13.19 -9.07462 -13.2734 -8.96994C-13.3153 -8.91744 -13.3502 -8.87367 -13.3747 -8.8429C-13.3869 -8.82751 -13.3966 -8.81536 -13.4033 -8.80697C-13.4066 -8.80278 -13.4092 -8.79953 -13.411 -8.79728C-13.4119 -8.79616 -13.4126 -8.79529 -13.4131 -8.79468C-13.4133 -8.79437 -13.4135 -8.79413 -13.4136 -8.79396C-13.4137 -8.79387 -13.4138 -8.7938 -13.4138 -8.79374C-13.4138 -8.79372 -13.4139 -8.79369 -13.4139 -8.79368C-13.4139 -8.79365 -13.4139 -8.79363 3.27445 4.49584ZM19.3085 18.4093C23.3808 14.3023 25.6656 8.7528 25.6656 2.96916H-17.0011C-17.0011 -2.50019 -14.8404 -7.74809 -10.9895 -11.6319L19.3085 18.4093ZM25.6656 2.96916C25.6656 -2.81448 23.3808 -8.36394 19.3085 -12.471L-10.9895 17.5702C-14.8404 13.6864 -17.0011 8.4385 -17.0011 2.96916H25.6656ZM18.9952 -12.7805C19.6149 -12.1808 20.0642 -11.6687 20.1271 -11.5977C20.2836 -11.4211 20.4044 -11.2787 20.4644 -11.2075C20.589 -11.0599 20.6839 -10.9431 20.7186 -10.9004C20.799 -10.8013 20.8595 -10.7249 20.8738 -10.7068C20.8973 -10.6771 20.9144 -10.6553 20.921 -10.6468C20.9289 -10.6368 20.9336 -10.6307 20.9342 -10.6301C20.9348 -10.6292 20.9296 -10.636 20.9164 -10.6529C20.9039 -10.669 20.8878 -10.6898 20.8679 -10.7155C20.7857 -10.8218 20.6702 -10.9716 20.5465 -11.1321C20.4249 -11.29 20.3029 -11.4485 20.2109 -11.5682C20.165 -11.6278 20.1268 -11.6774 20.1003 -11.712C20.087 -11.7293 20.0766 -11.7428 20.0696 -11.7519C20.0661 -11.7564 20.0635 -11.7599 20.0617 -11.7621C20.0609 -11.7632 20.0602 -11.7641 20.0598 -11.7646C20.0596 -11.7649 20.0595 -11.7651 20.0594 -11.7652C20.0593 -11.7652 20.0593 -11.7653 20.0593 -11.7653C20.0593 -11.7653 20.0593 -11.7653 20.0593 -11.7653C20.0593 -11.7653 20.0593 -11.7653 3.14553 1.23609C-13.7682 14.2375 -13.7682 14.2375 -13.7682 14.2375C-13.7682 14.2375 -13.7682 14.2376 -13.7681 14.2376C-13.7681 14.2376 -13.768 14.2377 -13.768 14.2378C-13.7678 14.238 -13.7676 14.2383 -13.7673 14.2387C-13.7668 14.2394 -13.766 14.2404 -13.7649 14.2417C-13.7629 14.2444 -13.76 14.2482 -13.7561 14.2532C-13.7485 14.2631 -13.7374 14.2775 -13.7234 14.2957C-13.6954 14.3322 -13.6555 14.3841 -13.6077 14.4463C-13.5122 14.5703 -13.3838 14.7372 -13.2541 14.9056C-13.1263 15.0715 -12.9894 15.2491 -12.8799 15.3906C-12.8277 15.4581 -12.7669 15.5365 -12.7119 15.6071C-12.6885 15.6371 -12.6395 15.6999 -12.583 15.7713C-12.5605 15.7997 -12.4935 15.8843 -12.4083 15.9892C-12.3712 16.0349 -12.2744 16.154 -12.1484 16.3034C-12.0876 16.3755 -11.9662 16.5185 -11.8092 16.6957C-11.7458 16.7673 -11.2961 17.2798 -10.6761 17.8798L18.9952 -12.7805ZM17.3875 -14.6472C13.219 -18.3849 7.7786 -20.3867 2.18156 -20.2421L3.28318 22.4103C-2.0097 22.547 -7.15442 20.654 -11.0964 17.1193L17.3875 -14.6472ZM2.18156 -20.2421C-3.41548 -20.0976 -8.74524 -17.8177 -12.7153 -13.8697L17.3705 16.3841C13.6162 20.1175 8.57607 22.2736 3.28318 22.4103L2.18156 -20.2421ZM-11.6709 -14.841L-12.2938 -14.2994L15.7032 17.8971L16.3261 17.3555L-11.6709 -14.841ZM-14.6975 -11.8422C-22.5294 -2.42501 -20.2834 8.16338 -18.469 12.8949C-16.5474 17.9059 -13.4203 21.7682 -10.7411 24.3665C-8.06061 26.966 -4.16208 29.9159 0.773481 31.6785C5.06523 33.2112 16.4058 35.7218 25.8764 26.772L-3.42854 -4.23867C4.43202 -11.6669 13.3956 -9.11967 15.1231 -8.50274C17.4944 -7.6559 18.6413 -6.57408 18.9625 -6.26263C19.2825 -5.95232 20.4425 -4.79793 21.3689 -2.38203C22.1881 -0.245745 24.4108 7.86012 18.1069 15.44L-14.6975 -11.8422ZM27.3377 25.2473L27.8312 24.6785L-4.39636 -3.28269L-4.88982 -2.71394L27.3377 25.2473ZM26.2143 26.3488C30.3926 22.4786 32.9022 17.1353 33.2127 11.4485L-9.39053 9.12266C-9.09725 3.75054 -6.72651 -1.297 -2.77949 -4.95299L26.2143 26.3488ZM33.2127 11.4485C33.5232 5.76154 31.6101 0.176806 27.8779 -4.12522L-4.35105 23.8343C-7.8766 19.7704 -9.6838 14.4948 -9.39053 9.12266L33.2127 11.4485Z" fill="#D9D9D9" mask="url(#path-1-inside-1_348_3536)"/>
</svg>
