<svg width="14" height="15" viewBox="0 0 14 15" fill="none" xmlns="http://www.w3.org/2000/svg">
<rect width="14" height="15" fill="#F5F5F5"/>
<g clip-path="url(#clip0_150_2868)">
<rect width="1440" height="2332" transform="translate(-121 -1058)" fill="black"/>
<g filter="url(#filter0_d_150_2868)">
<rect x="-21" y="-102" width="605" height="379" rx="12" fill="#262626" shape-rendering="crispEdges"/>
<circle cx="7" cy="8" r="12" fill="#595959"/>
<mask id="path-3-inside-1_150_2868" fill="white">
<path d="M10.433 0C9.53241 0 8.80253 0.729874 8.80253 1.63043C8.80253 2.531 9.53241 3.26087 10.433 3.26087C11.3335 3.26087 12.0634 2.531 12.0634 1.63043C12.0634 0.729874 11.3335 0 10.433 0ZM8.7312 3.58696C8.372 3.58696 8.03062 3.76529 7.83446 4.0659L5.30729 7.92799C5.20029 8.09868 5.20666 8.29611 5.28691 8.46807L4.42074 9.72147L3.35077 8.97758C2.92787 8.68461 2.34194 8.78906 2.04642 9.21196L0.20199 11.8512C0.0274824 12.1034 -0.0349326 12.4155 0.0185659 12.7174C0.069517 12.9989 0.22237 13.2358 0.446555 13.4103C0.688573 12.8117 1.27069 12.3913 1.95471 12.3913C2.38397 12.3913 2.77375 12.5569 3.06544 12.8295L5.84737 8.80435C6.0206 8.79034 6.18365 8.69735 6.28555 8.5394L8.25226 5.69633L7.87522 7.72418C7.7695 8.29356 7.86885 8.87441 8.16055 9.375L11.1769 14.6739C11.294 14.8752 11.5042 15 11.7373 15C12.2099 15 12.5283 14.516 12.3385 14.0829L10.0865 8.87568L10.7285 5.45177C10.9119 4.48242 10.1667 3.58696 9.17957 3.58696H8.7312ZM11.0036 5.75747L10.6673 7.52038L12.4914 9.00815C12.7181 9.19285 13.0569 9.16101 13.2455 8.93682C13.4365 8.71009 13.4009 8.37254 13.1741 8.18274L11.3093 6.61345L11.0036 5.75747ZM7.67142 9.38519L7.11096 11.3213L5.31748 14.0625C5.14679 14.3224 5.19774 14.6739 5.43976 14.8675C5.70598 15.0802 6.09194 15.028 6.29574 14.7554L8.20131 12.2181L8.68025 11.1481L7.67142 9.38519ZM1.95471 13.0435C1.4159 13.0435 0.976446 13.4829 0.976446 14.0217C0.976446 14.5605 1.4159 15 1.95471 15C2.49351 15 2.93297 14.5605 2.93297 14.0217C2.93297 13.4829 2.49351 13.0435 1.95471 13.0435Z"/>
</mask>
<path d="M10.433 0C9.53241 0 8.80253 0.729874 8.80253 1.63043C8.80253 2.531 9.53241 3.26087 10.433 3.26087C11.3335 3.26087 12.0634 2.531 12.0634 1.63043C12.0634 0.729874 11.3335 0 10.433 0ZM8.7312 3.58696C8.372 3.58696 8.03062 3.76529 7.83446 4.0659L5.30729 7.92799C5.20029 8.09868 5.20666 8.29611 5.28691 8.46807L4.42074 9.72147L3.35077 8.97758C2.92787 8.68461 2.34194 8.78906 2.04642 9.21196L0.20199 11.8512C0.0274824 12.1034 -0.0349326 12.4155 0.0185659 12.7174C0.069517 12.9989 0.22237 13.2358 0.446555 13.4103C0.688573 12.8117 1.27069 12.3913 1.95471 12.3913C2.38397 12.3913 2.77375 12.5569 3.06544 12.8295L5.84737 8.80435C6.0206 8.79034 6.18365 8.69735 6.28555 8.5394L8.25226 5.69633L7.87522 7.72418C7.7695 8.29356 7.86885 8.87441 8.16055 9.375L11.1769 14.6739C11.294 14.8752 11.5042 15 11.7373 15C12.2099 15 12.5283 14.516 12.3385 14.0829L10.0865 8.87568L10.7285 5.45177C10.9119 4.48242 10.1667 3.58696 9.17957 3.58696H8.7312ZM11.0036 5.75747L10.6673 7.52038L12.4914 9.00815C12.7181 9.19285 13.0569 9.16101 13.2455 8.93682C13.4365 8.71009 13.4009 8.37254 13.1741 8.18274L11.3093 6.61345L11.0036 5.75747ZM7.67142 9.38519L7.11096 11.3213L5.31748 14.0625C5.14679 14.3224 5.19774 14.6739 5.43976 14.8675C5.70598 15.0802 6.09194 15.028 6.29574 14.7554L8.20131 12.2181L8.68025 11.1481L7.67142 9.38519ZM1.95471 13.0435C1.4159 13.0435 0.976446 13.4829 0.976446 14.0217C0.976446 14.5605 1.4159 15 1.95471 15C2.49351 15 2.93297 14.5605 2.93297 14.0217C2.93297 13.4829 2.49351 13.0435 1.95471 13.0435Z" fill="#39537D" stroke="#D9D9D9" stroke-width="4" mask="url(#path-3-inside-1_150_2868)"/>
</g>
</g>
<defs>
<filter id="filter0_d_150_2868" x="-36" y="-115" width="635" height="409" filterUnits="userSpaceOnUse" color-interpolation-filters="sRGB">
<feFlood flood-opacity="0" result="BackgroundImageFix"/>
<feColorMatrix in="SourceAlpha" type="matrix" values="0 0 0 0 0 0 0 0 0 0 0 0 0 0 0 0 0 0 127 0" result="hardAlpha"/>
<feOffset dy="2"/>
<feGaussianBlur stdDeviation="7.5"/>
<feComposite in2="hardAlpha" operator="out"/>
<feColorMatrix type="matrix" values="0 0 0 0 0 0 0 0 0 0 0 0 0 0 0 0 0 0 0.1 0"/>
<feBlend mode="normal" in2="BackgroundImageFix" result="effect1_dropShadow_150_2868"/>
<feBlend mode="normal" in="SourceGraphic" in2="effect1_dropShadow_150_2868" result="shape"/>
</filter>
<clipPath id="clip0_150_2868">
<rect width="1440" height="2332" fill="white" transform="translate(-121 -1058)"/>
</clipPath>
</defs>
</svg>
