<svg xmlns:xlink="http://www.w3.org/1999/xlink" preserveAspectRatio="xMidYMid meet" data-bbox="0 1.669 19.999 17.498" xmlns="http://www.w3.org/2000/svg" viewBox="0 1.669 19.999 17.498" height="20" width="20" data-type="color" role="presentation" aria-hidden="true" aria-labelledby="comp-la3di5hy__item-la3dim8h-svgtitle_comp-la3di5hy__item-la3dim8h"><defs><style>#comp-la3di5hy__item-la3dim8h svg [data-color="1"] {fill: #546B91;}</style></defs><title id="comp-la3di5hy__item-la3dim8h-svgtitle_comp-la3di5hy__item-la3dim8h"></title>
    <g>
        <g clip-path="url(#76bffcf1-c289-42be-bfb0-60f5fc40bfb1_comp-la3di5hy__item-la3dim8h)">
            <path fill="#546B91" d="m10.047 9.342 6.699 5.599L12 18.5a3.333 3.333 0 0 1-4 0l-5.11-3.833a2.5 2.5 0 0 0-1.5-.5H.834A.834.834 0 0 1 0 13.333V4.114c0-.423.316-.776.737-.823 1.13-.126 2.149-.58 3.19-1.187 1.499-.77 3.465-.496 4.68.643l.515.495L5.782 6.5c-.894.893-1.036 2.306-.331 3.281.433.603 1.217 1.05 2.037 1.05.66 0 1.295-.26 1.753-.72l.806-.77Zm6.581-7.238c-1.408-.704-3.165-.52-4.423.457L6.952 7.687c-.309.31-.379.806-.15 1.123a.835.835 0 0 0 1.272.112l3.015-2.857c.791-.75 1.937.447 1.153 1.204l-.985.914 7.161 5.985h.748c.46 0 .833-.374.833-.834V4.086a.837.837 0 0 0-.7-.819c-1.412-.255-2.671-1.162-2.671-1.162Z" data-color="1"></path>
        </g>
        <defs fill="none">
            <clipPath id="76bffcf1-c289-42be-bfb0-60f5fc40bfb1_comp-la3di5hy__item-la3dim8h">
                <path fill="#ffffff" d="M20 0v20H0V0h20z"></path>
            </clipPath>
        </defs>
    </g>
</svg>