<svg xmlns:xlink="http://www.w3.org/1999/xlink" preserveAspectRatio="xMidYMid meet" data-bbox="0 0 19.982 19.999" xmlns="http://www.w3.org/2000/svg" viewBox="0 0 19.982 19.999" height="20" width="20" data-type="color" role="presentation" aria-hidden="true"><defs><style>#comp-la3di5hy__item-j9plerjk svg [data-color="1"] {fill: #546B91;}</style></defs>
    <g>
        <g clip-path="url(#de09a934-8104-484b-91c7-7557bdbe3cf8_comp-la3di5hy__item-j9plerjk)">
            <path fill="#546B91" d="M3.336 1.04A.976.976 0 0 1 4.373.002C8.114.266 9.8 2.003 10 5.833c.2-3.83 1.886-5.567 5.627-5.83a.977.977 0 0 1 1.037 1.037c-.263 3.74-2.006 5.405-5.835 5.606 0 .007.004.014.004.021v1.667c-.004 1.09-1.662 1.09-1.666 0V6.667c0-.007.004-.014.004-.021C5.34 6.445 3.599 4.78 3.336 1.04Zm16.2 10.008a2.506 2.506 0 0 0-1.835-1.04 2.462 2.462 0 0 0-1.943.7l-1.622 1.488c.237 1.929-1.374 3.65-3.303 3.637H7.5c-1.09-.004-1.09-1.662 0-1.666h3.333c2.191-.04 2.19-3.294 0-3.334h-3.26c-2.448 0-4.75.954-6.497 2.7l-.848.893a.835.835 0 0 0-.228.573v4.167c0 .46.372.833.833.833h8.6a9.152 9.152 0 0 0 6.174-2.39l3.598-3.279c.892-.894 1.034-2.305.33-3.283l.002.001Z" data-color="1"></path>
        </g>
        <defs fill="none">
            <clipPath id="de09a934-8104-484b-91c7-7557bdbe3cf8_comp-la3di5hy__item-j9plerjk">
                <path fill="#ffffff" d="M20 0v20H0V0h20z"></path>
            </clipPath>
        </defs>
    </g>
</svg>