<svg width="15" height="14" viewBox="0 0 15 14" fill="none" xmlns="http://www.w3.org/2000/svg">
<path d="M7.50467 14.0019C7.227 14.0019 6.94758 13.9025 6.72475 13.702L4.53842 11.8343H2.83333C1.5465 11.8343 0.5 10.773 0.5 9.46794V2.36826C0.499417 1.06321 1.54592 0.00189209 2.83275 0.00189209H12.1661C13.4529 0.00189209 14.4994 1.06321 14.4994 2.36826V9.46735C14.4994 10.7724 13.4529 11.8337 12.1661 11.8337H10.5024L8.25833 13.715C8.04717 13.9055 7.77708 14.0013 7.50408 14.0013L7.50467 14.0019ZM2.83275 1.18507C2.18933 1.18507 1.66608 1.71573 1.66608 2.36826V9.46735C1.66608 10.1199 2.18933 10.6505 2.83275 10.6505H4.75133C4.889 10.6505 5.022 10.6996 5.12758 10.7896L7.48833 12.8069L9.92083 10.786C10.0258 10.6984 10.1571 10.6505 10.293 10.6505H12.1667C12.8101 10.6505 13.3333 10.1199 13.3333 9.46735V2.36826C13.3333 1.71573 12.8101 1.18507 12.1667 1.18507H2.83275Z" fill="white"/>
</svg>
