<svg width="20" height="20" viewBox="0 0 20 20" fill="none" xmlns="http://www.w3.org/2000/svg">
<mask id="path-1-inside-1_1854_18197" fill="white">
<path d="M19.7807 8.55301L11.7155 1.17826C11.6168 1.08901 11.4944 1.03021 11.363 1.0089C11.2317 0.987601 11.0969 1.00471 10.9751 1.05819C10.8519 1.11191 10.7469 1.19988 10.6723 1.31165C10.5978 1.42342 10.557 1.55429 10.5548 1.6886V4.37032C9.17573 4.2911 7.79524 4.49824 6.50019 4.97872C5.20514 5.45919 4.02359 6.20261 3.02994 7.16213C1.59575 8.59423 0.61469 10.4167 0.208998 12.4024C-0.196694 14.3882 -0.00908304 16.4494 0.748469 18.3293C0.800914 18.457 0.88942 18.5666 1.00315 18.6448C1.11688 18.723 1.25092 18.7664 1.3889 18.7696C1.52718 18.7676 1.66177 18.7248 1.77574 18.6464C1.88971 18.5681 1.97794 18.4577 2.02929 18.3293C3.85046 13.7364 7.10255 13.6363 10.5548 13.5862V16.4381C10.5557 16.5727 10.5961 16.7041 10.6707 16.8161C10.7454 16.9281 10.8512 17.0158 10.9751 17.0685C11.0961 17.126 11.2318 17.1452 11.364 17.1238C11.4963 17.1024 11.6188 17.0412 11.7155 16.9484L19.7807 9.57368C19.8498 9.50996 19.905 9.4326 19.9428 9.34649C19.9805 9.26037 20 9.16738 20 9.07336C20 8.97934 19.9805 8.88632 19.9428 8.80021C19.905 8.71409 19.8498 8.63676 19.7807 8.57304V8.55301ZM11.7756 12.3855C11.7126 12.3167 11.6349 12.2629 11.5483 12.2283C11.4616 12.1936 11.3683 12.1789 11.2752 12.1854H10.7249C7.35272 12.2354 3.86046 12.2854 1.57899 16.1879C1.30536 14.7532 1.38761 13.2733 1.81849 11.8777C2.24937 10.4822 3.01575 9.2135 4.05058 8.18277C4.85979 7.39235 5.82007 6.77318 6.87399 6.36227C7.92792 5.95136 9.05386 5.75716 10.1845 5.79125C10.5187 5.78967 10.8528 5.80636 11.1852 5.84127C11.3784 5.85089 11.5681 5.78648 11.7155 5.66116C11.7864 5.59612 11.8434 5.51735 11.883 5.42963C11.9225 5.3419 11.9439 5.24704 11.9457 5.15082V3.29963L18.2898 9.10338L11.9457 14.9071V12.9058C11.9478 12.8094 11.9303 12.7135 11.8942 12.624C11.858 12.5346 11.8041 12.4534 11.7356 12.3855H11.7756Z"/>
</mask>
<path d="M19.7807 8.55301L11.7155 1.17826C11.6168 1.08901 11.4944 1.03021 11.363 1.0089C11.2317 0.987601 11.0969 1.00471 10.9751 1.05819C10.8519 1.11191 10.7469 1.19988 10.6723 1.31165C10.5978 1.42342 10.557 1.55429 10.5548 1.6886V4.37032C9.17573 4.2911 7.79524 4.49824 6.50019 4.97872C5.20514 5.45919 4.02359 6.20261 3.02994 7.16213C1.59575 8.59423 0.61469 10.4167 0.208998 12.4024C-0.196694 14.3882 -0.00908304 16.4494 0.748469 18.3293C0.800914 18.457 0.88942 18.5666 1.00315 18.6448C1.11688 18.723 1.25092 18.7664 1.3889 18.7696C1.52718 18.7676 1.66177 18.7248 1.77574 18.6464C1.88971 18.5681 1.97794 18.4577 2.02929 18.3293C3.85046 13.7364 7.10255 13.6363 10.5548 13.5862V16.4381C10.5557 16.5727 10.5961 16.7041 10.6707 16.8161C10.7454 16.9281 10.8512 17.0158 10.9751 17.0685C11.0961 17.126 11.2318 17.1452 11.364 17.1238C11.4963 17.1024 11.6188 17.0412 11.7155 16.9484L19.7807 9.57368C19.8498 9.50996 19.905 9.4326 19.9428 9.34649C19.9805 9.26037 20 9.16738 20 9.07336C20 8.97934 19.9805 8.88632 19.9428 8.80021C19.905 8.71409 19.8498 8.63676 19.7807 8.57304V8.55301ZM11.7756 12.3855C11.7126 12.3167 11.6349 12.2629 11.5483 12.2283C11.4616 12.1936 11.3683 12.1789 11.2752 12.1854H10.7249C7.35272 12.2354 3.86046 12.2854 1.57899 16.1879C1.30536 14.7532 1.38761 13.2733 1.81849 11.8777C2.24937 10.4822 3.01575 9.2135 4.05058 8.18277C4.85979 7.39235 5.82007 6.77318 6.87399 6.36227C7.92792 5.95136 9.05386 5.75716 10.1845 5.79125C10.5187 5.78967 10.8528 5.80636 11.1852 5.84127C11.3784 5.85089 11.5681 5.78648 11.7155 5.66116C11.7864 5.59612 11.8434 5.51735 11.883 5.42963C11.9225 5.3419 11.9439 5.24704 11.9457 5.15082V3.29963L18.2898 9.10338L11.9457 14.9071V12.9058C11.9478 12.8094 11.9303 12.7135 11.8942 12.624C11.858 12.5346 11.8041 12.4534 11.7356 12.3855H11.7756Z" fill="#141414" stroke="white" stroke-width="2" mask="url(#path-1-inside-1_1854_18197)"/>
</svg>
