<svg width="14" height="15" viewBox="0 0 14 15" fill="none" xmlns="http://www.w3.org/2000/svg">
<path d="M8.67124 4.61344L8.67193 4.61238C8.67395 4.60928 8.67916 4.60301 8.69058 4.59695C8.70238 4.59069 8.71671 4.58696 8.7312 4.58696H9.17957C9.54313 4.58696 9.81221 4.91552 9.74592 5.26584L9.74561 5.26748L9.10363 8.69139L9.05865 8.9313L9.02961 8.8803L9.02966 8.88028L9.02457 8.87154C8.85447 8.57963 8.79612 8.24255 8.85837 7.90698C8.85839 7.9069 8.8584 7.90683 8.85842 7.90675L9.23541 5.87913L8.14114 5.42355L8.67124 4.61344ZM3.56658 10.3456L2.75741 11.5163C2.50423 11.4351 2.23445 11.3913 1.95471 11.3913C1.88144 11.3913 1.8089 11.3943 1.73721 11.4002L2.8314 9.83443L3.56658 10.3456ZM11.0634 1.63043C11.0634 1.85063 10.9506 2.04439 10.7796 2.15713L10.7097 1.96132L10.6606 2.21853C10.59 2.24587 10.5133 2.26087 10.433 2.26087C10.0847 2.26087 9.80253 1.97871 9.80253 1.63043C9.80253 1.28216 10.0847 1 10.433 1C10.7812 1 11.0634 1.28216 11.0634 1.63043ZM1.97645 14.0217C1.97645 14.0241 1.97577 14.0282 1.97413 14.0321C1.97277 14.0353 1.97139 14.0369 1.97063 14.0377C1.96987 14.0384 1.96825 14.0398 1.96506 14.0412C1.96117 14.0428 1.95706 14.0435 1.95471 14.0435C1.95236 14.0435 1.94824 14.0428 1.94436 14.0412C1.94116 14.0398 1.93954 14.0384 1.93878 14.0377C1.93802 14.0369 1.93664 14.0353 1.93529 14.0321C1.93364 14.0282 1.93297 14.0241 1.93297 14.0217C1.93297 14.0194 1.93364 14.0153 1.93529 14.0114C1.93664 14.0082 1.93802 14.0066 1.93878 14.0058C1.93954 14.0051 1.94116 14.0037 1.94436 14.0023C1.94824 14.0007 1.95236 14 1.95471 14C1.95706 14 1.96117 14.0007 1.96506 14.0023C1.96825 14.0037 1.96987 14.0051 1.97063 14.0058C1.97139 14.0066 1.97277 14.0082 1.97413 14.0114C1.97577 14.0153 1.97645 14.0194 1.97645 14.0217Z" fill="#39537D" stroke="#D9D9D9" stroke-width="2"/>
</svg>
