<svg width="4" height="20" viewBox="0 0 4 20" fill="none" xmlns="http://www.w3.org/2000/svg">
<path d="M1.66667 3.33333C2.58714 3.33333 3.33333 2.58714 3.33333 1.66667C3.33333 0.746192 2.58714 0 1.66667 0C0.746192 0 0 0.746192 0 1.66667C0 2.58714 0.746192 3.33333 1.66667 3.33333Z" fill="white"/>
<path d="M1.66667 11.6668C2.58714 11.6668 3.33333 10.9206 3.33333 10.0002C3.33333 9.07969 2.58714 8.3335 1.66667 8.3335C0.746192 8.3335 0 9.07969 0 10.0002C0 10.9206 0.746192 11.6668 1.66667 11.6668Z" fill="white"/>
<path d="M1.66667 19.9998C2.58714 19.9998 3.33333 19.2536 3.33333 18.3332C3.33333 17.4127 2.58714 16.6665 1.66667 16.6665C0.746192 16.6665 0 17.4127 0 18.3332C0 19.2536 0.746192 19.9998 1.66667 19.9998Z" fill="white"/>
</svg>
