<svg xmlns:xlink="http://www.w3.org/1999/xlink" preserveAspectRatio="xMidYMid meet" data-bbox="0 -0.006 20 20.007" xmlns="http://www.w3.org/2000/svg" viewBox="0 -0.006 20 20.007" height="20" width="20" data-type="color" role="presentation" aria-hidden="true" aria-labelledby="comp-la3di5hy__item1-svgtitle_comp-la3di5hy__item1"><defs><style>#comp-la3di5hy__item1 svg [data-color="1"] {fill: #546B91;}</style></defs><title id="comp-la3di5hy__item1-svgtitle_comp-la3di5hy__item1"></title>
    <g>
        <g clip-path="url(#43e9ec0c-2504-4448-aafc-e188c53cf608_comp-la3di5hy__item1)">
            <path fill="#546B91" d="M19.167 16.667h-6.82a2.5 2.5 0 0 0-1.514-1.514v-3.47c1.12 0 2.1-.01 2.584-.019a4.126 4.126 0 0 0 3.97-3.193 4.177 4.177 0 0 0-2.966-5l-.147-.035c-.25-.056-.376-.083-.49-.357a5 5 0 0 0-9.472.713 5.307 5.307 0 0 0-.047 2.277 2.917 2.917 0 0 0 .373 5.49c.227.063.46.099.695.108.545.015 2.124.021 3.768.021h.066v3.468a2.499 2.499 0 0 0-1.514 1.51H.833a.833.833 0 1 0 0 1.667h6.82a2.485 2.485 0 0 0 4.694 0h6.82a.833.833 0 0 0 0-1.666Z" data-color="1"></path>
        </g>
        <defs fill="none">
            <clipPath id="43e9ec0c-2504-4448-aafc-e188c53cf608_comp-la3di5hy__item1">
                <path fill="#ffffff" d="M20 0v20H0V0h20z"></path>
            </clipPath>
        </defs>
    </g>
</svg>