<svg width="20" height="21" viewBox="0 0 20 21" fill="none" xmlns="http://www.w3.org/2000/svg">
<g clip-path="url(#clip0_4769_2514)">
<path d="M18.7961 11.8851L17.2127 6.1884C16.7486 4.51951 15.74 3.05364 14.3472 2.02379C12.9543 0.993945 11.2572 0.459223 9.52562 0.504623C7.79399 0.550023 6.12724 1.17294 4.79028 2.27436C3.45333 3.37578 2.5229 4.89249 2.1469 6.5834L0.921062 12.0959C0.785659 12.705 0.788789 13.3368 0.930223 13.9445C1.07166 14.5522 1.34778 15.1205 1.73821 15.6072C2.12865 16.0939 2.62341 16.4868 3.18599 16.7567C3.74856 17.0266 4.36458 17.1668 4.98856 17.1667H5.9169C6.10816 18.1086 6.61917 18.9555 7.36335 19.5637C8.10752 20.172 9.0391 20.5042 10.0002 20.5042C10.9614 20.5042 11.8929 20.172 12.6371 19.5637C13.3813 18.9555 13.8923 18.1086 14.0836 17.1667H14.7819C15.4242 17.1668 16.0579 17.0183 16.6334 16.7329C17.2088 16.4476 17.7105 16.033 18.0992 15.5216C18.488 15.0103 18.7532 14.4159 18.8742 13.7851C18.9953 13.1543 18.9688 12.504 18.7969 11.8851H18.7961ZM10.0002 18.8334C9.48501 18.8313 8.98304 18.67 8.56298 18.3717C8.14292 18.0733 7.8253 17.6525 7.65356 17.1667H12.3469C12.1752 17.6525 11.8575 18.0733 11.4375 18.3717C11.0174 18.67 10.5154 18.8313 10.0002 18.8334ZM16.7719 14.5126C16.5397 14.8206 16.2388 15.0703 15.8932 15.2417C15.5476 15.4131 15.1668 15.5016 14.7811 15.5001H4.98856C4.61422 15.5 4.24466 15.4159 3.90718 15.2539C3.5697 15.0919 3.2729 14.8562 3.0387 14.5641C2.80449 14.2721 2.63886 13.9312 2.55403 13.5666C2.4692 13.202 2.46733 12.823 2.54856 12.4576L3.77356 6.94423C4.06886 5.61607 4.79965 4.42474 5.84978 3.55961C6.8999 2.69448 8.20908 2.20521 9.56921 2.16958C10.9293 2.13395 12.2623 2.554 13.3563 3.36296C14.4503 4.17192 15.2425 5.32336 15.6069 6.63423L17.1902 12.3309C17.2948 12.702 17.3115 13.0925 17.2389 13.4712C17.1663 13.8499 17.0064 14.2064 16.7719 14.5126Z" fill="white"/>
</g>
<defs>
<clipPath id="clip0_4769_2514">
<rect width="20" height="20" fill="white" transform="translate(0 0.5)"/>
</clipPath>
</defs>
</svg>
