<svg width="27" height="27" viewBox="0 0 27 27" fill="none" xmlns="http://www.w3.org/2000/svg">
<path d="M25.3998 9.10868C24.2181 5.99545 21.8437 3.47561 18.7972 2.10183C15.7508 0.728051 12.2812 0.612493 9.14924 1.7805C8.74327 1.94165 8.34681 2.12556 7.96177 2.33136L8.87315 3.9057C9.17324 3.74757 9.48141 3.60511 9.79641 3.47889C11.7942 2.73069 13.9702 2.58875 16.0491 3.07103C18.128 3.55332 20.0165 4.63816 21.4757 6.18836C22.9349 7.73856 23.8993 9.68449 24.247 11.78C24.5946 13.8756 24.3098 16.0267 23.4287 17.9612C22.5476 19.8958 21.1097 21.5269 19.2968 22.6483C17.4839 23.7697 15.3775 24.331 13.244 24.2613C11.1105 24.1915 9.04567 23.4938 7.31069 22.2565C5.5757 21.0191 4.24848 19.2976 3.49686 17.3097C2.68196 15.1564 2.59438 12.535 3.34843 10.5368C3.36258 10.4961 3.37893 10.4561 3.39742 10.4172C3.63177 9.84359 3.95315 9.30915 4.35036 8.83251L4.39935 8.77639C5.06019 8.00589 5.91525 7.42428 6.87671 7.09129C8.25863 6.61131 9.63759 6.76785 10.3916 7.49004C11.1457 8.21223 11.1561 9.4203 10.7746 11.0345L8.29871 20.7345C8.49897 20.8558 8.71201 20.9549 8.93401 21.0299C9.17739 21.1128 9.42515 21.1823 9.67618 21.2381C9.92685 21.2916 10.1807 21.3291 10.4362 21.3504C10.687 21.3725 10.9156 21.3814 11.1234 21.3814C12.3871 21.3814 13.4885 21.1707 14.4276 20.7493C15.3021 20.371 16.087 19.8139 16.7312 19.1142C17.3753 18.4145 17.8644 17.5879 18.1666 16.6879C18.471 15.7962 18.6254 14.8606 18.6238 13.9188C18.6276 13.4062 18.554 12.8959 18.4056 12.405C18.2732 11.9606 18.0499 11.5483 17.7495 11.194C17.4452 10.8453 17.0636 10.5717 16.6348 10.395C16.136 10.1909 15.6006 10.0904 15.0614 10.0997C14.6076 10.0962 14.1564 10.1665 13.7255 10.3079C13.3567 10.4309 13.0008 10.5892 12.6627 10.7805C12.7376 10.4089 12.7848 10.0322 12.8037 9.65365C12.8044 9.64974 12.8044 9.64573 12.8037 9.64183C12.8957 7.78394 12.1743 6.74127 11.6162 6.20813C10.3605 5.00448 8.31207 4.69877 6.27258 5.40914C4.99799 5.86416 3.8672 6.64684 2.99516 7.6776L2.96547 7.7101C2.92985 7.74997 2.89719 7.78985 2.86454 7.8312C0.721149 10.2355 0.51779 14.6248 1.77503 17.9477C2.96557 21.047 5.34094 23.5514 8.38188 24.9132C11.4228 26.2751 14.882 26.3838 18.0032 25.2154C21.1244 24.0471 23.6538 21.6968 25.0384 18.6783C26.4231 15.6599 26.5503 12.2188 25.3924 9.10721L25.3998 9.10868ZM12.1966 12.5675C12.5493 12.3092 12.9378 12.1033 13.3499 11.9561C13.7485 11.8135 14.1688 11.7401 14.5923 11.739C14.946 11.7268 15.298 11.7934 15.6224 11.9339C15.8791 12.0538 16.1011 12.2362 16.2681 12.4641C16.4316 12.6938 16.5453 12.9549 16.6021 13.2306C16.6648 13.5219 16.6966 13.8189 16.6971 14.1167C16.6992 14.8335 16.5756 15.5452 16.332 16.2198C16.0993 16.8712 15.7498 17.4752 15.3003 18.0023C14.8505 18.5242 14.2971 18.9481 13.675 19.2473C13.0051 19.5648 12.2706 19.7245 11.5286 19.714C11.3472 19.7137 11.1661 19.6994 10.9868 19.6712C10.8072 19.6446 10.6469 19.6166 10.5089 19.5885L12.1966 12.5675Z" fill="#F7F8FB"/>
</svg>
