<svg width="18" height="18" viewBox="0 0 18 18" fill="none" xmlns="http://www.w3.org/2000/svg">
<path d="M16.071 0.514719L8.99998 7.58579L1.92891 0.514719C1.74138 0.327182 1.48702 0.221826 1.22181 0.221826C0.95659 0.221826 0.702237 0.327182 0.5147 0.514719C0.327164 0.702255 0.221808 0.956608 0.221808 1.22182C0.221808 1.48704 0.327164 1.7414 0.5147 1.92893L7.58577 9L0.5147 16.0711C0.327164 16.2586 0.221808 16.513 0.221808 16.7782C0.221808 17.0434 0.327164 17.2977 0.5147 17.4853C0.702237 17.6728 0.95659 17.7782 1.22181 17.7782C1.48702 17.7782 1.74138 17.6728 1.92891 17.4853L8.99998 10.4142L16.071 17.4853C16.2586 17.6728 16.5129 17.7782 16.7782 17.7782C17.0434 17.7782 17.2977 17.6728 17.4853 17.4853C17.6728 17.2977 17.7782 17.0434 17.7782 16.7782C17.7782 16.513 17.6728 16.2586 17.4853 16.0711L10.4142 9L17.4853 1.92893C17.6728 1.7414 17.7782 1.48704 17.7782 1.22182C17.7782 0.956609 17.6728 0.702255 17.4853 0.514719C17.2977 0.327183 17.0434 0.221826 16.7782 0.221826C16.5129 0.221826 16.2586 0.327182 16.071 0.514719Z" fill="white"/>
</svg>
