<svg width="20" height="20" viewBox="0 0 20 20" fill="none" xmlns="http://www.w3.org/2000/svg">
<path d="M15.8333 2.49994H13.3333C13.205 2.49994 13.075 2.46994 12.9608 2.41244L10.3308 1.09744C9.985 0.92494 9.59917 0.834106 9.21333 0.834106H7.5C5.2025 0.834106 3.33333 2.70327 3.33333 5.00077V11.6666C3.33333 13.9641 5.2025 15.8333 7.5 15.8333H15.8333C18.1308 15.8333 20 13.9641 20 11.6666V6.66661C20 4.36911 18.1308 2.49994 15.8333 2.49994ZM7.5 2.49994H9.21333C9.34167 2.49994 9.47167 2.52994 9.58583 2.58744L12.215 3.90244C12.56 4.07494 12.9467 4.16577 13.3333 4.16577H15.8333C16.92 4.16577 17.8458 4.86244 18.19 5.83244H5V4.99911C5 3.62077 6.12167 2.49911 7.5 2.49911V2.49994ZM15.8333 14.1666H7.5C6.12167 14.1666 5 13.0449 5 11.6666V7.49994H18.3333V11.6666C18.3333 13.0449 17.2117 14.1666 15.8333 14.1666ZM16.6667 18.3333C16.6667 18.7941 16.2942 19.1666 15.8333 19.1666H4.16667C1.86917 19.1666 0 17.2974 0 14.9999V6.66661C0 6.20577 0.373333 5.83327 0.833333 5.83327C1.29333 5.83327 1.66667 6.20577 1.66667 6.66661V14.9999C1.66667 16.3783 2.78833 17.4999 4.16667 17.4999H15.8333C16.2942 17.4999 16.6667 17.8724 16.6667 18.3333Z" fill="#8C8C8C"/>
</svg>
