<svg width="14" height="14" viewBox="0 0 14 14" fill="none" xmlns="http://www.w3.org/2000/svg">
<g clip-path="url(#clip0_348_3831)">
<mask id="path-1-inside-1_348_3831" fill="white">
<path d="M11.0836 0.583496H2.91691C2.14365 0.584422 1.40232 0.892011 0.855539 1.43879C0.308759 1.98557 0.00117039 2.7269 0.000244141 3.50016L0.000244141 10.5002C0.00117039 11.2734 0.308759 12.0148 0.855539 12.5615C1.40232 13.1083 2.14365 13.4159 2.91691 13.4168H11.0836C11.8568 13.4159 12.5982 13.1083 13.1449 12.5615C13.6917 12.0148 13.9993 11.2734 14.0002 10.5002V3.50016C13.9993 2.7269 13.6917 1.98557 13.1449 1.43879C12.5982 0.892011 11.8568 0.584422 11.0836 0.583496ZM2.91691 1.75016H11.0836C11.4329 1.75085 11.774 1.85605 12.063 2.05222C12.352 2.24838 12.5757 2.52655 12.7052 2.85091L8.23808 7.31866C7.90933 7.6461 7.46424 7.82994 7.00024 7.82994C6.53625 7.82994 6.09116 7.6461 5.76241 7.31866L1.29524 2.85091C1.42483 2.52655 1.64852 2.24838 1.93752 2.05222C2.22652 1.85605 2.56762 1.75085 2.91691 1.75016ZM11.0836 12.2502H2.91691C2.45278 12.2502 2.00766 12.0658 1.67947 11.7376C1.35129 11.4094 1.16691 10.9643 1.16691 10.5002V4.37516L4.93758 8.1435C5.48511 8.68965 6.22689 8.99635 7.00024 8.99635C7.77359 8.99635 8.51538 8.68965 9.06291 8.1435L12.8336 4.37516V10.5002C12.8336 10.9643 12.6492 11.4094 12.321 11.7376C11.9928 12.0658 11.5477 12.2502 11.0836 12.2502Z"/>
</mask>
<path d="M11.0836 0.583496H2.91691C2.14365 0.584422 1.40232 0.892011 0.855539 1.43879C0.308759 1.98557 0.00117039 2.7269 0.000244141 3.50016L0.000244141 10.5002C0.00117039 11.2734 0.308759 12.0148 0.855539 12.5615C1.40232 13.1083 2.14365 13.4159 2.91691 13.4168H11.0836C11.8568 13.4159 12.5982 13.1083 13.1449 12.5615C13.6917 12.0148 13.9993 11.2734 14.0002 10.5002V3.50016C13.9993 2.7269 13.6917 1.98557 13.1449 1.43879C12.5982 0.892011 11.8568 0.584422 11.0836 0.583496ZM2.91691 1.75016H11.0836C11.4329 1.75085 11.774 1.85605 12.063 2.05222C12.352 2.24838 12.5757 2.52655 12.7052 2.85091L8.23808 7.31866C7.90933 7.6461 7.46424 7.82994 7.00024 7.82994C6.53625 7.82994 6.09116 7.6461 5.76241 7.31866L1.29524 2.85091C1.42483 2.52655 1.64852 2.24838 1.93752 2.05222C2.22652 1.85605 2.56762 1.75085 2.91691 1.75016ZM11.0836 12.2502H2.91691C2.45278 12.2502 2.00766 12.0658 1.67947 11.7376C1.35129 11.4094 1.16691 10.9643 1.16691 10.5002V4.37516L4.93758 8.1435C5.48511 8.68965 6.22689 8.99635 7.00024 8.99635C7.77359 8.99635 8.51538 8.68965 9.06291 8.1435L12.8336 4.37516V10.5002C12.8336 10.9643 12.6492 11.4094 12.321 11.7376C11.9928 12.0658 11.5477 12.2502 11.0836 12.2502Z" fill="#D9D9D9"/>
<path d="M2.91691 0.583496V-20.7498H2.90413L2.89136 -20.7498L2.91691 0.583496ZM0.000244141 3.50016L-21.3331 3.47461L-21.3331 3.48739V3.50016L0.000244141 3.50016ZM0.000244141 10.5002H-21.3331V10.5129L-21.3331 10.5257L0.000244141 10.5002ZM2.91691 13.4168L2.89136 34.7501L2.90413 34.7502H2.91691V13.4168ZM11.0836 13.4168V34.7502H11.0964L11.1091 34.7501L11.0836 13.4168ZM14.0002 10.5002L35.3336 10.5257L35.3336 10.5129V10.5002H14.0002ZM14.0002 3.50016H35.3336V3.48739L35.3336 3.47461L14.0002 3.50016ZM11.0836 1.75016L11.1255 -19.5831L11.1046 -19.5832H11.0836V1.75016ZM12.7052 2.85091L27.7912 17.9349L37.7322 7.99255L32.5161 -5.06371L12.7052 2.85091ZM8.23808 7.31866L23.2927 22.4338L23.3084 22.4182L23.324 22.4026L8.23808 7.31866ZM5.76241 7.31866L-9.32352 22.4026L-9.3079 22.4182L-9.29224 22.4338L5.76241 7.31866ZM1.29524 2.85091L-18.5156 -5.06371L-23.7317 7.99255L-13.7907 17.9349L1.29524 2.85091ZM2.91691 1.75016V-19.5832H2.89593L2.87495 -19.5831L2.91691 1.75016ZM11.0836 12.2502V33.5835V12.2502ZM2.91691 12.2502V33.5835V12.2502ZM1.16691 10.5002H-20.1664H1.16691ZM1.16691 4.37516L16.2472 -10.7144L-20.1664 -47.1055V4.37516H1.16691ZM4.93758 8.1435L-10.1427 23.2331L-10.1355 23.2403L-10.1283 23.2475L4.93758 8.1435ZM7.00024 8.99635V-12.337V8.99635ZM9.06291 8.1435L24.1288 23.2475L24.136 23.2403L24.1432 23.2331L9.06291 8.1435ZM12.8336 4.37516H34.1669V-47.1055L-2.2467 -10.7144L12.8336 4.37516ZM12.8336 10.5002H34.1669H12.8336ZM11.0836 -20.7498H2.91691V21.9168H11.0836V-20.7498ZM2.89136 -20.7498C-3.531 -20.7421 -9.68811 -18.1874 -14.2294 -13.6462L15.9405 16.5237C12.4928 19.9715 7.8183 21.911 2.94246 21.9168L2.89136 -20.7498ZM-14.2294 -13.6462C-18.7707 -9.10486 -21.3254 -2.94775 -21.3331 3.47461L21.3336 3.52572C21.3277 8.40155 19.3882 13.076 15.9405 16.5237L-14.2294 -13.6462ZM-21.3331 3.50016V10.5002H21.3336V3.50016L-21.3331 3.50016ZM-21.3331 10.5257C-21.3254 16.9481 -18.7707 23.1052 -14.2294 27.6465L15.9405 -2.52341C19.3882 0.924329 21.3277 5.59878 21.3336 10.4746L-21.3331 10.5257ZM-14.2294 27.6465C-9.6881 32.1878 -3.53099 34.7425 2.89136 34.7501L2.94246 -7.91649C7.81828 -7.91065 12.4927 -5.97115 15.9405 -2.52341L-14.2294 27.6465ZM2.91691 34.7502H11.0836V-7.9165H2.91691V34.7502ZM11.1091 34.7501C17.5315 34.7425 23.6886 32.1878 28.2299 27.6465L-1.94 -2.52341C1.50775 -5.97115 6.18221 -7.91065 11.058 -7.91649L11.1091 34.7501ZM28.2299 27.6465C32.7712 23.1052 35.3259 16.9481 35.3336 10.5257L-7.33308 10.4746C-7.32723 5.59879 -5.38774 0.924336 -1.94 -2.52341L28.2299 27.6465ZM35.3336 10.5002V3.50016H-7.33309V10.5002H35.3336ZM35.3336 3.47461C35.3259 -2.94774 32.7712 -9.10485 28.2299 -13.6462L-1.94 16.5237C-5.38774 13.076 -7.32723 8.40154 -7.33308 3.52572L35.3336 3.47461ZM28.2299 -13.6462C23.6886 -18.1875 17.5315 -20.7421 11.1091 -20.7498L11.058 21.9168C6.1822 21.911 1.50774 19.9715 -1.94 16.5237L28.2299 -13.6462ZM2.91691 23.0835H11.0836V-19.5832H2.91691V23.0835ZM11.0416 23.0835C7.13288 23.0758 3.31587 21.8986 0.081784 19.7033L24.0441 -15.5989C20.2321 -18.1865 15.7329 -19.5741 11.1255 -19.5831L11.0416 23.0835ZM0.081784 19.7033C-3.1523 17.5081 -5.65547 14.3953 -7.10561 10.7655L32.5161 -5.06371C30.8068 -9.34223 27.8562 -13.0114 24.0441 -15.5989L0.081784 19.7033ZM-2.38069 -12.233L-6.84785 -7.7653L23.324 22.4026L27.7912 17.9349L-2.38069 -12.233ZM-6.81657 -7.79652C-3.14704 -11.4514 1.82111 -13.5034 7.00024 -13.5034V29.1633C13.1074 29.1633 18.9657 26.7435 23.2927 22.4338L-6.81657 -7.79652ZM7.00024 -13.5034C12.1794 -13.5034 17.1475 -11.4514 20.8171 -7.79652L-9.29224 22.4338C-4.96521 26.7435 0.893121 29.1633 7.00024 29.1633V-13.5034ZM20.8483 -7.7653L16.3812 -12.233L-13.7907 17.9349L-9.32352 22.4026L20.8483 -7.7653ZM21.1061 10.7655C19.656 14.3953 17.1528 17.5081 13.9187 19.7033L-10.0437 -15.5989C-13.8558 -13.0114 -16.8063 -9.34223 -18.5156 -5.06371L21.1061 10.7655ZM13.9187 19.7033C10.6846 21.8986 6.86761 23.0758 2.95887 23.0835L2.87495 -19.5831C-1.73237 -19.5741 -6.23157 -18.1865 -10.0437 -15.5989L13.9187 19.7033ZM11.0836 -9.08317H2.91691V33.5835H11.0836V-9.08317ZM2.91691 -9.08317C8.11073 -9.08317 13.0918 -7.01994 16.7644 -3.34734L-13.4055 26.8225C-9.0765 31.1515 -3.20516 33.5835 2.91691 33.5835V-9.08317ZM16.7644 -3.34734C20.437 0.325245 22.5002 5.30634 22.5002 10.5002H-20.1664C-20.1664 16.6222 -17.7344 22.4936 -13.4055 26.8225L16.7644 -3.34734ZM22.5002 10.5002V4.37516H-20.1664V10.5002H22.5002ZM-13.9134 19.4648L-10.1427 23.2331L20.0179 -6.94612L16.2472 -10.7144L-13.9134 19.4648ZM-10.1283 23.2475C-5.58152 27.7828 0.578301 30.3297 7.00024 30.3297V-12.337C11.8755 -12.337 16.5517 -10.4035 20.0034 -6.96053L-10.1283 23.2475ZM7.00024 30.3297C13.4222 30.3297 19.582 27.7828 24.1288 23.2475L-6.00293 -6.96053C-2.55125 -10.4035 2.125 -12.337 7.00024 -12.337L7.00024 30.3297ZM24.1432 23.2331L27.9139 19.4648L-2.2467 -10.7144L-6.01737 -6.94612L24.1432 23.2331ZM-8.49976 4.37516V10.5002H34.1669V4.37516H-8.49976ZM-8.49976 10.5002C-8.49976 5.30635 -6.43653 0.325251 -2.76393 -3.34734L27.406 26.8225C31.7349 22.4936 34.1669 16.6222 34.1669 10.5002H-8.49976ZM-2.76393 -3.34734C0.908663 -7.01994 5.88976 -9.08317 11.0836 -9.08317V33.5835C17.2056 33.5835 23.077 31.1515 27.406 26.8225L-2.76393 -3.34734Z" fill="#D9D9D9" mask="url(#path-1-inside-1_348_3831)"/>
</g>
<defs>
<clipPath id="clip0_348_3831">
<rect width="14" height="14" fill="white" transform="translate(0.000244141 0.000183105)"/>
</clipPath>
</defs>
</svg>
