<svg width="20" height="20" viewBox="0 0 20 20" fill="none" xmlns="http://www.w3.org/2000/svg">
<g clip-path="url(#clip0_150_5407)">
<path d="M15.8333 0H4.16667C3.062 0.00132321 2.00296 0.440735 1.22185 1.22185C0.440735 2.00296 0.00132321 3.062 0 4.16667L0 15.8333C0.00132321 16.938 0.440735 17.997 1.22185 18.7782C2.00296 19.5593 3.062 19.9987 4.16667 20H15.8333C16.938 19.9987 17.997 19.5593 18.7782 18.7782C19.5593 17.997 19.9987 16.938 20 15.8333V4.16667C19.9987 3.062 19.5593 2.00296 18.7782 1.22185C17.997 0.440735 16.938 0.00132321 15.8333 0V0ZM4.16667 1.66667H15.8333C16.4964 1.66667 17.1323 1.93006 17.6011 2.3989C18.0699 2.86774 18.3333 3.50363 18.3333 4.16667V15.8333C18.3319 16.2046 18.2464 16.5707 18.0833 16.9042L10.4475 9.26833C10.0606 8.88131 9.6012 8.57429 9.0956 8.36483C8.59001 8.15537 8.0481 8.04756 7.50083 8.04756C6.95357 8.04756 6.41166 8.15537 5.90606 8.36483C5.40047 8.57429 4.94109 8.88131 4.55417 9.26833L1.66667 12.155V4.16667C1.66667 3.50363 1.93006 2.86774 2.3989 2.3989C2.86774 1.93006 3.50363 1.66667 4.16667 1.66667ZM4.16667 18.3333C3.50363 18.3333 2.86774 18.0699 2.3989 17.6011C1.93006 17.1323 1.66667 16.4964 1.66667 15.8333V14.5117L5.73167 10.4467C5.96383 10.2144 6.2395 10.0301 6.54292 9.90432C6.84634 9.77858 7.17156 9.71387 7.5 9.71387C7.82844 9.71387 8.15366 9.77858 8.45708 9.90432C8.7605 10.0301 9.03617 10.2144 9.26833 10.4467L16.9042 18.0833C16.5707 18.2464 16.2046 18.3319 15.8333 18.3333H4.16667Z" fill="white"/>
<path d="M13.3333 8.75001C13.9102 8.75001 14.4741 8.57895 14.9537 8.25846C15.4333 7.93797 15.8072 7.48245 16.0279 6.9495C16.2487 6.41655 16.3065 5.8301 16.1939 5.26433C16.0814 4.69855 15.8036 4.17885 15.3957 3.77095C14.9878 3.36304 14.4681 3.08526 13.9023 2.97272C13.3365 2.86018 12.7501 2.91794 12.2171 3.13869C11.6842 3.35945 11.2287 3.73328 10.9082 4.21293C10.5877 4.69257 10.4166 5.25648 10.4166 5.83334C10.4166 6.60689 10.7239 7.34875 11.2709 7.89573C11.8179 8.44272 12.5597 8.75001 13.3333 8.75001ZM13.3333 4.58334C13.5805 4.58334 13.8222 4.65665 14.0278 4.794C14.2333 4.93135 14.3935 5.12658 14.4881 5.35499C14.5828 5.58339 14.6075 5.83473 14.5593 6.0772C14.511 6.31968 14.392 6.54241 14.2172 6.71722C14.0424 6.89204 13.8196 7.01109 13.5772 7.05932C13.3347 7.10755 13.0833 7.0828 12.8549 6.98819C12.6265 6.89358 12.4313 6.73336 12.294 6.5278C12.1566 6.32224 12.0833 6.08057 12.0833 5.83334C12.0833 5.50182 12.215 5.18388 12.4494 4.94946C12.6838 4.71504 13.0018 4.58334 13.3333 4.58334Z" fill="white"/>
</g>
<defs>
<clipPath id="clip0_150_5407">
<rect width="20" height="20" fill="white"/>
</clipPath>
</defs>
</svg>
