<svg width="36" height="36" viewBox="0 0 36 36" fill="none" xmlns="http://www.w3.org/2000/svg">
<path d="M33.5125 18.3645C33.5125 17.298 33.418 16.2855 33.256 15.3H18.001V21.3885H26.7355C26.344 23.3865 25.1965 25.074 23.4955 26.2215V30.2715H28.7065C31.7575 27.45 33.5125 23.292 33.5125 18.3645Z" fill="#4285F4"/>
<path d="M18.001 34.2C22.375 34.2 26.0335 32.742 28.7065 30.2715L23.4955 26.2215C22.0375 27.1935 20.188 27.7875 18.001 27.7875C13.7755 27.7875 10.198 24.939 8.91548 21.0915H3.54248V25.263C6.20198 30.555 11.6695 34.2 18.001 34.2Z" fill="#34A853"/>
<path d="M8.91553 21.0915C8.57803 20.1195 8.40252 19.08 8.40252 18C8.40252 16.92 8.59153 15.8805 8.91553 14.9085V10.737H3.54252C2.43552 12.924 1.80103 15.381 1.80103 18C1.80103 20.619 2.43552 23.076 3.54252 25.263L8.91553 21.0915Z" fill="#FBBC05"/>
<path d="M18.001 8.21249C20.3905 8.21249 22.5235 9.03599 24.211 10.6425L28.828 6.02549C26.0335 3.40649 22.375 1.79999 18.001 1.79999C11.6695 1.79999 6.20198 5.44499 3.54248 10.737L8.91548 14.9085C10.198 11.061 13.7755 8.21249 18.001 8.21249Z" fill="#EA4335"/>
</svg>
