<svg width="34" height="34" viewBox="0 0 34 34" fill="none" xmlns="http://www.w3.org/2000/svg">
<path d="M17.0098 0.799988C10.2446 0.799988 8.266 0.806967 7.88141 0.838871C6.49307 0.954275 5.62917 1.17287 4.68799 1.64146C3.96267 2.00163 3.39063 2.41913 2.82608 3.00437C1.79791 4.07167 1.17479 5.38473 0.949212 6.94554C0.839541 7.70327 0.807637 7.8578 0.801157 11.7282C0.798664 13.0183 0.801157 14.7162 0.801157 16.9936C0.801157 23.7533 0.808634 25.7299 0.841037 26.1138C0.9532 27.4647 1.16506 28.3147 1.61372 29.2444C2.47114 31.024 4.10873 32.36 6.03794 32.8585C6.70593 33.0305 7.44372 33.1252 8.39088 33.1701C8.79217 33.1875 12.8824 33.2 16.9751 33.2C21.0678 33.2 25.1605 33.195 25.5519 33.1751C26.6486 33.1235 27.2854 33.038 27.9895 32.856C29.9312 32.355 31.5389 31.039 32.4138 29.2344C32.8537 28.3271 33.0768 27.4448 33.1777 26.1644C33.1997 25.8852 33.2089 21.4343 33.2089 16.9894C33.2089 12.5437 33.1989 8.10107 33.177 7.82191C33.0748 6.52082 32.8517 5.64594 32.3976 4.72122C32.0249 3.96424 31.6112 3.39894 31.0105 2.82092C29.9384 1.797 28.6274 1.17387 27.0651 0.948542C26.3081 0.83912 26.1573 0.806718 22.2839 0.799988H17.0098Z" fill="url(#paint0_radial_150_4527)"/>
<path d="M17.0098 0.799988C10.2446 0.799988 8.266 0.806967 7.88141 0.838871C6.49307 0.954275 5.62917 1.17287 4.68799 1.64146C3.96267 2.00163 3.39063 2.41913 2.82608 3.00437C1.79791 4.07167 1.17479 5.38473 0.949212 6.94554C0.839541 7.70327 0.807637 7.8578 0.801157 11.7282C0.798664 13.0183 0.801157 14.7162 0.801157 16.9936C0.801157 23.7533 0.808634 25.7299 0.841037 26.1138C0.9532 27.4647 1.16506 28.3147 1.61372 29.2444C2.47114 31.024 4.10873 32.36 6.03794 32.8585C6.70593 33.0305 7.44372 33.1252 8.39088 33.1701C8.79217 33.1875 12.8824 33.2 16.9751 33.2C21.0678 33.2 25.1605 33.195 25.5519 33.1751C26.6486 33.1235 27.2854 33.038 27.9895 32.856C29.9312 32.355 31.5389 31.039 32.4138 29.2344C32.8537 28.3271 33.0768 27.4448 33.1777 26.1644C33.1997 25.8852 33.2089 21.4343 33.2089 16.9894C33.2089 12.5437 33.1989 8.10107 33.177 7.82191C33.0748 6.52082 32.8517 5.64594 32.3976 4.72122C32.0249 3.96424 31.6112 3.39894 31.0105 2.82092C29.9384 1.797 28.6274 1.17387 27.0651 0.948542C26.3081 0.83912 26.1573 0.806718 22.2839 0.799988H17.0098Z" fill="url(#paint1_radial_150_4527)"/>
<path d="M17.0022 5.03729C13.7529 5.03729 13.3452 5.0515 12.069 5.10958C10.7953 5.1679 9.92594 5.36955 9.16522 5.66541C8.37833 5.97099 7.71083 6.37976 7.04583 7.04502C6.38033 7.71002 5.97155 8.37752 5.66497 9.16416C5.36836 9.92512 5.16647 10.7948 5.10914 12.0679C5.05206 13.3441 5.03711 13.7521 5.03711 17.0014C5.03711 20.2506 5.05157 20.6572 5.10939 21.9333C5.16797 23.207 5.36961 24.0764 5.66522 24.8371C5.97106 25.624 6.37983 26.2915 7.04508 26.9565C7.70984 27.622 8.37733 28.0318 9.16372 28.3374C9.92494 28.6332 10.7946 28.8349 12.068 28.8932C13.3442 28.9513 13.7517 28.9655 17.0007 28.9655C20.2502 28.9655 20.6567 28.9513 21.9329 28.8932C23.2066 28.8349 24.077 28.6332 24.8382 28.3374C25.6248 28.0318 26.2913 27.622 26.9561 26.9565C27.6216 26.2915 28.0303 25.624 28.3369 24.8374C28.631 24.0764 28.8329 23.2068 28.8928 21.9336C28.9501 20.6574 28.965 20.2506 28.965 17.0014C28.965 13.7521 28.9501 13.3444 28.8928 12.0682C28.8329 10.7945 28.631 9.92512 28.3369 9.1644C28.0303 8.37752 27.6216 7.71002 26.9561 7.04502C26.2906 6.37951 25.6251 5.97074 24.8374 5.66541C24.0747 5.36955 23.2048 5.1679 21.9312 5.10958C20.655 5.0515 20.2487 5.03729 16.9985 5.03729H17.0022ZM15.9289 7.19332C16.2475 7.19282 16.6029 7.19332 17.0022 7.19332C20.1966 7.19332 20.5752 7.20479 21.8367 7.26212C23.0032 7.31545 23.6363 7.51037 24.058 7.67413C24.6163 7.89098 25.0144 8.1502 25.4329 8.56894C25.8516 8.98769 26.1109 9.38649 26.3282 9.94481C26.492 10.366 26.6871 10.9991 26.7402 12.1656C26.7975 13.4269 26.81 13.8057 26.81 16.9986C26.81 20.1916 26.7975 20.5704 26.7402 21.8316C26.6869 22.9981 26.492 23.6312 26.3282 24.0525C26.1114 24.6108 25.8516 25.0084 25.4329 25.4268C25.0141 25.8456 24.6166 26.1048 24.058 26.3217C23.6368 26.4862 23.0032 26.6806 21.8367 26.7339C20.5755 26.7912 20.1966 26.8037 17.0022 26.8037C13.8075 26.8037 13.4289 26.7912 12.1677 26.7339C11.0012 26.6801 10.3681 26.4852 9.94612 26.3214C9.3878 26.1046 8.989 25.8453 8.57025 25.4266C8.15151 25.0079 7.89229 24.61 7.67494 24.0515C7.51118 23.6302 7.31602 22.9971 7.26293 21.8306C7.2056 20.5694 7.19413 20.1906 7.19413 16.9956C7.19413 13.8007 7.2056 13.4239 7.26293 12.1627C7.31627 10.9962 7.51118 10.3631 7.67494 9.94132C7.89179 9.383 8.15151 8.9842 8.57025 8.56545C8.989 8.14671 9.3878 7.88749 9.94612 7.67014C10.3679 7.50563 11.0012 7.31122 12.1677 7.25763C13.2714 7.20778 13.6991 7.19282 15.9289 7.19033V7.19332ZM23.3885 9.17986C22.5959 9.17986 21.9528 9.82218 21.9528 10.6151C21.9528 11.4077 22.5959 12.0507 23.3885 12.0507C24.1811 12.0507 24.8242 11.4077 24.8242 10.6151C24.8242 9.82243 24.1811 9.17936 23.3885 9.17936V9.17986ZM17.0022 10.8573C13.6091 10.8573 10.8581 13.6083 10.8581 17.0014C10.8581 20.3944 13.6091 23.1442 17.0022 23.1442C20.3953 23.1442 23.1453 20.3944 23.1453 17.0014C23.1453 13.6083 20.395 10.8573 17.0019 10.8573H17.0022ZM17.0022 13.0134C19.2046 13.0134 20.9902 14.7987 20.9902 17.0014C20.9902 19.2038 19.2046 20.9894 17.0022 20.9894C14.7996 20.9894 13.0142 19.2038 13.0142 17.0014C13.0142 14.7987 14.7996 13.0134 17.0022 13.0134Z" fill="white"/>
<defs>
<radialGradient id="paint0_radial_150_4527" cx="0" cy="0" r="1" gradientUnits="userSpaceOnUse" gradientTransform="translate(9.40869 35.6955) rotate(-90) scale(32.1108 29.8737)">
<stop stop-color="#FFDD55"/>
<stop offset="0.1" stop-color="#FFDD55"/>
<stop offset="0.5" stop-color="#FF543E"/>
<stop offset="1" stop-color="#C837AB"/>
</radialGradient>
<radialGradient id="paint1_radial_150_4527" cx="0" cy="0" r="1" gradientUnits="userSpaceOnUse" gradientTransform="translate(-4.6286 3.13403) rotate(78.6776) scale(14.3538 59.1819)">
<stop stop-color="#3771C8"/>
<stop offset="0.128" stop-color="#3771C8"/>
<stop offset="1" stop-color="#6600FF" stop-opacity="0"/>
</radialGradient>
</defs>
</svg>
