<svg width="20" height="20" viewBox="0 0 20 20" fill="none" xmlns="http://www.w3.org/2000/svg">
<g clip-path="url(#clip0_150_5438)">
<path d="M11.5375 14.3892L8.81915 17.1075C8.02992 17.8757 6.97 18.3022 5.86869 18.2948C4.76739 18.2874 3.71328 17.8467 2.93441 17.0681C2.15555 16.2894 1.71456 15.2355 1.70687 14.1342C1.69918 13.0329 2.1254 11.9728 2.89332 11.1834L5.61165 8.46252C5.76791 8.30616 5.85565 8.09412 5.85557 7.87306C5.85549 7.652 5.7676 7.44003 5.61124 7.28377C5.45487 7.12752 5.24283 7.03978 5.02178 7.03986C4.80072 7.03993 4.58874 7.12782 4.43249 7.28419L1.71499 10.005C0.61688 11.1037 0.000189307 12.5936 0.00058002 14.1469C0.000970732 15.7003 0.618411 17.1898 1.71707 18.2879C2.81573 19.386 4.30561 20.0027 5.85896 20.0023C7.41231 20.002 8.90188 19.3845 9.99999 18.2859L12.7183 15.5675C12.8701 15.4104 12.9541 15.1999 12.9522 14.9814C12.9503 14.7629 12.8627 14.5538 12.7082 14.3993C12.5537 14.2448 12.3447 14.1572 12.1262 14.1553C11.9077 14.1534 11.6972 14.2374 11.54 14.3892H11.5375Z" fill="white"/>
<path d="M18.2867 1.71752C17.7444 1.17153 17.0992 0.738586 16.3884 0.443767C15.6776 0.148948 14.9153 -0.00188038 14.1458 2.0534e-05C13.3767 -0.00202257 12.6148 0.148419 11.9042 0.442647C11.1936 0.736874 10.5484 1.16905 10.0058 1.71419L7.28334 4.43335C7.12697 4.58961 7.03908 4.80158 7.039 5.02264C7.03892 5.2437 7.12666 5.45574 7.28292 5.6121C7.43918 5.76847 7.65115 5.85636 7.87221 5.85644C8.09327 5.85652 8.3053 5.76878 8.46167 5.61252L11.1825 2.89419C11.5705 2.50389 12.032 2.19444 12.5404 1.98374C13.0487 1.77303 13.5939 1.66527 14.1442 1.66669C14.9727 1.66696 15.7826 1.91288 16.4714 2.37335C17.1602 2.83383 17.697 3.48818 18.014 4.2537C18.331 5.01922 18.4139 5.86154 18.2523 6.67417C18.0906 7.4868 17.6917 8.23326 17.1058 8.81919L14.3875 11.5375C14.2311 11.6939 14.1433 11.906 14.1433 12.1271C14.1433 12.3482 14.2311 12.5603 14.3875 12.7167C14.5439 12.8731 14.756 12.9609 14.9771 12.9609C15.1982 12.9609 15.4103 12.8731 15.5667 12.7167L18.285 10C19.3817 8.90093 19.9978 7.41177 19.9981 5.85912C19.9984 4.30646 19.3829 2.81705 18.2867 1.71752Z" fill="white"/>
<path d="M11.9108 6.91081L6.91084 11.9108C6.83125 11.9877 6.76776 12.0796 6.72409 12.1813C6.68041 12.283 6.65743 12.3923 6.65646 12.503C6.6555 12.6136 6.67659 12.7234 6.71849 12.8258C6.76039 12.9282 6.82227 13.0212 6.90051 13.0995C6.97875 13.1777 7.0718 13.2396 7.17421 13.2815C7.27663 13.3234 7.38636 13.3445 7.49701 13.3435C7.60766 13.3426 7.71701 13.3196 7.81868 13.2759C7.92035 13.2322 8.0123 13.1687 8.08917 13.0891L13.0892 8.08914C13.241 7.93197 13.325 7.72147 13.3231 7.50297C13.3212 7.28447 13.2335 7.07546 13.079 6.92096C12.9245 6.76645 12.7155 6.67881 12.497 6.67691C12.2785 6.67501 12.068 6.75901 11.9108 6.91081Z" fill="white"/>
</g>
<defs>
<clipPath id="clip0_150_5438">
<rect width="20" height="20" fill="white"/>
</clipPath>
</defs>
</svg>
