<svg width="16" height="16" viewBox="0 0 16 16" fill="none" xmlns="http://www.w3.org/2000/svg">
<g clip-path="url(#clip0_348_3849)">
<mask id="path-1-inside-1_348_3849" fill="white">
<path d="M8.0001 4.39978C7.52542 4.39978 7.06141 4.54054 6.66673 4.80425C6.27205 5.06797 5.96444 5.4428 5.78279 5.88134C5.60114 6.31988 5.55361 6.80244 5.64621 7.268C5.73882 7.73355 5.9674 8.16119 6.30304 8.49684C6.63869 8.83248 7.06633 9.06106 7.53188 9.15367C7.99744 9.24627 8.48 9.19874 8.91854 9.01709C9.35708 8.83544 9.73191 8.52783 9.99563 8.13315C10.2593 7.73847 10.4001 7.27446 10.4001 6.79978C10.4001 6.16326 10.1472 5.55281 9.69716 5.10272C9.24707 4.65264 8.63662 4.39978 8.0001 4.39978ZM8.0001 7.99978C7.76276 7.99978 7.53075 7.9294 7.33341 7.79754C7.13608 7.66569 6.98227 7.47827 6.89144 7.259C6.80062 7.03973 6.77685 6.79845 6.82316 6.56567C6.86946 6.3329 6.98375 6.11908 7.15157 5.95125C7.31939 5.78343 7.53321 5.66914 7.76599 5.62284C7.99877 5.57654 8.24005 5.6003 8.45932 5.69112C8.67859 5.78195 8.866 5.93576 8.99786 6.1331C9.12972 6.33044 9.2001 6.56244 9.2001 6.79978C9.2001 7.11804 9.07367 7.42326 8.84863 7.64831C8.62358 7.87335 8.31836 7.99978 8.0001 7.99978Z"/>
</mask>
<path d="M8.0001 4.39978C7.52542 4.39978 7.06141 4.54054 6.66673 4.80425C6.27205 5.06797 5.96444 5.4428 5.78279 5.88134C5.60114 6.31988 5.55361 6.80244 5.64621 7.268C5.73882 7.73355 5.9674 8.16119 6.30304 8.49684C6.63869 8.83248 7.06633 9.06106 7.53188 9.15367C7.99744 9.24627 8.48 9.19874 8.91854 9.01709C9.35708 8.83544 9.73191 8.52783 9.99563 8.13315C10.2593 7.73847 10.4001 7.27446 10.4001 6.79978C10.4001 6.16326 10.1472 5.55281 9.69716 5.10272C9.24707 4.65264 8.63662 4.39978 8.0001 4.39978ZM8.0001 7.99978C7.76276 7.99978 7.53075 7.9294 7.33341 7.79754C7.13608 7.66569 6.98227 7.47827 6.89144 7.259C6.80062 7.03973 6.77685 6.79845 6.82316 6.56567C6.86946 6.3329 6.98375 6.11908 7.15157 5.95125C7.31939 5.78343 7.53321 5.66914 7.76599 5.62284C7.99877 5.57654 8.24005 5.6003 8.45932 5.69112C8.67859 5.78195 8.866 5.93576 8.99786 6.1331C9.12972 6.33044 9.2001 6.56244 9.2001 6.79978C9.2001 7.11804 9.07367 7.42326 8.84863 7.64831C8.62358 7.87335 8.31836 7.99978 8.0001 7.99978Z" fill="#D9D9D9"/>
<path d="M8.0001 4.39978V-16.9336V4.39978ZM10.4001 6.79978H31.7334H10.4001ZM8.0001 -16.9336C3.30609 -16.9336 -1.28251 -15.5416 -5.18544 -12.9338L18.5189 22.5423C15.4053 24.6227 11.7448 25.7331 8.0001 25.7331V-16.9336ZM-5.18544 -12.9338C-9.08835 -10.3259 -12.1303 -6.61928 -13.9266 -2.28257L25.4922 14.0453C24.0592 17.5049 21.6325 20.4619 18.5189 22.5423L-5.18544 -12.9338ZM-13.9266 -2.28257C-15.723 2.05413 -16.193 6.82611 -15.2772 11.4299L26.5696 3.10607C27.3002 6.77878 26.9252 10.5856 25.4922 14.0453L-13.9266 -2.28257ZM-15.2772 11.4299C-14.3615 16.0337 -12.1011 20.2626 -8.7819 23.5818L21.388 -6.58811C24.0359 -3.94023 25.8391 -0.566636 26.5696 3.10607L-15.2772 11.4299ZM-8.7819 23.5818C-5.46274 26.9009 -1.23386 29.1613 3.36996 30.0771L11.6938 -11.7698C15.3665 -11.0392 18.7401 -9.23598 21.388 -6.58811L-8.7819 23.5818ZM3.36996 30.0771C7.97377 30.9928 12.7458 30.5228 17.0825 28.7265L0.754626 -10.6923C4.21424 -12.1254 8.0211 -12.5003 11.6938 -11.7698L3.36996 30.0771ZM17.0825 28.7265C21.4192 26.9302 25.1258 23.8882 27.7336 19.9853L-7.74239 -3.71902C-5.66198 -6.83257 -2.70501 -9.25931 0.754626 -10.6923L17.0825 28.7265ZM27.7336 19.9853C30.3415 16.0824 31.7334 11.4938 31.7334 6.79978H-10.9332C-10.9332 3.05512 -9.82281 -0.605444 -7.74239 -3.71902L27.7336 19.9853ZM31.7334 6.79978C31.7334 0.50532 29.233 -5.53135 24.7821 -9.98222L-5.38779 20.1877C-8.93849 16.637 -10.9332 11.8212 -10.9332 6.79978H31.7334ZM24.7821 -9.98222C20.3312 -14.4331 14.2946 -16.9336 8.0001 -16.9336V25.7331C2.97867 25.7331 -1.8371 23.7384 -5.38779 20.1877L24.7821 -9.98222ZM8.0001 -13.3336C11.9821 -13.3336 15.8747 -12.1528 19.1856 -9.94047L-4.51875 25.5356C-0.813168 28.0116 3.54342 29.3331 8.0001 29.3331V-13.3336ZM19.1856 -9.94047C22.4965 -7.7282 25.077 -4.58381 26.6009 -0.904912L-12.818 15.4229C-11.1125 19.5403 -8.22433 23.0596 -4.51875 25.5356L19.1856 -9.94047ZM26.6009 -0.904912C28.1247 2.77397 28.5234 6.82211 27.7466 10.7276L-14.1003 2.40375C-14.9697 6.77479 -14.5235 11.3055 -12.818 15.4229L26.6009 -0.904912ZM27.7466 10.7276C26.9697 14.6331 25.0522 18.2205 22.2365 21.0362L-7.93337 -9.13369C-11.0847 -5.98237 -13.2308 -1.96732 -14.1003 2.40375L27.7466 10.7276ZM22.2365 21.0362C19.4208 23.8519 15.8334 25.7694 11.9279 26.5463L3.60406 -15.3006C-0.767 -14.4311 -4.78205 -12.285 -7.93337 -9.13369L22.2365 21.0362ZM11.9279 26.5463C8.02243 27.3231 3.97429 26.9244 0.295405 25.4006L16.6232 -14.0183C12.5058 -15.7238 7.9751 -16.17 3.60406 -15.3006L11.9279 26.5463ZM0.295405 25.4006C-3.38349 23.8767 -6.52788 21.2962 -8.74016 17.9853L26.7359 -5.71907C24.2599 -9.42465 20.7407 -12.3128 16.6232 -14.0183L0.295405 25.4006ZM-8.74016 17.9853C-10.9524 14.6744 -12.1332 10.7818 -12.1332 6.79978H30.5334C30.5334 2.3431 29.2119 -2.01349 26.7359 -5.71907L-8.74016 17.9853ZM-12.1332 6.79978C-12.1332 1.46007 -10.012 -3.66091 -6.23632 -7.43664L23.9336 22.7333C28.1594 18.5074 30.5334 12.776 30.5334 6.79978H-12.1332ZM-6.23632 -7.43664C-2.4606 -11.2124 2.66039 -13.3336 8.0001 -13.3336V29.3331C13.9763 29.3331 19.7078 26.9591 23.9336 22.7333L-6.23632 -7.43664Z" fill="#D9D9D9" mask="url(#path-1-inside-1_348_3849)"/>
<path d="M8.00004 15.1998C7.49481 15.2024 6.99631 15.0839 6.54628 14.8542C6.09625 14.6246 5.7078 14.2904 5.41344 13.8798C3.12684 10.7256 1.96704 8.35439 1.96704 6.83158C1.96704 5.23153 2.60266 3.69702 3.73407 2.56561C4.86547 1.4342 6.39999 0.798584 8.00004 0.798584C9.60009 0.798584 11.1346 1.4342 12.266 2.56561C13.3974 3.69702 14.033 5.23153 14.033 6.83158C14.033 8.35439 12.8732 10.7256 10.5866 13.8798C10.2923 14.2904 9.90383 14.6246 9.4538 14.8542C9.00378 15.0839 8.50527 15.2024 8.00004 15.1998ZM8.00004 2.10838C6.74749 2.10981 5.54665 2.60802 4.66096 3.49371C3.77528 4.37939 3.27707 5.58023 3.27564 6.83279C3.27564 8.03878 4.41144 10.269 6.47304 13.1124C6.64806 13.3535 6.87766 13.5497 7.14307 13.6849C7.40848 13.8202 7.70214 13.8908 8.00004 13.8908C8.29794 13.8908 8.59161 13.8202 8.85701 13.6849C9.12242 13.5497 9.35202 13.3535 9.52704 13.1124C11.5886 10.269 12.7244 8.03878 12.7244 6.83279C12.723 5.58023 12.2248 4.37939 11.3391 3.49371C10.4534 2.60802 9.25259 2.10981 8.00004 2.10838Z" fill="#D9D9D9"/>
</g>
<defs>
<clipPath id="clip0_348_3849">
<rect width="14.4" height="14.4" fill="white" transform="translate(0.800049 0.799805)"/>
</clipPath>
</defs>
</svg>
