<svg width="20" height="21" viewBox="0 0 20 21" fill="none" xmlns="http://www.w3.org/2000/svg">
<g clip-path="url(#clip0_4769_2211)">
<path d="M10.0067 20.5029C9.61 20.5029 9.21083 20.3609 8.8925 20.0744L5.76917 17.4064H3.33333C1.495 17.4064 3.48214e-07 15.8902 3.48214e-07 14.0259V3.88345C-0.000832985 2.01909 1.49417 0.50293 3.3325 0.50293H16.6658C18.5042 0.50293 19.9992 2.01909 19.9992 3.88345V14.025C19.9992 15.8894 18.5042 17.4055 16.6658 17.4055H14.2892L11.0833 20.093C10.7817 20.3652 10.3958 20.5021 10.0058 20.5021L10.0067 20.5029ZM3.3325 2.19319C2.41333 2.19319 1.66583 2.95127 1.66583 3.88345V14.025C1.66583 14.9572 2.41333 15.7153 3.3325 15.7153H6.07333C6.27 15.7153 6.46 15.7854 6.61083 15.9139L9.98333 18.7958L13.4583 15.9088C13.6083 15.7837 13.7958 15.7153 13.99 15.7153H16.6667C17.5858 15.7153 18.3333 14.9572 18.3333 14.025V3.88345C18.3333 2.95127 17.5858 2.19319 16.6667 2.19319H3.3325Z" fill="white"/>
</g>
<defs>
<clipPath id="clip0_4769_2211">
<rect width="20" height="20" fill="white" transform="translate(0 0.5)"/>
</clipPath>
</defs>
</svg>
