<svg width="100" height="100" viewBox="0 0 100 100" fill="none" xmlns="http://www.w3.org/2000/svg">
<circle cx="50" cy="50" r="50" fill="white" fill-opacity="0.05"/>
<circle cx="50" cy="50" r="49.5" stroke="white" stroke-opacity="0.35"/>
<mask id="path-3-inside-1_150_4073" fill="white">
<path d="M64.14 63.3334C63.8239 63.3331 63.5145 63.243 63.2477 63.0735C62.9809 62.904 62.7678 62.6621 62.6333 62.3761C62.4988 62.0901 62.4483 61.7717 62.4879 61.4582C62.5274 61.1446 62.6553 60.8487 62.8567 60.6051C65.3037 57.6125 66.6405 53.8657 66.6405 50.0001C66.6405 46.1344 65.3037 42.3876 62.8567 39.395C62.7173 39.2262 62.6125 39.0315 62.5483 38.8222C62.4841 38.6128 62.4618 38.3929 62.4826 38.1749C62.5034 37.9569 62.5669 37.7451 62.6696 37.5517C62.7722 37.3583 62.912 37.187 63.0808 37.0475C63.4219 36.766 63.8608 36.6314 64.301 36.6734C64.7413 36.7155 65.1468 36.9307 65.4283 37.2717C68.3643 40.8639 69.9681 45.3607 69.9681 50.0001C69.9681 54.6394 68.3643 59.1362 65.4283 62.7284C65.2716 62.9181 65.0748 63.0707 64.852 63.1753C64.6292 63.2799 64.3861 63.3339 64.14 63.3334ZM36.9183 62.9517C37.0872 62.8124 37.227 62.6412 37.3297 62.4479C37.4325 62.2546 37.4961 62.0429 37.517 61.825C37.5379 61.6071 37.5156 61.3872 37.4515 61.1779C37.3874 60.9685 37.2827 60.7739 37.1433 60.6051C34.6963 57.6125 33.3595 53.8657 33.3595 50.0001C33.3595 46.1344 34.6963 42.3876 37.1433 39.395C37.2828 39.2263 37.3876 39.0317 37.4518 38.8225C37.516 38.6132 37.5384 38.3934 37.5177 38.1755C37.4969 37.9576 37.4335 37.7459 37.3309 37.5525C37.2284 37.3591 37.0888 37.1878 36.92 37.0484C36.7513 36.909 36.5567 36.8041 36.3474 36.7399C36.1382 36.6757 35.9183 36.6533 35.7004 36.674C35.4825 36.6948 35.2708 36.7582 35.0774 36.8608C34.8841 36.9633 34.7128 37.103 34.5733 37.2717C31.6365 40.8635 30.0321 45.3604 30.0321 50.0001C30.0321 54.6397 31.6365 59.1366 34.5733 62.7284C34.8548 63.0687 35.2599 63.2834 35.6996 63.3253C36.1393 63.3672 36.5776 63.2328 36.9183 62.9517ZM63.3333 50.0001C63.3294 53.5351 61.9233 56.9241 59.4237 59.4238C56.9241 61.9234 53.535 63.3294 50 63.3334C32.3533 62.7067 32.3583 37.29 50 36.6667C53.535 36.6707 56.9241 38.0767 59.4237 40.5763C61.9233 43.076 63.3294 46.465 63.3333 50.0001ZM51.6667 56.6667C51.6667 56.2247 51.4911 55.8008 51.1785 55.4882C50.866 55.1756 50.442 55.0001 50 55.0001C49.558 55.0001 49.1341 55.1756 48.8215 55.4882C48.5089 55.8008 48.3333 56.2247 48.3333 56.6667C48.3333 57.1087 48.5089 57.5327 48.8215 57.8452C49.1341 58.1578 49.558 58.3334 50 58.3334C50.442 58.3334 50.866 58.1578 51.1785 57.8452C51.4911 57.5327 51.6667 57.1087 51.6667 56.6667ZM51.6667 43.3334C51.6667 42.8914 51.4911 42.4674 51.1785 42.1549C50.866 41.8423 50.442 41.6667 50 41.6667C49.558 41.6667 49.1341 41.8423 48.8215 42.1549C48.5089 42.4674 48.3333 42.8914 48.3333 43.3334V50.0001C48.3333 50.4421 48.5089 50.866 48.8215 51.1786C49.1341 51.4911 49.558 51.6667 50 51.6667C50.442 51.6667 50.866 51.4911 51.1785 51.1786C51.4911 50.866 51.6667 50.4421 51.6667 50.0001V43.3334Z"/>
</mask>
<path d="M64.14 63.3334C63.8239 63.3331 63.5145 63.243 63.2477 63.0735C62.9809 62.904 62.7678 62.6621 62.6333 62.3761C62.4988 62.0901 62.4483 61.7717 62.4879 61.4582C62.5274 61.1446 62.6553 60.8487 62.8567 60.6051C65.3037 57.6125 66.6405 53.8657 66.6405 50.0001C66.6405 46.1344 65.3037 42.3876 62.8567 39.395C62.7173 39.2262 62.6125 39.0315 62.5483 38.8222C62.4841 38.6128 62.4618 38.3929 62.4826 38.1749C62.5034 37.9569 62.5669 37.7451 62.6696 37.5517C62.7722 37.3583 62.912 37.187 63.0808 37.0475C63.4219 36.766 63.8608 36.6314 64.301 36.6734C64.7413 36.7155 65.1468 36.9307 65.4283 37.2717C68.3643 40.8639 69.9681 45.3607 69.9681 50.0001C69.9681 54.6394 68.3643 59.1362 65.4283 62.7284C65.2716 62.9181 65.0748 63.0707 64.852 63.1753C64.6292 63.2799 64.3861 63.3339 64.14 63.3334ZM36.9183 62.9517C37.0872 62.8124 37.227 62.6412 37.3297 62.4479C37.4325 62.2546 37.4961 62.0429 37.517 61.825C37.5379 61.6071 37.5156 61.3872 37.4515 61.1779C37.3874 60.9685 37.2827 60.7739 37.1433 60.6051C34.6963 57.6125 33.3595 53.8657 33.3595 50.0001C33.3595 46.1344 34.6963 42.3876 37.1433 39.395C37.2828 39.2263 37.3876 39.0317 37.4518 38.8225C37.516 38.6132 37.5384 38.3934 37.5177 38.1755C37.4969 37.9576 37.4335 37.7459 37.3309 37.5525C37.2284 37.3591 37.0888 37.1878 36.92 37.0484C36.7513 36.909 36.5567 36.8041 36.3474 36.7399C36.1382 36.6757 35.9183 36.6533 35.7004 36.674C35.4825 36.6948 35.2708 36.7582 35.0774 36.8608C34.8841 36.9633 34.7128 37.103 34.5733 37.2717C31.6365 40.8635 30.0321 45.3604 30.0321 50.0001C30.0321 54.6397 31.6365 59.1366 34.5733 62.7284C34.8548 63.0687 35.2599 63.2834 35.6996 63.3253C36.1393 63.3672 36.5776 63.2328 36.9183 62.9517ZM63.3333 50.0001C63.3294 53.5351 61.9233 56.9241 59.4237 59.4238C56.9241 61.9234 53.535 63.3294 50 63.3334C32.3533 62.7067 32.3583 37.29 50 36.6667C53.535 36.6707 56.9241 38.0767 59.4237 40.5763C61.9233 43.076 63.3294 46.465 63.3333 50.0001ZM51.6667 56.6667C51.6667 56.2247 51.4911 55.8008 51.1785 55.4882C50.866 55.1756 50.442 55.0001 50 55.0001C49.558 55.0001 49.1341 55.1756 48.8215 55.4882C48.5089 55.8008 48.3333 56.2247 48.3333 56.6667C48.3333 57.1087 48.5089 57.5327 48.8215 57.8452C49.1341 58.1578 49.558 58.3334 50 58.3334C50.442 58.3334 50.866 58.1578 51.1785 57.8452C51.4911 57.5327 51.6667 57.1087 51.6667 56.6667ZM51.6667 43.3334C51.6667 42.8914 51.4911 42.4674 51.1785 42.1549C50.866 41.8423 50.442 41.6667 50 41.6667C49.558 41.6667 49.1341 41.8423 48.8215 42.1549C48.5089 42.4674 48.3333 42.8914 48.3333 43.3334V50.0001C48.3333 50.4421 48.5089 50.866 48.8215 51.1786C49.1341 51.4911 49.558 51.6667 50 51.6667C50.442 51.6667 50.866 51.4911 51.1785 51.1786C51.4911 50.866 51.6667 50.4421 51.6667 50.0001V43.3334Z" fill="white"/>
<path d="M64.14 63.3334L64.1855 42.0001L64.172 42.0001L64.1584 42.0001L64.14 63.3334ZM62.8567 60.6051L79.3018 74.1944L79.3369 74.1519L79.3718 74.1092L62.8567 60.6051ZM62.8567 39.395L79.3718 25.8909L79.3396 25.8515L79.3073 25.8124L62.8567 39.395ZM63.0808 37.0475L49.4982 20.597H49.4982L63.0808 37.0475ZM65.4283 37.2717L81.9465 23.7713L81.9128 23.7301L81.8789 23.689L65.4283 37.2717ZM69.9681 50.0001H48.6348H69.9681ZM65.4283 62.7284L81.8735 76.3177L81.9101 76.2733L81.9465 76.2288L65.4283 62.7284ZM37.1433 60.6051L20.6282 74.1092L20.659 74.1468L20.6898 74.1842L37.1433 60.6051ZM33.3595 50.0001H12.0262H33.3595ZM37.1433 39.395L20.6971 25.8071L20.6625 25.8489L20.6282 25.8909L37.1433 39.395ZM34.5733 37.2717L18.1271 23.6838L18.0924 23.7258L18.0579 23.768L34.5733 37.2717ZM34.5733 62.7284L18.0579 76.2321L18.096 76.2787L18.1343 76.325L34.5733 62.7284ZM36.9183 62.9517L23.3448 46.4935L23.3414 46.4964L36.9183 62.9517ZM50 63.3334L49.2429 84.6533L49.6333 84.6671L50.024 84.6667L50 63.3334ZM50 36.6667L50.024 15.3334L49.6352 15.333L49.2467 15.3467L50 36.6667ZM64.1584 42.0001C67.8881 42.0033 71.5399 43.067 74.6878 45.067L51.8075 81.08C55.489 83.419 59.7598 84.6629 64.1216 84.6667L64.1584 42.0001ZM74.6878 45.067C77.8358 47.067 80.3502 49.9209 81.9377 53.2959L43.3289 71.4564C45.1854 75.4033 48.126 78.741 51.8075 81.08L74.6878 45.067ZM81.9377 53.2959C83.5251 56.6707 84.1202 60.4274 83.6535 64.1278L41.3222 58.7885C40.7764 63.116 41.4724 67.5095 43.3289 71.4564L81.9377 53.2959ZM83.6535 64.1278C83.1868 67.8282 81.6775 71.3195 79.3018 74.1944L46.4116 47.0157C43.6332 50.3779 41.8681 54.461 41.3222 58.7885L83.6535 64.1278ZM79.3718 74.1092C84.9347 67.3059 87.9738 58.7882 87.9738 50.0001H45.3072C45.3072 48.9433 45.6726 47.919 46.3416 47.1009L79.3718 74.1092ZM87.9738 50.0001C87.9738 41.2119 84.9347 32.6942 79.3718 25.8909L46.3416 52.8992C45.6726 52.0811 45.3072 51.0568 45.3072 50.0001H87.9738ZM79.3073 25.8124C80.9515 27.8038 82.1875 30.0996 82.9445 32.5688L42.152 45.0755C43.0375 47.9635 44.483 50.6486 46.4061 52.9777L79.3073 25.8124ZM82.9445 32.5688C83.7015 35.0379 83.9648 37.632 83.7193 40.2028L41.2458 36.1469C40.9587 39.1538 41.2666 42.1877 42.152 45.0755L82.9445 32.5688ZM83.7193 40.2028C83.4738 42.7738 82.7243 45.2711 81.5137 47.5522L43.8255 27.5512C42.4096 30.2192 41.533 33.14 41.2458 36.1469L83.7193 40.2028ZM81.5137 47.5522C80.3031 49.8333 78.6551 51.8538 76.6635 53.4981L49.4982 20.597C47.1689 22.5202 45.2413 24.8833 43.8255 27.5512L81.5137 47.5522ZM76.6635 53.4981C72.6415 56.8189 67.4651 58.406 62.2731 57.9102L66.3289 15.4367C60.2564 14.8568 54.2022 16.713 49.4982 20.597L76.6635 53.4981ZM62.2731 57.9102C57.081 57.4144 52.2985 54.8763 48.9777 50.8544L81.8789 23.689C77.995 18.9851 72.4015 16.0166 66.3289 15.4367L62.2731 57.9102ZM48.9101 50.7721C48.7321 50.5542 48.6348 50.2815 48.6348 50.0001H91.3014C91.3014 40.4399 87.9965 31.1737 81.9465 23.7713L48.9101 50.7721ZM48.6348 50.0001C48.6348 49.7186 48.7321 49.4459 48.9101 49.228L81.9465 76.2288C87.9965 68.8264 91.3014 59.5602 91.3014 50.0001H48.6348ZM48.9832 49.1391C50.8329 46.9007 53.1554 45.0996 55.784 43.8652L73.92 82.4855C76.9941 81.0419 79.7103 78.9355 81.8735 76.3177L48.9832 49.1391ZM55.784 43.8652C58.4125 42.6308 61.2817 41.9939 64.1855 42.0001L64.0945 84.6667C67.4905 84.6739 70.846 83.929 73.92 82.4855L55.784 43.8652ZM50.4918 79.4099C52.8225 77.4877 54.7517 75.1252 56.1691 72.4573L18.4903 52.4385C19.7024 50.1573 21.352 48.1371 23.3448 46.4935L50.4918 79.4099ZM56.1691 72.4573C57.5866 69.7894 58.4646 66.8684 58.7529 63.8611L16.281 59.7889C16.5276 57.2174 17.2783 54.7197 18.4903 52.4385L56.1691 72.4573ZM58.7529 63.8611C59.0413 60.8538 58.7343 57.8192 57.8496 54.9306L17.0534 67.4251C16.2969 64.9551 16.0345 62.3603 16.281 59.7889L58.7529 63.8611ZM57.8496 54.9306C56.9649 52.0419 55.5198 49.3558 53.5968 47.0259L20.6898 74.1842C19.0456 72.1919 17.8099 69.8952 17.0534 67.4251L57.8496 54.9306ZM53.6584 47.1009C54.3274 47.919 54.6928 48.9433 54.6928 50.0001H12.0262C12.0262 58.7882 15.0653 67.3059 20.6282 74.1092L53.6584 47.1009ZM54.6928 50.0001C54.6928 51.0568 54.3274 52.0811 53.6584 52.8992L20.6282 25.8909C15.0653 32.6942 12.0262 41.2119 12.0262 50.0001H54.6928ZM53.5896 52.983C55.5134 50.6545 56.9598 47.9698 57.846 45.0824L17.0576 32.5626C17.8154 30.0937 19.0521 27.7982 20.6971 25.8071L53.5896 52.983ZM57.846 45.0824C58.7323 42.1949 59.0412 39.1611 58.7551 36.1543L16.2803 40.1966C16.0356 37.6256 16.2997 35.0316 17.0576 32.5626L57.846 45.0824ZM58.7551 36.1543C58.4689 33.1474 57.5933 30.2264 56.1782 27.558L18.4836 47.547C17.2737 45.2653 16.525 42.7677 16.2803 40.1966L58.7551 36.1543ZM56.1782 27.558C54.7632 24.8895 52.8364 22.5259 50.5079 20.6021L23.3321 53.4947C21.3411 51.8497 19.6936 49.8287 18.4836 47.547L56.1782 27.558ZM50.5079 20.6021C48.1794 18.6783 45.4948 17.232 42.6073 16.3457L30.0876 57.1342C27.6186 56.3763 25.3231 55.1396 23.3321 53.4947L50.5079 20.6021ZM42.6073 16.3457C39.7199 15.4594 36.6861 15.1505 33.6792 15.4367L37.7216 57.9114C35.1506 58.1561 32.5565 57.892 30.0876 57.1342L42.6073 16.3457ZM33.6792 15.4367C30.6724 15.7228 27.7514 16.5984 25.0829 18.0135L45.0719 55.7081C42.7903 56.918 40.2926 57.6667 37.7216 57.9114L33.6792 15.4367ZM25.0829 18.0135C22.4145 19.4285 20.0509 21.3553 18.1271 23.6838L51.0196 50.8596C49.3746 52.8506 47.3536 54.4981 45.0719 55.7081L25.0829 18.0135ZM18.0579 23.768C12.0053 31.1704 8.69877 40.4381 8.69877 50.0001H51.3654C51.3654 50.2827 51.2677 50.5566 51.0888 50.7755L18.0579 23.768ZM8.69877 50.0001C8.69877 59.562 12.0053 68.8297 18.0579 76.2321L51.0888 49.2246C51.2677 49.4435 51.3654 49.7174 51.3654 50.0001H8.69877ZM18.1343 76.325C22.019 81.0218 27.6092 83.9847 33.677 84.5625L37.7222 42.0881C42.9107 42.5822 47.6907 45.1157 51.0124 49.1317L18.1343 76.325ZM33.677 84.5625C39.7448 85.1404 45.7938 83.2861 50.4953 79.407L23.3414 46.4964C27.3615 43.1795 32.5338 41.5939 37.7222 42.0881L33.677 84.5625ZM42 49.9761C42.0024 47.8614 42.8435 45.8341 44.3388 44.3388L74.5087 74.5087C81.0032 68.0142 84.6563 59.2087 84.6667 50.024L42 49.9761ZM44.3388 44.3388C45.834 42.8435 47.8614 42.0024 49.976 42.0001L50.024 84.6667C59.2086 84.6564 68.0141 81.0032 74.5087 74.5087L44.3388 44.3388ZM50.7571 42.0135C51.8259 42.0514 54.1264 42.6878 56.0179 44.8155C57.6339 46.6331 58.1003 48.58 58.1002 50.0008C58.1001 51.4215 57.6333 53.3677 56.0177 55.1846C54.1262 57.3116 51.8251 57.9489 50.7533 57.9867L49.2467 15.3467C4.17281 16.9393 4.15344 83.0521 49.2429 84.6533L50.7571 42.0135ZM49.976 58C47.8614 57.9977 45.834 57.1566 44.3388 55.6613L74.5087 25.4914C68.0141 18.9969 59.2086 15.3437 50.024 15.3334L49.976 58ZM44.3388 55.6613C42.8435 54.166 42.0024 52.1387 42 50.024L84.6667 49.9761C84.6563 40.7914 81.0032 31.9859 74.5087 25.4914L44.3388 55.6613ZM73 56.6667C73 50.5667 70.5768 44.7166 66.2635 40.4033L36.0936 70.5732C32.4054 66.8849 30.3333 61.8827 30.3333 56.6667H73ZM66.2635 40.4033C61.9501 36.0899 56.1 33.6667 50 33.6667V76.3334C44.7841 76.3334 39.7818 74.2614 36.0936 70.5732L66.2635 40.4033ZM50 33.6667C43.9 33.6667 38.0499 36.0899 33.7365 40.4033L63.9064 70.5732C60.2182 74.2614 55.2159 76.3334 50 76.3334V33.6667ZM33.7365 40.4033C29.4232 44.7166 27 50.5667 27 56.6667H69.6667C69.6667 61.8827 67.5946 66.8849 63.9064 70.5732L33.7365 40.4033ZM27 56.6667C27 62.7667 29.4232 68.6168 33.7365 72.9302L63.9064 42.7603C67.5947 46.4485 69.6667 51.4508 69.6667 56.6667H27ZM33.7365 72.9302C38.0499 77.2435 43.9001 79.6667 50 79.6667V37.0001C55.2159 37.0001 60.2182 39.072 63.9064 42.7603L33.7365 72.9302ZM50 79.6667C56.0999 79.6667 61.9501 77.2435 66.2635 72.9302L36.0936 42.7603C39.7818 39.072 44.7841 37.0001 50 37.0001V79.6667ZM66.2635 72.9302C70.5768 68.6168 73 62.7667 73 56.6667H30.3333C30.3333 51.4508 32.4053 46.4485 36.0936 42.7603L66.2635 72.9302ZM73 43.3334C73 37.2334 70.5768 31.3833 66.2635 27.0699L36.0936 57.2398C32.4054 53.5516 30.3333 48.5493 30.3333 43.3334H73ZM66.2635 27.0699C61.9501 22.7566 56.1 20.3334 50 20.3334V63C44.7841 63 39.7818 60.928 36.0936 57.2398L66.2635 27.0699ZM50 20.3334C43.9 20.3334 38.0499 22.7566 33.7365 27.0699L63.9064 57.2398C60.2182 60.928 55.2159 63 50 63V20.3334ZM33.7365 27.0699C29.4232 31.3833 27 37.2334 27 43.3334H69.6667C69.6667 48.5493 67.5946 53.5516 63.9064 57.2398L33.7365 27.0699ZM27 43.3334V50.0001H69.6667V43.3334H27ZM27 50.0001C27 56.1 29.4232 61.9502 33.7365 66.2635L63.9064 36.0936C67.5946 39.7818 69.6667 44.7841 69.6667 50.0001H27ZM33.7365 66.2635C38.0499 70.5768 43.9 73 50 73V30.3334C55.2159 30.3334 60.2182 32.4054 63.9064 36.0936L33.7365 66.2635ZM50 73C56.1 73 61.9501 70.5768 66.2635 66.2635L36.0936 36.0936C39.7818 32.4054 44.7841 30.3334 50 30.3334V73ZM66.2635 66.2635C70.5768 61.9502 73 56.1 73 50.0001H30.3333C30.3333 44.7841 32.4054 39.7818 36.0936 36.0936L66.2635 66.2635ZM73 50.0001V43.3334H30.3333V50.0001H73Z" fill="white" mask="url(#path-3-inside-1_150_4073)"/>
</svg>
