<svg width="20" height="20" viewBox="0 0 20 20" fill="none" xmlns="http://www.w3.org/2000/svg">
<path d="M15.8333 0H10.8333C9.72867 0.00132321 8.66963 0.440735 7.88852 1.22185C7.1074 2.00296 6.66799 3.062 6.66667 4.16667V4.25C5.72618 4.44341 4.88112 4.95515 4.27393 5.69896C3.66674 6.44277 3.33455 7.37316 3.33333 8.33333V8.41667C2.39284 8.61008 1.54779 9.12182 0.940598 9.86562C0.333408 10.6094 0.0012121 11.5398 0 12.5L0 15.8333C0.00132321 16.938 0.440735 17.997 1.22185 18.7782C2.00296 19.5593 3.062 19.9987 4.16667 20H9.16667C10.2713 19.9987 11.3304 19.5593 12.1115 18.7782C12.8926 17.997 13.332 16.938 13.3333 15.8333V15.75C14.2738 15.5566 15.1189 15.0449 15.7261 14.301C16.3333 13.5572 16.6655 12.6268 16.6667 11.6667V11.5833C17.6072 11.3899 18.4522 10.8782 19.0594 10.1344C19.6666 9.39057 19.9988 8.46017 20 7.5V4.16667C19.9987 3.062 19.5593 2.00296 18.7782 1.22185C17.997 0.440735 16.938 0.00132321 15.8333 0V0ZM1.66667 12.5C1.66667 11.837 1.93006 11.2011 2.3989 10.7322C2.86774 10.2634 3.50363 10 4.16667 10H9.16667C9.61972 10.0012 10.0639 10.126 10.4512 10.361C10.8386 10.5959 11.1545 10.9321 11.365 11.3333L8.48583 14.2192L8.09 13.82C7.79492 13.5227 7.39835 13.348 6.97982 13.3308C6.5613 13.3137 6.15176 13.4554 5.83333 13.7275L1.9825 17.0275C1.77765 16.6627 1.66896 16.2517 1.66667 15.8333V12.5ZM11.6667 15.8333C11.6667 16.4964 11.4033 17.1323 10.9344 17.6011C10.4656 18.0699 9.82971 18.3333 9.16667 18.3333H4.16667C3.84714 18.3326 3.53076 18.2701 3.235 18.1492L6.90667 15L7.30333 15.4008C7.61588 15.7133 8.03973 15.8888 8.48167 15.8888C8.92361 15.8888 9.34745 15.7133 9.66 15.4008L11.6667 13.39V15.8333ZM15 11.6667C14.9979 12.1819 14.8366 12.6839 14.5383 13.1039C14.2399 13.524 13.8191 13.8416 13.3333 14.0133V12.5C13.332 11.3953 12.8926 10.3363 12.1115 9.55518C11.3304 8.77407 10.2713 8.33466 9.16667 8.33333H5C5 7.67029 5.26339 7.03441 5.73223 6.56557C6.20107 6.09673 6.83696 5.83333 7.5 5.83333H12.5C13.163 5.83333 13.7989 6.09673 14.2678 6.56557C14.7366 7.03441 15 7.67029 15 8.33333V11.6667ZM18.3333 7.5C18.3312 8.01522 18.1699 8.51719 17.8716 8.93725C17.5733 9.35731 17.1524 9.67493 16.6667 9.84667V8.33333C16.6653 7.22867 16.2259 6.16963 15.4448 5.38852C14.6637 4.6074 13.6047 4.16799 12.5 4.16667H8.33333C8.33333 3.50363 8.59672 2.86774 9.06557 2.3989C9.53441 1.93006 10.1703 1.66667 10.8333 1.66667H15.8333C16.4964 1.66667 17.1323 1.93006 17.6011 2.3989C18.0699 2.86774 18.3333 3.50363 18.3333 4.16667V7.5ZM3.33333 12.5C3.33333 12.3352 3.38221 12.1741 3.47378 12.037C3.56534 11.9 3.69549 11.7932 3.84776 11.7301C4.00004 11.667 4.16759 11.6505 4.32924 11.6827C4.49089 11.7148 4.63938 11.7942 4.75592 11.9107C4.87247 12.0273 4.95183 12.1758 4.98399 12.3374C5.01614 12.4991 4.99964 12.6666 4.93657 12.8189C4.87349 12.9712 4.76668 13.1013 4.62964 13.1929C4.4926 13.2845 4.33148 13.3333 4.16667 13.3333C3.94565 13.3333 3.73369 13.2455 3.57741 13.0893C3.42113 12.933 3.33333 12.721 3.33333 12.5Z" fill="white"/>
</svg>
