<svg width="15" height="12" viewBox="0 0 15 12" fill="none" xmlns="http://www.w3.org/2000/svg">
<path d="M12.8333 1.66667V3.35256H11.7381C11.4125 2.69675 10.9478 2.12161 10.3823 1.66667H12.8333ZM4.11752 1.66667C3.55195 2.12158 3.08726 2.6967 2.7617 3.35256H1.66667V1.66667H4.11752ZM1.66667 9.48718V7.80128H2.76194C3.08752 8.45709 3.55217 9.03224 4.11772 9.48718H1.66667ZM11.7383 7.80128H12.8333V9.48718H10.3825C10.948 9.03227 11.4127 8.45715 11.7383 7.80128ZM6.85112 5.17804C6.95691 5.07225 7.10039 5.01282 7.25 5.01282C7.39961 5.01282 7.54309 5.07225 7.64888 5.17804C7.75467 5.28383 7.8141 5.42731 7.8141 5.57692C7.8141 5.72653 7.75467 5.87001 7.64888 5.9758C7.54309 6.08159 7.39961 6.14102 7.25 6.14102C7.10039 6.14102 6.95691 6.08159 6.85112 5.9758C6.74533 5.87001 6.6859 5.72653 6.6859 5.57692C6.6859 5.42731 6.74533 5.28383 6.85112 5.17804Z" fill="#39537D" stroke="#D9D9D9" stroke-width="3.33333"/>
</svg>
