<svg width="18" height="18" viewBox="0 0 18 18" fill="none" xmlns="http://www.w3.org/2000/svg">
<mask id="path-1-inside-1_150_5091" fill="white">
<path d="M8.75 0C8.65331 0 8.56057 0.0384113 8.4922 0.106784C8.42383 0.175157 8.38542 0.26789 8.38542 0.364583C8.38542 0.461277 8.42383 0.55401 8.4922 0.622383C8.56057 0.690755 8.65331 0.729167 8.75 0.729167C8.84669 0.729167 8.93943 0.690755 9.0078 0.622383C9.07617 0.55401 9.11458 0.461277 9.11458 0.364583C9.11458 0.26789 9.07617 0.175157 9.0078 0.106784C8.93943 0.0384113 8.84669 0 8.75 0ZM6.57959 0.285543C6.4829 0.285543 6.39016 0.323954 6.32179 0.392327C6.25342 0.460699 6.21501 0.553433 6.21501 0.650126C6.21501 0.74682 6.25342 0.839553 6.32179 0.907926C6.39016 0.976298 6.4829 1.01471 6.57959 1.01471C6.67628 1.01471 6.76902 0.976298 6.83739 0.907926C6.90576 0.839553 6.94417 0.74682 6.94417 0.650126C6.94417 0.553433 6.90576 0.460699 6.83739 0.392327C6.76902 0.323954 6.67628 0.285543 6.57959 0.285543V0.285543ZM10.9204 0.285543C10.8237 0.285543 10.731 0.323954 10.6626 0.392327C10.5942 0.460699 10.5558 0.553433 10.5558 0.650126C10.5558 0.74682 10.5942 0.839553 10.6626 0.907926C10.731 0.976298 10.8237 1.01471 10.9204 1.01471C11.0171 1.01471 11.1098 0.976298 11.1782 0.907926C11.2466 0.839553 11.285 0.74682 11.285 0.650126C11.285 0.553433 11.2466 0.460699 11.1782 0.392327C11.1098 0.323954 11.0171 0.285543 10.9204 0.285543V0.285543ZM4.55729 1.12295C4.4606 1.12295 4.36786 1.16136 4.29949 1.22973C4.23112 1.2981 4.19271 1.39084 4.19271 1.48753C4.19271 1.58422 4.23112 1.67696 4.29949 1.74533C4.36786 1.8137 4.4606 1.85211 4.55729 1.85211C4.65399 1.85211 4.74672 1.8137 4.81509 1.74533C4.88346 1.67696 4.92188 1.58422 4.92188 1.48753C4.92188 1.39084 4.88346 1.2981 4.81509 1.22973C4.74672 1.16136 4.65399 1.12295 4.55729 1.12295ZM12.9427 1.12295C12.846 1.12295 12.7533 1.16136 12.6849 1.22973C12.6165 1.2981 12.5781 1.39084 12.5781 1.48753C12.5781 1.58422 12.6165 1.67696 12.6849 1.74533C12.7533 1.8137 12.846 1.85211 12.9427 1.85211C13.0394 1.85211 13.1321 1.8137 13.2005 1.74533C13.2689 1.67696 13.3073 1.58422 13.3073 1.48753C13.3073 1.39084 13.2689 1.2981 13.2005 1.22973C13.1321 1.16136 13.0394 1.12295 12.9427 1.12295ZM8.75 1.45833C4.72724 1.45833 1.45833 4.72724 1.45833 8.75C1.45833 12.7728 4.72724 16.0417 8.75 16.0417C12.7728 16.0417 16.0417 12.7728 16.0417 8.75C16.0417 4.72724 12.7728 1.45833 8.75 1.45833ZM2.82054 2.45595C2.72384 2.45595 2.63111 2.49436 2.56274 2.56274C2.49436 2.63111 2.45595 2.72384 2.45595 2.82054C2.45595 2.91723 2.49436 3.00996 2.56274 3.07834C2.63111 3.14671 2.72384 3.18512 2.82054 3.18512C2.91723 3.18512 3.00996 3.14671 3.07834 3.07834C3.14671 3.00996 3.18512 2.91723 3.18512 2.82054C3.18512 2.72384 3.14671 2.63111 3.07834 2.56274C3.00996 2.49436 2.91723 2.45595 2.82054 2.45595ZM14.6795 2.45595C14.5828 2.45595 14.49 2.49436 14.4217 2.56274C14.3533 2.63111 14.3149 2.72384 14.3149 2.82054C14.3149 2.91723 14.3533 3.00996 14.4217 3.07834C14.49 3.14671 14.5828 3.18512 14.6795 3.18512C14.7762 3.18512 14.8689 3.14671 14.9373 3.07834C15.0056 3.00996 15.044 2.91723 15.044 2.82054C15.044 2.72384 15.0056 2.63111 14.9373 2.56274C14.8689 2.49436 14.7762 2.45595 14.6795 2.45595ZM6.78182 2.488C6.45091 3.14862 6.19792 4.00597 6.19792 4.23828C6.19792 4.63203 6.50599 4.73958 7.0638 4.73958C7.64641 4.73958 7.65625 5.18802 7.65625 5.28646V6.5625C7.65625 7.15495 7.24609 7.29167 6.92708 7.29167C5.87708 7.29167 5.83333 7.99167 5.83333 8.38542C5.83333 8.52214 5.80964 8.75 5.51432 8.75C4.96745 8.75 5.36849 8.38542 4.8763 8.38542H4.64844C4.375 8.38542 4.375 8.59724 4.375 8.75C4.375 9.11458 4.73958 10.2083 5.83333 10.2083H6.10677H6.65365C6.88333 10.2083 7.12031 10.2411 7.33724 10.4362C7.79297 10.8464 7.85495 10.9375 8.2487 10.9375C8.61328 10.9375 8.75 11.3076 8.75 11.4388C8.75 12.1224 8.3783 12.5038 8.16539 12.6657C8.06111 12.7452 7.98632 12.8544 7.93966 12.9769C7.77431 13.4098 7.42238 14.3479 7.2817 15.1423C6.77331 15.0263 6.28894 14.8503 5.83333 14.6239V14.0365C5.83333 13.3802 5.10417 12.5089 5.10417 11.3932C5.10417 10.737 4.18177 10.1318 3.91927 9.9349C3.55396 9.66073 3.23862 9.34553 2.97648 8.86465C2.93601 8.79063 2.88396 8.72141 2.82125 8.66526L2.71372 8.56985C2.58029 8.45136 2.40779 8.38542 2.22951 8.38542H2.20601C2.35872 5.60454 4.22863 3.28777 6.78182 2.488ZM12.5461 3.40088C14.2189 4.58934 15.3125 6.53835 15.3125 8.75C15.3125 10.9428 14.2368 12.8766 12.5881 14.0678C12.4241 13.7113 12.1935 13.2117 12.0968 12.9826C11.9743 12.6927 11.8882 12.4894 11.8226 12.3417C11.7428 12.1631 11.5959 12.0253 11.411 11.96C10.9987 11.8149 10.2083 11.4231 10.2083 10.5729C10.2083 10.212 10.3451 9.47917 11.6667 9.47917C12.651 9.47917 13.4896 8.71354 13.4896 8.38542C13.4896 7.79552 13.2801 7.34337 13.1492 7.11222C13.0654 6.96457 12.8881 6.89843 12.7269 6.95129C12.56 7.00635 12.336 7.09844 12.1231 7.24609C11.5303 7.65625 11.5901 8.38542 10.5729 8.38542C10.4417 8.38542 10.2083 7.70365 10.2083 7.47396C10.2083 7.29167 10.4891 7.21984 10.7552 7.10938C10.9433 7.03135 10.9375 6.92708 10.9375 6.74479C10.9375 6.61865 10.6878 6.44 10.6185 6.33464C10.5915 6.29344 10.5736 6.24568 10.5729 6.19792C10.5718 6.11479 10.6136 6.0304 10.684 5.97717L11.4388 5.51432C11.7237 5.33626 12.3014 3.99326 12.5461 3.40088ZM1.48753 4.19271C1.39084 4.19271 1.2981 4.23112 1.22973 4.29949C1.16136 4.36786 1.12295 4.4606 1.12295 4.55729C1.12295 4.65399 1.16136 4.74672 1.22973 4.81509C1.2981 4.88346 1.39084 4.92188 1.48753 4.92188C1.58422 4.92188 1.67696 4.88346 1.74533 4.81509C1.8137 4.74672 1.85211 4.65399 1.85211 4.55729C1.85211 4.4606 1.8137 4.36786 1.74533 4.29949C1.67696 4.23112 1.58422 4.19271 1.48753 4.19271ZM16.0125 4.19271C15.9158 4.19271 15.823 4.23112 15.7547 4.29949C15.6863 4.36786 15.6479 4.4606 15.6479 4.55729C15.6479 4.65399 15.6863 4.74672 15.7547 4.81509C15.823 4.88346 15.9158 4.92188 16.0125 4.92188C16.1092 4.92188 16.2019 4.88346 16.2703 4.81509C16.3386 4.74672 16.3771 4.65399 16.3771 4.55729C16.3771 4.4606 16.3386 4.36786 16.2703 4.29949C16.2019 4.23112 16.1092 4.19271 16.0125 4.19271ZM0.650126 6.21501C0.553433 6.21501 0.460699 6.25342 0.392327 6.32179C0.323954 6.39016 0.285543 6.4829 0.285543 6.57959C0.285543 6.67628 0.323954 6.76902 0.392327 6.83739C0.460699 6.90576 0.553433 6.94417 0.650126 6.94417C0.74682 6.94417 0.839553 6.90576 0.907926 6.83739C0.976298 6.76902 1.01471 6.67628 1.01471 6.57959C1.01471 6.4829 0.976298 6.39016 0.907926 6.32179C0.839553 6.25342 0.74682 6.21501 0.650126 6.21501ZM16.8499 6.21501C16.7532 6.21501 16.6604 6.25342 16.5921 6.32179C16.5237 6.39016 16.4853 6.4829 16.4853 6.57959C16.4853 6.67628 16.5237 6.76902 16.5921 6.83739C16.6604 6.90576 16.7532 6.94417 16.8499 6.94417C16.9466 6.94417 17.0393 6.90576 17.1077 6.83739C17.176 6.76902 17.2145 6.67628 17.2145 6.57959C17.2145 6.4829 17.176 6.39016 17.1077 6.32179C17.0393 6.25342 16.9466 6.21501 16.8499 6.21501ZM0.364583 8.38542C0.26789 8.38542 0.175157 8.42383 0.106784 8.4922C0.0384113 8.56057 0 8.65331 0 8.75C0 8.84669 0.0384113 8.93943 0.106784 9.0078C0.175157 9.07617 0.26789 9.11458 0.364583 9.11458C0.461277 9.11458 0.55401 9.07617 0.622383 9.0078C0.690755 8.93943 0.729167 8.84669 0.729167 8.75C0.729167 8.65331 0.690755 8.56057 0.622383 8.4922C0.55401 8.42383 0.461277 8.38542 0.364583 8.38542ZM17.1354 8.38542C17.0387 8.38542 16.946 8.42383 16.8776 8.4922C16.8092 8.56057 16.7708 8.65331 16.7708 8.75C16.7708 8.84669 16.8092 8.93943 16.8776 9.0078C16.946 9.07617 17.0387 9.11458 17.1354 9.11458C17.2321 9.11458 17.3248 9.07617 17.3932 9.0078C17.4616 8.93943 17.5 8.84669 17.5 8.75C17.5 8.65331 17.4616 8.56057 17.3932 8.4922C17.3248 8.42383 17.2321 8.38542 17.1354 8.38542ZM0.650126 10.5558C0.553433 10.5558 0.460699 10.5942 0.392327 10.6626C0.323954 10.731 0.285543 10.8237 0.285543 10.9204C0.285543 11.0171 0.323954 11.1098 0.392327 11.1782C0.460699 11.2466 0.553433 11.285 0.650126 11.285C0.74682 11.285 0.839553 11.2466 0.907926 11.1782C0.976298 11.1098 1.01471 11.0171 1.01471 10.9204C1.01471 10.8237 0.976298 10.731 0.907926 10.6626C0.839553 10.5942 0.74682 10.5558 0.650126 10.5558ZM16.8499 10.5558C16.7532 10.5558 16.6604 10.5942 16.5921 10.6626C16.5237 10.731 16.4853 10.8237 16.4853 10.9204C16.4853 11.0171 16.5237 11.1098 16.5921 11.1782C16.6604 11.2466 16.7532 11.285 16.8499 11.285C16.9466 11.285 17.0393 11.2466 17.1077 11.1782C17.176 11.1098 17.2145 11.0171 17.2145 10.9204C17.2145 10.8237 17.176 10.731 17.1077 10.6626C17.0393 10.5942 16.9466 10.5558 16.8499 10.5558ZM1.48753 12.5781C1.39084 12.5781 1.2981 12.6165 1.22973 12.6849C1.16136 12.7533 1.12295 12.846 1.12295 12.9427C1.12295 13.0394 1.16136 13.1321 1.22973 13.2005C1.2981 13.2689 1.39084 13.3073 1.48753 13.3073C1.58422 13.3073 1.67696 13.2689 1.74533 13.2005C1.8137 13.1321 1.85211 13.0394 1.85211 12.9427C1.85211 12.846 1.8137 12.7533 1.74533 12.6849C1.67696 12.6165 1.58422 12.5781 1.48753 12.5781ZM16.0125 12.5781C15.9158 12.5781 15.823 12.6165 15.7547 12.6849C15.6863 12.7533 15.6479 12.846 15.6479 12.9427C15.6479 13.0394 15.6863 13.1321 15.7547 13.2005C15.823 13.2689 15.9158 13.3073 16.0125 13.3073C16.1092 13.3073 16.2019 13.2689 16.2703 13.2005C16.3386 13.1321 16.3771 13.0394 16.3771 12.9427C16.3771 12.846 16.3386 12.7533 16.2703 12.6849C16.2019 12.6165 16.1092 12.5781 16.0125 12.5781ZM2.82054 14.3149C2.72384 14.3149 2.63111 14.3533 2.56274 14.4217C2.49436 14.49 2.45595 14.5828 2.45595 14.6795C2.45595 14.7762 2.49436 14.8689 2.56274 14.9373C2.63111 15.0056 2.72384 15.044 2.82054 15.044C2.91723 15.044 3.00996 15.0056 3.07834 14.9373C3.14671 14.8689 3.18512 14.7762 3.18512 14.6795C3.18512 14.5828 3.14671 14.49 3.07834 14.4217C3.00996 14.3533 2.91723 14.3149 2.82054 14.3149ZM14.6795 14.3149C14.5828 14.3149 14.49 14.3533 14.4217 14.4217C14.3533 14.49 14.3149 14.5828 14.3149 14.6795C14.3149 14.7762 14.3533 14.8689 14.4217 14.9373C14.49 15.0056 14.5828 15.044 14.6795 15.044C14.7762 15.044 14.8689 15.0056 14.9373 14.9373C15.0056 14.8689 15.044 14.7762 15.044 14.6795C15.044 14.5828 15.0056 14.49 14.9373 14.4217C14.8689 14.3533 14.7762 14.3149 14.6795 14.3149ZM4.55729 15.6479C4.4606 15.6479 4.36786 15.6863 4.29949 15.7547C4.23112 15.823 4.19271 15.9158 4.19271 16.0125C4.19271 16.1092 4.23112 16.2019 4.29949 16.2703C4.36786 16.3386 4.4606 16.3771 4.55729 16.3771C4.65399 16.3771 4.74672 16.3386 4.81509 16.2703C4.88346 16.2019 4.92188 16.1092 4.92188 16.0125C4.92188 15.9158 4.88346 15.823 4.81509 15.7547C4.74672 15.6863 4.65399 15.6479 4.55729 15.6479ZM12.9427 15.6479C12.846 15.6479 12.7533 15.6863 12.6849 15.7547C12.6165 15.823 12.5781 15.9158 12.5781 16.0125C12.5781 16.1092 12.6165 16.2019 12.6849 16.2703C12.7533 16.3386 12.846 16.3771 12.9427 16.3771C13.0394 16.3771 13.1321 16.3386 13.2005 16.2703C13.2689 16.2019 13.3073 16.1092 13.3073 16.0125C13.3073 15.9158 13.2689 15.823 13.2005 15.7547C13.1321 15.6863 13.0394 15.6479 12.9427 15.6479ZM6.57959 16.4853C6.4829 16.4853 6.39016 16.5237 6.32179 16.5921C6.25342 16.6604 6.21501 16.7532 6.21501 16.8499C6.21501 16.9466 6.25342 17.0393 6.32179 17.1077C6.39016 17.176 6.4829 17.2145 6.57959 17.2145C6.67628 17.2145 6.76902 17.176 6.83739 17.1077C6.90576 17.0393 6.94417 16.9466 6.94417 16.8499C6.94417 16.7532 6.90576 16.6604 6.83739 16.5921C6.76902 16.5237 6.67628 16.4853 6.57959 16.4853ZM10.9204 16.4853C10.8237 16.4853 10.731 16.5237 10.6626 16.5921C10.5942 16.6604 10.5558 16.7532 10.5558 16.8499C10.5558 16.9466 10.5942 17.0393 10.6626 17.1077C10.731 17.176 10.8237 17.2145 10.9204 17.2145C11.0171 17.2145 11.1098 17.176 11.1782 17.1077C11.2466 17.0393 11.285 16.9466 11.285 16.8499C11.285 16.7532 11.2466 16.6604 11.1782 16.5921C11.1098 16.5237 11.0171 16.4853 10.9204 16.4853ZM8.75 16.7708C8.65331 16.7708 8.56057 16.8092 8.4922 16.8776C8.42383 16.946 8.38542 17.0387 8.38542 17.1354C8.38542 17.2321 8.42383 17.3248 8.4922 17.3932C8.56057 17.4616 8.65331 17.5 8.75 17.5C8.84669 17.5 8.93943 17.4616 9.0078 17.3932C9.07617 17.3248 9.11458 17.2321 9.11458 17.1354C9.11458 17.0387 9.07617 16.946 9.0078 16.8776C8.93943 16.8092 8.84669 16.7708 8.75 16.7708Z"/>
</mask>
<path d="M8.75 0C8.65331 0 8.56057 0.0384113 8.4922 0.106784C8.42383 0.175157 8.38542 0.26789 8.38542 0.364583C8.38542 0.461277 8.42383 0.55401 8.4922 0.622383C8.56057 0.690755 8.65331 0.729167 8.75 0.729167C8.84669 0.729167 8.93943 0.690755 9.0078 0.622383C9.07617 0.55401 9.11458 0.461277 9.11458 0.364583C9.11458 0.26789 9.07617 0.175157 9.0078 0.106784C8.93943 0.0384113 8.84669 0 8.75 0ZM6.57959 0.285543C6.4829 0.285543 6.39016 0.323954 6.32179 0.392327C6.25342 0.460699 6.21501 0.553433 6.21501 0.650126C6.21501 0.74682 6.25342 0.839553 6.32179 0.907926C6.39016 0.976298 6.4829 1.01471 6.57959 1.01471C6.67628 1.01471 6.76902 0.976298 6.83739 0.907926C6.90576 0.839553 6.94417 0.74682 6.94417 0.650126C6.94417 0.553433 6.90576 0.460699 6.83739 0.392327C6.76902 0.323954 6.67628 0.285543 6.57959 0.285543V0.285543ZM10.9204 0.285543C10.8237 0.285543 10.731 0.323954 10.6626 0.392327C10.5942 0.460699 10.5558 0.553433 10.5558 0.650126C10.5558 0.74682 10.5942 0.839553 10.6626 0.907926C10.731 0.976298 10.8237 1.01471 10.9204 1.01471C11.0171 1.01471 11.1098 0.976298 11.1782 0.907926C11.2466 0.839553 11.285 0.74682 11.285 0.650126C11.285 0.553433 11.2466 0.460699 11.1782 0.392327C11.1098 0.323954 11.0171 0.285543 10.9204 0.285543V0.285543ZM4.55729 1.12295C4.4606 1.12295 4.36786 1.16136 4.29949 1.22973C4.23112 1.2981 4.19271 1.39084 4.19271 1.48753C4.19271 1.58422 4.23112 1.67696 4.29949 1.74533C4.36786 1.8137 4.4606 1.85211 4.55729 1.85211C4.65399 1.85211 4.74672 1.8137 4.81509 1.74533C4.88346 1.67696 4.92188 1.58422 4.92188 1.48753C4.92188 1.39084 4.88346 1.2981 4.81509 1.22973C4.74672 1.16136 4.65399 1.12295 4.55729 1.12295ZM12.9427 1.12295C12.846 1.12295 12.7533 1.16136 12.6849 1.22973C12.6165 1.2981 12.5781 1.39084 12.5781 1.48753C12.5781 1.58422 12.6165 1.67696 12.6849 1.74533C12.7533 1.8137 12.846 1.85211 12.9427 1.85211C13.0394 1.85211 13.1321 1.8137 13.2005 1.74533C13.2689 1.67696 13.3073 1.58422 13.3073 1.48753C13.3073 1.39084 13.2689 1.2981 13.2005 1.22973C13.1321 1.16136 13.0394 1.12295 12.9427 1.12295ZM8.75 1.45833C4.72724 1.45833 1.45833 4.72724 1.45833 8.75C1.45833 12.7728 4.72724 16.0417 8.75 16.0417C12.7728 16.0417 16.0417 12.7728 16.0417 8.75C16.0417 4.72724 12.7728 1.45833 8.75 1.45833ZM2.82054 2.45595C2.72384 2.45595 2.63111 2.49436 2.56274 2.56274C2.49436 2.63111 2.45595 2.72384 2.45595 2.82054C2.45595 2.91723 2.49436 3.00996 2.56274 3.07834C2.63111 3.14671 2.72384 3.18512 2.82054 3.18512C2.91723 3.18512 3.00996 3.14671 3.07834 3.07834C3.14671 3.00996 3.18512 2.91723 3.18512 2.82054C3.18512 2.72384 3.14671 2.63111 3.07834 2.56274C3.00996 2.49436 2.91723 2.45595 2.82054 2.45595ZM14.6795 2.45595C14.5828 2.45595 14.49 2.49436 14.4217 2.56274C14.3533 2.63111 14.3149 2.72384 14.3149 2.82054C14.3149 2.91723 14.3533 3.00996 14.4217 3.07834C14.49 3.14671 14.5828 3.18512 14.6795 3.18512C14.7762 3.18512 14.8689 3.14671 14.9373 3.07834C15.0056 3.00996 15.044 2.91723 15.044 2.82054C15.044 2.72384 15.0056 2.63111 14.9373 2.56274C14.8689 2.49436 14.7762 2.45595 14.6795 2.45595ZM6.78182 2.488C6.45091 3.14862 6.19792 4.00597 6.19792 4.23828C6.19792 4.63203 6.50599 4.73958 7.0638 4.73958C7.64641 4.73958 7.65625 5.18802 7.65625 5.28646V6.5625C7.65625 7.15495 7.24609 7.29167 6.92708 7.29167C5.87708 7.29167 5.83333 7.99167 5.83333 8.38542C5.83333 8.52214 5.80964 8.75 5.51432 8.75C4.96745 8.75 5.36849 8.38542 4.8763 8.38542H4.64844C4.375 8.38542 4.375 8.59724 4.375 8.75C4.375 9.11458 4.73958 10.2083 5.83333 10.2083H6.10677H6.65365C6.88333 10.2083 7.12031 10.2411 7.33724 10.4362C7.79297 10.8464 7.85495 10.9375 8.2487 10.9375C8.61328 10.9375 8.75 11.3076 8.75 11.4388C8.75 12.1224 8.3783 12.5038 8.16539 12.6657C8.06111 12.7452 7.98632 12.8544 7.93966 12.9769C7.77431 13.4098 7.42238 14.3479 7.2817 15.1423C6.77331 15.0263 6.28894 14.8503 5.83333 14.6239V14.0365C5.83333 13.3802 5.10417 12.5089 5.10417 11.3932C5.10417 10.737 4.18177 10.1318 3.91927 9.9349C3.55396 9.66073 3.23862 9.34553 2.97648 8.86465C2.93601 8.79063 2.88396 8.72141 2.82125 8.66526L2.71372 8.56985C2.58029 8.45136 2.40779 8.38542 2.22951 8.38542H2.20601C2.35872 5.60454 4.22863 3.28777 6.78182 2.488ZM12.5461 3.40088C14.2189 4.58934 15.3125 6.53835 15.3125 8.75C15.3125 10.9428 14.2368 12.8766 12.5881 14.0678C12.4241 13.7113 12.1935 13.2117 12.0968 12.9826C11.9743 12.6927 11.8882 12.4894 11.8226 12.3417C11.7428 12.1631 11.5959 12.0253 11.411 11.96C10.9987 11.8149 10.2083 11.4231 10.2083 10.5729C10.2083 10.212 10.3451 9.47917 11.6667 9.47917C12.651 9.47917 13.4896 8.71354 13.4896 8.38542C13.4896 7.79552 13.2801 7.34337 13.1492 7.11222C13.0654 6.96457 12.8881 6.89843 12.7269 6.95129C12.56 7.00635 12.336 7.09844 12.1231 7.24609C11.5303 7.65625 11.5901 8.38542 10.5729 8.38542C10.4417 8.38542 10.2083 7.70365 10.2083 7.47396C10.2083 7.29167 10.4891 7.21984 10.7552 7.10938C10.9433 7.03135 10.9375 6.92708 10.9375 6.74479C10.9375 6.61865 10.6878 6.44 10.6185 6.33464C10.5915 6.29344 10.5736 6.24568 10.5729 6.19792C10.5718 6.11479 10.6136 6.0304 10.684 5.97717L11.4388 5.51432C11.7237 5.33626 12.3014 3.99326 12.5461 3.40088ZM1.48753 4.19271C1.39084 4.19271 1.2981 4.23112 1.22973 4.29949C1.16136 4.36786 1.12295 4.4606 1.12295 4.55729C1.12295 4.65399 1.16136 4.74672 1.22973 4.81509C1.2981 4.88346 1.39084 4.92188 1.48753 4.92188C1.58422 4.92188 1.67696 4.88346 1.74533 4.81509C1.8137 4.74672 1.85211 4.65399 1.85211 4.55729C1.85211 4.4606 1.8137 4.36786 1.74533 4.29949C1.67696 4.23112 1.58422 4.19271 1.48753 4.19271ZM16.0125 4.19271C15.9158 4.19271 15.823 4.23112 15.7547 4.29949C15.6863 4.36786 15.6479 4.4606 15.6479 4.55729C15.6479 4.65399 15.6863 4.74672 15.7547 4.81509C15.823 4.88346 15.9158 4.92188 16.0125 4.92188C16.1092 4.92188 16.2019 4.88346 16.2703 4.81509C16.3386 4.74672 16.3771 4.65399 16.3771 4.55729C16.3771 4.4606 16.3386 4.36786 16.2703 4.29949C16.2019 4.23112 16.1092 4.19271 16.0125 4.19271ZM0.650126 6.21501C0.553433 6.21501 0.460699 6.25342 0.392327 6.32179C0.323954 6.39016 0.285543 6.4829 0.285543 6.57959C0.285543 6.67628 0.323954 6.76902 0.392327 6.83739C0.460699 6.90576 0.553433 6.94417 0.650126 6.94417C0.74682 6.94417 0.839553 6.90576 0.907926 6.83739C0.976298 6.76902 1.01471 6.67628 1.01471 6.57959C1.01471 6.4829 0.976298 6.39016 0.907926 6.32179C0.839553 6.25342 0.74682 6.21501 0.650126 6.21501ZM16.8499 6.21501C16.7532 6.21501 16.6604 6.25342 16.5921 6.32179C16.5237 6.39016 16.4853 6.4829 16.4853 6.57959C16.4853 6.67628 16.5237 6.76902 16.5921 6.83739C16.6604 6.90576 16.7532 6.94417 16.8499 6.94417C16.9466 6.94417 17.0393 6.90576 17.1077 6.83739C17.176 6.76902 17.2145 6.67628 17.2145 6.57959C17.2145 6.4829 17.176 6.39016 17.1077 6.32179C17.0393 6.25342 16.9466 6.21501 16.8499 6.21501ZM0.364583 8.38542C0.26789 8.38542 0.175157 8.42383 0.106784 8.4922C0.0384113 8.56057 0 8.65331 0 8.75C0 8.84669 0.0384113 8.93943 0.106784 9.0078C0.175157 9.07617 0.26789 9.11458 0.364583 9.11458C0.461277 9.11458 0.55401 9.07617 0.622383 9.0078C0.690755 8.93943 0.729167 8.84669 0.729167 8.75C0.729167 8.65331 0.690755 8.56057 0.622383 8.4922C0.55401 8.42383 0.461277 8.38542 0.364583 8.38542ZM17.1354 8.38542C17.0387 8.38542 16.946 8.42383 16.8776 8.4922C16.8092 8.56057 16.7708 8.65331 16.7708 8.75C16.7708 8.84669 16.8092 8.93943 16.8776 9.0078C16.946 9.07617 17.0387 9.11458 17.1354 9.11458C17.2321 9.11458 17.3248 9.07617 17.3932 9.0078C17.4616 8.93943 17.5 8.84669 17.5 8.75C17.5 8.65331 17.4616 8.56057 17.3932 8.4922C17.3248 8.42383 17.2321 8.38542 17.1354 8.38542ZM0.650126 10.5558C0.553433 10.5558 0.460699 10.5942 0.392327 10.6626C0.323954 10.731 0.285543 10.8237 0.285543 10.9204C0.285543 11.0171 0.323954 11.1098 0.392327 11.1782C0.460699 11.2466 0.553433 11.285 0.650126 11.285C0.74682 11.285 0.839553 11.2466 0.907926 11.1782C0.976298 11.1098 1.01471 11.0171 1.01471 10.9204C1.01471 10.8237 0.976298 10.731 0.907926 10.6626C0.839553 10.5942 0.74682 10.5558 0.650126 10.5558ZM16.8499 10.5558C16.7532 10.5558 16.6604 10.5942 16.5921 10.6626C16.5237 10.731 16.4853 10.8237 16.4853 10.9204C16.4853 11.0171 16.5237 11.1098 16.5921 11.1782C16.6604 11.2466 16.7532 11.285 16.8499 11.285C16.9466 11.285 17.0393 11.2466 17.1077 11.1782C17.176 11.1098 17.2145 11.0171 17.2145 10.9204C17.2145 10.8237 17.176 10.731 17.1077 10.6626C17.0393 10.5942 16.9466 10.5558 16.8499 10.5558ZM1.48753 12.5781C1.39084 12.5781 1.2981 12.6165 1.22973 12.6849C1.16136 12.7533 1.12295 12.846 1.12295 12.9427C1.12295 13.0394 1.16136 13.1321 1.22973 13.2005C1.2981 13.2689 1.39084 13.3073 1.48753 13.3073C1.58422 13.3073 1.67696 13.2689 1.74533 13.2005C1.8137 13.1321 1.85211 13.0394 1.85211 12.9427C1.85211 12.846 1.8137 12.7533 1.74533 12.6849C1.67696 12.6165 1.58422 12.5781 1.48753 12.5781ZM16.0125 12.5781C15.9158 12.5781 15.823 12.6165 15.7547 12.6849C15.6863 12.7533 15.6479 12.846 15.6479 12.9427C15.6479 13.0394 15.6863 13.1321 15.7547 13.2005C15.823 13.2689 15.9158 13.3073 16.0125 13.3073C16.1092 13.3073 16.2019 13.2689 16.2703 13.2005C16.3386 13.1321 16.3771 13.0394 16.3771 12.9427C16.3771 12.846 16.3386 12.7533 16.2703 12.6849C16.2019 12.6165 16.1092 12.5781 16.0125 12.5781ZM2.82054 14.3149C2.72384 14.3149 2.63111 14.3533 2.56274 14.4217C2.49436 14.49 2.45595 14.5828 2.45595 14.6795C2.45595 14.7762 2.49436 14.8689 2.56274 14.9373C2.63111 15.0056 2.72384 15.044 2.82054 15.044C2.91723 15.044 3.00996 15.0056 3.07834 14.9373C3.14671 14.8689 3.18512 14.7762 3.18512 14.6795C3.18512 14.5828 3.14671 14.49 3.07834 14.4217C3.00996 14.3533 2.91723 14.3149 2.82054 14.3149ZM14.6795 14.3149C14.5828 14.3149 14.49 14.3533 14.4217 14.4217C14.3533 14.49 14.3149 14.5828 14.3149 14.6795C14.3149 14.7762 14.3533 14.8689 14.4217 14.9373C14.49 15.0056 14.5828 15.044 14.6795 15.044C14.7762 15.044 14.8689 15.0056 14.9373 14.9373C15.0056 14.8689 15.044 14.7762 15.044 14.6795C15.044 14.5828 15.0056 14.49 14.9373 14.4217C14.8689 14.3533 14.7762 14.3149 14.6795 14.3149ZM4.55729 15.6479C4.4606 15.6479 4.36786 15.6863 4.29949 15.7547C4.23112 15.823 4.19271 15.9158 4.19271 16.0125C4.19271 16.1092 4.23112 16.2019 4.29949 16.2703C4.36786 16.3386 4.4606 16.3771 4.55729 16.3771C4.65399 16.3771 4.74672 16.3386 4.81509 16.2703C4.88346 16.2019 4.92188 16.1092 4.92188 16.0125C4.92188 15.9158 4.88346 15.823 4.81509 15.7547C4.74672 15.6863 4.65399 15.6479 4.55729 15.6479ZM12.9427 15.6479C12.846 15.6479 12.7533 15.6863 12.6849 15.7547C12.6165 15.823 12.5781 15.9158 12.5781 16.0125C12.5781 16.1092 12.6165 16.2019 12.6849 16.2703C12.7533 16.3386 12.846 16.3771 12.9427 16.3771C13.0394 16.3771 13.1321 16.3386 13.2005 16.2703C13.2689 16.2019 13.3073 16.1092 13.3073 16.0125C13.3073 15.9158 13.2689 15.823 13.2005 15.7547C13.1321 15.6863 13.0394 15.6479 12.9427 15.6479ZM6.57959 16.4853C6.4829 16.4853 6.39016 16.5237 6.32179 16.5921C6.25342 16.6604 6.21501 16.7532 6.21501 16.8499C6.21501 16.9466 6.25342 17.0393 6.32179 17.1077C6.39016 17.176 6.4829 17.2145 6.57959 17.2145C6.67628 17.2145 6.76902 17.176 6.83739 17.1077C6.90576 17.0393 6.94417 16.9466 6.94417 16.8499C6.94417 16.7532 6.90576 16.6604 6.83739 16.5921C6.76902 16.5237 6.67628 16.4853 6.57959 16.4853ZM10.9204 16.4853C10.8237 16.4853 10.731 16.5237 10.6626 16.5921C10.5942 16.6604 10.5558 16.7532 10.5558 16.8499C10.5558 16.9466 10.5942 17.0393 10.6626 17.1077C10.731 17.176 10.8237 17.2145 10.9204 17.2145C11.0171 17.2145 11.1098 17.176 11.1782 17.1077C11.2466 17.0393 11.285 16.9466 11.285 16.8499C11.285 16.7532 11.2466 16.6604 11.1782 16.5921C11.1098 16.5237 11.0171 16.4853 10.9204 16.4853ZM8.75 16.7708C8.65331 16.7708 8.56057 16.8092 8.4922 16.8776C8.42383 16.946 8.38542 17.0387 8.38542 17.1354C8.38542 17.2321 8.42383 17.3248 8.4922 17.3932C8.56057 17.4616 8.65331 17.5 8.75 17.5C8.84669 17.5 8.93943 17.4616 9.0078 17.3932C9.07617 17.3248 9.11458 17.2321 9.11458 17.1354C9.11458 17.0387 9.07617 16.946 9.0078 16.8776C8.93943 16.8092 8.84669 16.7708 8.75 16.7708Z" fill="#39537D" stroke="#D9D9D9" stroke-width="4" mask="url(#path-1-inside-1_150_5091)"/>
</svg>
