<svg width="43" height="43" viewBox="0 0 43 43" fill="none" xmlns="http://www.w3.org/2000/svg">
<g clip-path="url(#clip0_150_4524)" filter="url(#filter0_dd_150_4524)">
<path d="M37.1145 12.6823C37.1364 12.9997 37.1364 13.317 37.1364 13.6373C37.1364 23.3968 29.7068 34.6523 16.1214 34.6523V34.6465C12.1083 34.6523 8.17848 33.5028 4.80005 31.3353C5.3836 31.4055 5.97007 31.4406 6.558 31.4421C9.88378 31.445 13.1145 30.3291 15.7309 28.2743C12.5704 28.2143 9.79895 26.1536 8.83076 23.1452C9.93789 23.3587 11.0787 23.3149 12.1653 23.018C8.71961 22.3218 6.24063 19.2944 6.24063 15.7785V15.6849C7.26732 16.2567 8.41687 16.5741 9.59274 16.6092C6.3474 14.4403 5.34703 10.1229 7.30681 6.74739C11.0567 11.3617 16.5894 14.1668 22.5288 14.4637C21.9335 11.8984 22.7467 9.21028 24.6655 7.40699C27.6403 4.61065 32.3189 4.75397 35.1152 7.72728C36.7693 7.40114 38.3547 6.79419 39.8055 5.93423C39.2542 7.64392 38.1002 9.0962 36.5587 10.0191C38.0227 9.84648 39.4531 9.45452 40.8 8.85635C39.8085 10.3423 38.5595 11.6366 37.1145 12.6823Z" fill="#1D9BF0"/>
</g>
<defs>
<filter id="filter0_dd_150_4524" x="-1" y="0" width="44" height="44" filterUnits="userSpaceOnUse" color-interpolation-filters="sRGB">
<feFlood flood-opacity="0" result="BackgroundImageFix"/>
<feColorMatrix in="SourceAlpha" type="matrix" values="0 0 0 0 0 0 0 0 0 0 0 0 0 0 0 0 0 0 127 0" result="hardAlpha"/>
<feOffset dy="4"/>
<feGaussianBlur stdDeviation="2"/>
<feComposite in2="hardAlpha" operator="out"/>
<feColorMatrix type="matrix" values="0 0 0 0 0 0 0 0 0 0 0 0 0 0 0 0 0 0 0.25 0"/>
<feBlend mode="normal" in2="BackgroundImageFix" result="effect1_dropShadow_150_4524"/>
<feColorMatrix in="SourceAlpha" type="matrix" values="0 0 0 0 0 0 0 0 0 0 0 0 0 0 0 0 0 0 127 0" result="hardAlpha"/>
<feOffset dy="4"/>
<feGaussianBlur stdDeviation="2"/>
<feComposite in2="hardAlpha" operator="out"/>
<feColorMatrix type="matrix" values="0 0 0 0 0 0 0 0 0 0 0 0 0 0 0 0 0 0 0.25 0"/>
<feBlend mode="normal" in2="effect1_dropShadow_150_4524" result="effect2_dropShadow_150_4524"/>
<feBlend mode="normal" in="SourceGraphic" in2="effect2_dropShadow_150_4524" result="shape"/>
</filter>
<clipPath id="clip0_150_4524">
<rect width="36" height="36" fill="white" transform="translate(3)"/>
</clipPath>
</defs>
</svg>
