<svg width="20" height="20" viewBox="0 0 20 20" fill="none" xmlns="http://www.w3.org/2000/svg">
<path d="M13.4375 18.25H1.5625C0.701321 18.25 0 17.5494 0 16.6875V8.56247C0 7.70129 0.701321 6.99997 1.5625 6.99997H13.4375C14.2994 6.99997 15 7.70129 15 8.56247V16.6875C15 17.5494 14.2994 18.25 13.4375 18.25ZM1.5625 8.24997C1.39063 8.24997 1.25 8.39059 1.25 8.56247V16.6875C1.25 16.8593 1.39063 17 1.5625 17H13.4375C13.6094 17 13.75 16.8593 13.75 16.6875V8.56247C13.75 8.39004 13.6094 8.24997 13.4375 8.24997H1.5625Z" fill="white"/>
<path d="M16.875 15.75C16.5294 15.75 16.25 15.4705 16.25 15.125V6.06248C16.25 5.89005 16.1094 5.74998 15.9375 5.74998H2.5C2.15499 5.74998 1.875 5.46999 1.875 5.12498C1.875 4.77998 2.15499 4.49998 2.5 4.49998H15.9375C16.7994 4.49998 17.5 5.20131 17.5 6.06248V15.125C17.5 15.4705 17.2206 15.75 16.875 15.75Z" fill="white"/>
<path d="M19.375 13.25C19.0294 13.25 18.75 12.9706 18.75 12.625V3.5625C18.75 3.39062 18.6094 3.25 18.4375 3.25H5C4.65499 3.25 4.375 2.97001 4.375 2.625C4.375 2.27999 4.65499 2 5 2H18.4375C19.2994 2 20 2.70132 20 3.5625V12.625C20 12.9706 19.7206 13.25 19.375 13.25Z" fill="white"/>
<path d="M9.45325 12.625L6.172 10.75V14.5L9.45325 12.625Z" fill="white"/>
<path d="M6.17175 15.1249C6.06364 15.1249 5.95482 15.0967 5.858 15.0405C5.66547 14.9286 5.54675 14.7224 5.54675 14.4999V10.7499C5.54675 10.5274 5.66547 10.3212 5.858 10.2093C6.05177 10.0981 6.28796 10.0968 6.48175 10.2075L9.763 12.0825C9.95803 12.1937 10.078 12.4013 10.078 12.625C10.078 12.8488 9.95803 13.0562 9.763 13.1675L6.48175 15.0425C6.38549 15.0974 6.27862 15.1249 6.17176 15.1249L6.17175 15.1249ZM6.79675 11.8275V13.4231L8.19297 12.6249L6.79675 11.8275Z" fill="white"/>
</svg>
